<svg xmlns="http://www.w3.org/2000/svg" xmlns:xlink="http://www.w3.org/1999/xlink" width="1328" height="620" viewBox="0 0 1328 620">
  <defs>
    <clipPath id="clip-path">
      <rect id="Rectángulo_36829" data-name="Rectángulo 36829" width="1328" height="620" rx="20" transform="translate(136 5034)" fill="#fff" stroke="#707070" stroke-width="1"/>
    </clipPath>
  </defs>
  <g id="Enmascarar_grupo_76" data-name="Enmascarar grupo 76" transform="translate(-136 -5034)" clip-path="url(#clip-path)">
    <g id="bg-curve" transform="translate(136 5239)">
      <path id="Trazado_179748" data-name="Trazado 179748" d="M1916.664,1027.41V1916.2c-390.952-131.251-814.178,37.49-1328,71.213V1098.624C979.616,1229.875,1402.842,1061.134,1916.664,1027.41Z" transform="translate(-588.664 -1027.41)" fill="#fcf6d8"/>
      <path id="Trazado_179749" data-name="Trazado 179749" d="M829.12,1306.977A1561.95,1561.95,0,0,1,742.5,1049.692l2.624-.392A1547.237,1547.237,0,0,0,831.3,1305.717c51.974,119.277,78.157,235.942,77.824,346.754-.223,73.594-12.108,143.27-35.3,208.12-.86-.1-1.723-.187-2.583-.286C929.316,1697.673,915.158,1504.429,829.12,1306.977Z" transform="translate(265.034 -1013.379)" fill="#fff"/>
      <path id="Trazado_179750" data-name="Trazado 179750" d="M890.946,1140.567c-9.687-21.147-19.7-43.011-29.226-64.3-2.244-5.015-4.4-10.015-6.5-15.007l2.544-.415c1.985,4.7,4.007,9.414,6.121,14.139,9.519,21.275,19.532,43.138,29.215,64.275,85.951,187.655,174.828,381.7,119.036,575.512q-19.572,68-61.845,130.866-1.551.02-3.1.044,42.971-63.419,62.634-131.793C1065.288,1521.209,976.658,1327.7,890.946,1140.567Z" transform="translate(31.912 -1005.981)" fill="#fff"/>
      <path id="Trazado_179751" data-name="Trazado 179751" d="M590.253,1511.7c-6.083-95.679,5.261-180.54,34.68-259.431,19.146-51.344,46.1-100.731,82.7-150.284v4.327c-35.5,48.492-61.734,96.847-80.461,147.064-58.722,157.474-46.7,339.42,39,589.949,1.549,4.529,3.017,9.048,4.447,13.564-.944-.271-1.893-.515-2.838-.783-1.254-3.91-2.536-7.826-3.878-11.751C620.51,1717.492,596.419,1608.677,590.253,1511.7Z" transform="translate(620.366 -979.612)" fill="#fff"/>
      <path id="Trazado_179752" data-name="Trazado 179752" d="M1825.083,1578.668c24.775-168.674-22.387-338.488-133.64-488.035q1.977.354,3.955.7c45.739,61.709,80.54,126.75,103.912,194.362,33.193,96.023,42.673,194.749,28.178,293.44-16.333,111.2-63.607,219.346-136.711,312.742q-19.44,24.836-41.166,48.09-1.648.157-3.3.31C1742.173,1838.36,1805.31,1713.3,1825.083,1578.668Z" transform="translate(-1563.715 -986.886)" fill="#fff"/>
      <path id="Trazado_179753" data-name="Trazado 179753" d="M1916,1428.981c5.871,108.5-27.238,225.159-100.631,353.155v-5.141c71.648-126.045,103.98-240.969,98.2-347.838-5.435-100.447-43.81-185.863-98.2-263.142v-4.477C1871.042,1239.9,1910.463,1326.63,1916,1428.981Z" transform="translate(-1815.37 -941.438)" fill="#fff"/>
      <path id="Trazado_179754" data-name="Trazado 179754" d="M1675.816,1517.887c8.065-101.491-23.526-196.4-93.893-282.077-38.791-47.234-72.169-92.541-100.516-136.491,1.013.064,2.028.118,3.041.179,28.155,43.351,61.12,87.958,99.247,134.383,70.869,86.292,102.681,181.933,94.549,284.26-7.4,93.073-51.713,230.089-203.342,398.221-1.332.181-2.66.366-3.993.545C1623.865,1748.222,1668.42,1610.947,1675.816,1517.887Z" transform="translate(-1233.73 -981.319)" fill="#fff"/>
    </g>
  </g>
</svg>
