<svg xmlns="http://www.w3.org/2000/svg" xmlns:xlink="http://www.w3.org/1999/xlink" width="1030" height="190.302" viewBox="0 0 1030 190.302">
  <defs>
    <filter id="Trazado_762389" x="16.514" y="16.515" width="163.276" height="163.275" filterUnits="userSpaceOnUse">
      <feOffset dx="3" dy="3" input="SourceAlpha"/>
      <feGaussianBlur stdDeviation="3" result="blur"/>
      <feFlood flood-opacity="0.161"/>
      <feComposite operator="in" in2="blur"/>
      <feComposite in="SourceGraphic"/>
    </filter>
    <clipPath id="clip-path">
      <path id="Trazado_762412" data-name="Trazado 762412" d="M62.729,62.731a59,59,0,1,0,41.718-17.28,59,59,0,0,0-41.718,17.28" transform="translate(-45.449 -45.451)" fill="none"/>
    </clipPath>
    <linearGradient id="linear-gradient" x1="-0.031" y1="1.015" x2="-0.027" y2="1.015" gradientUnits="objectBoundingBox">
      <stop offset="0" stop-color="#fdfdfd"/>
      <stop offset="0.397" stop-color="#f5f5f5"/>
      <stop offset="1" stop-color="#e0e0e0"/>
    </linearGradient>
    <filter id="Trazado_762415" x="226.136" y="16.513" width="163.276" height="163.275" filterUnits="userSpaceOnUse">
      <feOffset dx="3" dy="3" input="SourceAlpha"/>
      <feGaussianBlur stdDeviation="3" result="blur-2"/>
      <feFlood flood-opacity="0.161"/>
      <feComposite operator="in" in2="blur-2"/>
      <feComposite in="SourceGraphic"/>
    </filter>
    <filter id="Trazado_824049" x="649.587" y="16.513" width="163.276" height="163.275" filterUnits="userSpaceOnUse">
      <feOffset dx="3" dy="3" input="SourceAlpha"/>
      <feGaussianBlur stdDeviation="3" result="blur-3"/>
      <feFlood flood-opacity="0.161"/>
      <feComposite operator="in" in2="blur-3"/>
      <feComposite in="SourceGraphic"/>
    </filter>
    <filter id="Trazado_824025" x="439.186" y="16.514" width="163.276" height="163.275" filterUnits="userSpaceOnUse">
      <feOffset dx="3" dy="3" input="SourceAlpha"/>
      <feGaussianBlur stdDeviation="3" result="blur-4"/>
      <feFlood flood-opacity="0.161"/>
      <feComposite operator="in" in2="blur-4"/>
      <feComposite in="SourceGraphic"/>
    </filter>
    <clipPath id="clip-path-2">
      <path id="Trazado_762439" data-name="Trazado 762439" d="M326.242,62.729a59,59,0,1,0,41.718-17.28,59,59,0,0,0-41.718,17.28" transform="translate(-308.962 -45.449)" fill="none"/>
    </clipPath>
    <linearGradient id="linear-gradient-2" x1="-1.202" y1="1.015" x2="-1.197" y2="1.015" xlink:href="#linear-gradient"/>
    <clipPath id="clip-path-4">
      <path id="Trazado_762439-3" data-name="Trazado 762439" d="M17.28,17.28A59,59,0,1,0,59,0,59,59,0,0,0,17.28,17.28" fill="none"/>
    </clipPath>
    <filter id="Trazado_762442" x="862.623" y="16.513" width="163.275" height="163.275" filterUnits="userSpaceOnUse">
      <feOffset dx="3" dy="3" input="SourceAlpha"/>
      <feGaussianBlur stdDeviation="3" result="blur-5"/>
      <feFlood flood-opacity="0.161"/>
      <feComposite operator="in" in2="blur-5"/>
      <feComposite in="SourceGraphic"/>
    </filter>
    <clipPath id="clip-path-5">
      <path id="Trazado_762461" data-name="Trazado 762461" d="M589.514,62.729a59,59,0,1,0,41.717-17.28,59,59,0,0,0-41.717,17.28" transform="translate(-572.234 -45.449)" fill="none"/>
    </clipPath>
    <linearGradient id="linear-gradient-5" x1="-2.371" y1="1.015" x2="-2.367" y2="1.015" xlink:href="#linear-gradient"/>
  </defs>
  <g id="Grupo_1078546" data-name="Grupo 1078546" transform="translate(-285 -2026.001)">
    <path id="Trazado_762388" data-name="Trazado 762388" d="M28.053,30.192A94.522,94.522,0,0,1,56.211,10.735v-.284a95.2,95.2,0,0,0,0,173.678v-.286A94.864,94.864,0,0,1,28.053,30.192M182.819,60.247a95.428,95.428,0,0,0-48.735-49.8v.283a94.938,94.938,0,0,1,0,173.119v.284A95.237,95.237,0,0,0,182.819,60.247" transform="translate(285 2023.864)" fill="#fe502d"/>
    <g transform="matrix(1, 0, 0, 1, 285, 2026)" filter="url(#Trazado_762389)">
      <path id="Trazado_762389-2" data-name="Trazado 762389" d="M173.578,100.942A72.638,72.638,0,1,1,100.94,28.3a72.638,72.638,0,0,1,72.638,72.638" transform="translate(-5.79 -5.79)" fill="#fe502d"/>
    </g>
    <path id="Trazado_762391" data-name="Trazado 762391" d="M105.619,224.389a.909.909,0,0,1-.908.908A88.473,88.473,0,0,1,46.7,203.72l1.289-1.287a86.655,86.655,0,0,0,56.717,21.048.909.909,0,0,1,.908.908" transform="translate(275.448 1984.6)" fill="#fe502d"/>
    <path id="Trazado_762392" data-name="Trazado 762392" d="M31.453,69.994a1.1,1.1,0,0,0,.56.152,1.117,1.117,0,0,0,.968-.557l.04-.069A1.118,1.118,0,1,0,31.086,68.4l-.039.069a1.115,1.115,0,0,0,.406,1.526" transform="translate(278.267 2013.479)" fill="#fe502d"/>
    <path id="Trazado_762393" data-name="Trazado 762393" d="M145.236,22.554l.123.033a.938.938,0,0,0,.237.031.909.909,0,0,0,.235-1.786L145.7,20.8a.909.909,0,1,0-.469,1.756" transform="translate(255.436 2021.753)" fill="#fe502d"/>
    <path id="Trazado_762394" data-name="Trazado 762394" d="M157.648,26.759l.119.049a.908.908,0,1,0,.7-1.678l-.122-.051a.909.909,0,0,0-.694,1.679" transform="translate(252.874 2020.885)" fill="#fe502d"/>
    <path id="Trazado_762395" data-name="Trazado 762395" d="M198.9,58.413a.908.908,0,1,0,1.44-1.108l-.079-.1a.909.909,0,0,0-1.441,1.107Z" transform="translate(244.377 2014.375)" fill="#fe502d"/>
    <path id="Trazado_762396" data-name="Trazado 762396" d="M132.376,20.021l.128.017a1,1,0,0,0,.119.008.909.909,0,0,0,.117-1.81l-.13-.017a.908.908,0,1,0-.234,1.8" transform="translate(258.09 2022.275)" fill="#fe502d"/>
    <path id="Trazado_762397" data-name="Trazado 762397" d="M180.307,39.827l.1.079a.909.909,0,0,0,1.107-1.441l-.1-.08a.909.909,0,1,0-1.107,1.441" transform="translate(248.198 2018.188)" fill="#fe502d"/>
    <path id="Trazado_762398" data-name="Trazado 762398" d="M119.293,19.19h.13a.908.908,0,0,0,0-1.817h-.13a.908.908,0,1,0,0,1.817" transform="translate(260.789 2022.447)" fill="#fe502d"/>
    <path id="Trazado_762399" data-name="Trazado 762399" d="M169.408,32.547l.112.064a.908.908,0,1,0,.908-1.573l-.113-.065a.909.909,0,0,0-.908,1.574" transform="translate(250.447 2019.69)" fill="#fe502d"/>
    <path id="Trazado_762400" data-name="Trazado 762400" d="M190.254,48.561a.908.908,0,0,0,1.284-1.285l-.091-.092a.909.909,0,1,0-1.286,1.286Z" transform="translate(246.165 2016.404)" fill="#fe502d"/>
    <path id="Trazado_762401" data-name="Trazado 762401" d="M80.605,26.883a.9.9,0,0,0,.348-.07l.119-.049a.909.909,0,0,0-.694-1.68l-.122.051a.909.909,0,0,0,.349,1.748" transform="translate(268.701 2020.884)" fill="#fe502d"/>
    <path id="Trazado_762402" data-name="Trazado 762402" d="M57.762,40.1a.906.906,0,0,0,.554-.189l.1-.078a.909.909,0,1,0-1.107-1.441l-.1.08a.909.909,0,0,0,.555,1.628" transform="translate(273.373 2018.188)" fill="#fe502d"/>
    <path id="Trazado_762403" data-name="Trazado 762403" d="M47.833,48.835a.907.907,0,0,0,.643-.266l.093-.093a.909.909,0,0,0-1.288-1.282l-.091.091a.909.909,0,0,0,.643,1.551" transform="translate(275.403 2016.403)" fill="#fe502d"/>
    <path id="Trazado_762404" data-name="Trazado 762404" d="M38.639,58.987a1.117,1.117,0,0,0,1.566-.206l.1-.124a1.118,1.118,0,0,0-1.771-1.365l-.1.129a1.117,1.117,0,0,0,.206,1.566" transform="translate(278.109 2013.716)" fill="#fe502d"/>
    <path id="Trazado_762405" data-name="Trazado 762405" d="M106.094,20.046a.859.859,0,0,0,.119-.008l.126-.017a.908.908,0,0,0-.231-1.8l-.131.017a.909.909,0,0,0,.117,1.81" transform="translate(263.488 2022.275)" fill="#fe502d"/>
    <path id="Trazado_762406" data-name="Trazado 762406" d="M93.123,22.621a.936.936,0,0,0,.236-.031l.124-.033a.909.909,0,1,0-.469-1.756l-.126.033a.909.909,0,0,0,.235,1.787" transform="translate(266.14 2021.753)" fill="#fe502d"/>
    <path id="Trazado_762407" data-name="Trazado 762407" d="M68.748,32.74a.906.906,0,0,0,.454-.123l.112-.064a.909.909,0,0,0-.909-1.573l-.113.065a.909.909,0,0,0,.456,1.7" transform="translate(271.127 2019.689)" fill="#fe502d"/>
    <path id="Trazado_762408" data-name="Trazado 762408" d="M220.229,117.24a1.89,1.89,0,1,0,1.89,1.891,1.893,1.893,0,0,0-1.89-1.891" transform="translate(240.347 2002.023)" fill="#fe502d"/>
    <path id="Trazado_762409" data-name="Trazado 762409" d="M243.442,108.12H205.781a6.059,6.059,0,0,0-5.284-5.094,80.708,80.708,0,0,0-6.179-25.659,81.628,81.628,0,0,0-4.487-9.014h0L189.8,68.3a.908.908,0,0,0-1.573.909l.033.055v0a79.8,79.8,0,0,1,4.386,8.813,78.86,78.86,0,0,1,6.035,25.017,6.042,6.042,0,0,0,0,11.873,79.457,79.457,0,0,1-79.3,73.58.908.908,0,0,0,0,1.817,81.275,81.275,0,0,0,81.118-75.33,6.059,6.059,0,0,0,5.284-5.094h37.662a.908.908,0,1,0,0-1.817m-43.637,5.134a4.226,4.226,0,1,1,4.226-4.226,4.231,4.231,0,0,1-4.226,4.226" transform="translate(260.772 2012.125)" fill="#fe502d"/>
    <g id="Grupo_1078542" data-name="Grupo 1078542" transform="translate(292.584 2083.749)">
      <path id="Trazado_762390" data-name="Trazado 762390" d="M15.714,132.83a76.464,76.464,0,0,0,12.557,20.219l-1.14,1.14a78.574,78.574,0,0,1-12.9-81.834,79.016,79.016,0,0,1,4.33-8.7.8.8,0,0,1,1.392.8,77.3,77.3,0,0,0-4.241,8.521,77.1,77.1,0,0,0,0,59.85" transform="translate(-8.063 -63.253)" fill="#fe502d"/>
      <path id="Trazado_762410" data-name="Trazado 762410" d="M43.721,196.057a3.443,3.443,0,1,1-3.444-3.444,3.444,3.444,0,0,1,3.444,3.444" transform="translate(-16.593 -101.609)" fill="#fe502d"/>
      <path id="Trazado_762411" data-name="Trazado 762411" d="M42.563,196.9a1.441,1.441,0,1,1-1.441-1.441,1.441,1.441,0,0,1,1.441,1.441" transform="translate(-17.437 -102.453)" fill="#fff"/>
    </g>
    <g id="Grupo_1024272" data-name="Grupo 1024272" transform="translate(321.154 2062.156)">
      <g id="Grupo_1024271" data-name="Grupo 1024271" transform="translate(0 0)" clip-path="url(#clip-path)">
        <rect id="Rectángulo_358970" data-name="Rectángulo 358970" width="179.089" height="179.089" transform="translate(-67.638 61.877) rotate(-45)" fill="url(#linear-gradient)"/>
      </g>
    </g>
    <path id="Trazado_762413" data-name="Trazado 762413" d="M64.706,64.709a56.946,56.946,0,1,1,0,80.534,56.947,56.947,0,0,1,0-80.534" transform="translate(275.178 2016.177)" fill="#f3f4f5"/>
    <path id="Trazado_762414" data-name="Trazado 762414" d="M395.707,182.819A95.25,95.25,0,0,0,447.512,61.032l-.2.2A94.944,94.944,0,0,1,324.3,183.625l-.2.2a95.443,95.443,0,0,0,71.608-1.005M263.772,95.152A94.947,94.947,0,0,1,392.093,6.319l.2-.2A95.207,95.207,0,0,0,269.461,128.332l.2-.2a94.372,94.372,0,0,1-5.891-32.979" transform="translate(231.109 2026)" fill="#ffca00"/>
    <path id="Trazado_824048" data-name="Trazado 824048" d="M395.707,182.819A95.25,95.25,0,0,0,447.512,61.032l-.2.2A94.944,94.944,0,0,1,324.3,183.625l-.2.2a95.443,95.443,0,0,0,71.608-1.005M263.772,95.152A94.947,94.947,0,0,1,392.093,6.319l.2-.2A95.207,95.207,0,0,0,269.461,128.332l.2-.2a94.372,94.372,0,0,1-5.891-32.979" transform="translate(654.561 2026)" fill="#ffca00"/>
    <path id="Trazado_824024" data-name="Trazado 824024" d="M132.194,182.818A95.25,95.25,0,0,0,184,61.031l-.2.2A94.944,94.944,0,0,1,60.785,183.624l-.2.2a95.443,95.443,0,0,0,71.608-1.005M.259,95.151A94.947,94.947,0,0,1,128.58,6.318l.2-.2A95.207,95.207,0,0,0,5.948,128.331l.2-.2A94.372,94.372,0,0,1,.259,95.151" transform="translate(897.975 2216.303) rotate(180)" fill="#2d54fe"/>
    <g transform="matrix(1, 0, 0, 1, 285, 2026)" filter="url(#Trazado_762415)">
      <path id="Trazado_762415-2" data-name="Trazado 762415" d="M437.091,100.94A72.638,72.638,0,1,1,364.453,28.3a72.638,72.638,0,0,1,72.638,72.638" transform="translate(-59.68 -5.79)" fill="#ffca00"/>
    </g>
    <g transform="matrix(1, 0, 0, 1, 285, 2026)" filter="url(#Trazado_824049)">
      <path id="Trazado_824049-2" data-name="Trazado 824049" d="M437.091,100.94A72.638,72.638,0,1,1,364.453,28.3a72.638,72.638,0,0,1,72.638,72.638" transform="translate(363.77 -5.79)" fill="#ffca00"/>
    </g>
    <g transform="matrix(1, 0, 0, 1, 285, 2026)" filter="url(#Trazado_824025)">
      <path id="Trazado_824025-2" data-name="Trazado 824025" d="M145.276,72.638A72.638,72.638,0,1,1,72.638,0a72.638,72.638,0,0,1,72.638,72.638" transform="translate(590.46 167.79) rotate(180)" fill="#2d54fe"/>
    </g>
    <path id="Trazado_762416" data-name="Trazado 762416" d="M327.333,12.227a90.349,90.349,0,0,1,29-6.944V7.1a89.1,89.1,0,0,0-56.7,25.942,89.522,89.522,0,0,0-14.089,18.276.908.908,0,1,1-1.57-.914,91.56,91.56,0,0,1,43.353-38.181" transform="translate(226.948 2024.92)" fill="#ffca00"/>
    <path id="Trazado_824073" data-name="Trazado 824073" d="M327.333,12.227a90.349,90.349,0,0,1,29-6.944V7.1a89.1,89.1,0,0,0-56.7,25.942,89.522,89.522,0,0,0-14.089,18.276.908.908,0,1,1-1.57-.914,91.56,91.56,0,0,1,43.353-38.181" transform="translate(650.399 2024.92)" fill="#ffca00"/>
    <path id="Trazado_824045" data-name="Trazado 824045" d="M43.477,6.944A90.349,90.349,0,0,1,72.48,0V1.821a89.1,89.1,0,0,0-56.7,25.942A89.522,89.522,0,0,0,1.694,46.039a.908.908,0,1,1-1.57-.914A91.56,91.56,0,0,1,43.477,6.944" transform="translate(881.794 2212.101) rotate(180)" fill="#2d54fe"/>
    <path id="Trazado_762417" data-name="Trazado 762417" d="M463.441,51.877a.908.908,0,0,1-1.241-.333A89.761,89.761,0,0,0,419.581,13.9a88.55,88.55,0,0,0-28.3-6.8V5.283a90.93,90.93,0,0,1,57.982,26.478,91.33,91.33,0,0,1,14.507,18.875.909.909,0,0,1-.333,1.241" transform="translate(204.978 2024.92)" fill="#ffca00"/>
    <path id="Trazado_824067" data-name="Trazado 824067" d="M463.441,51.877a.908.908,0,0,1-1.241-.333A89.761,89.761,0,0,0,419.581,13.9a88.55,88.55,0,0,0-28.3-6.8V5.283a90.93,90.93,0,0,1,57.982,26.478,91.33,91.33,0,0,1,14.507,18.875.909.909,0,0,1-.333,1.241" transform="translate(628.429 2024.92)" fill="#ffca00"/>
    <path id="Trazado_824046" data-name="Trazado 824046" d="M72.156,46.594a.908.908,0,0,1-1.241-.333A89.489,89.489,0,0,0,56.7,27.763,89.048,89.048,0,0,0,28.3,8.617,88.55,88.55,0,0,0,0,1.821V0A90.328,90.328,0,0,1,29,6.944a90.885,90.885,0,0,1,28.98,19.534A91.33,91.33,0,0,1,72.489,45.353a.909.909,0,0,1-.333,1.241" transform="translate(796.335 2212.101) rotate(180)" fill="#2d54fe"/>
    <path id="Trazado_762418" data-name="Trazado 762418" d="M471.257,68.365a.908.908,0,0,0-1.573.909l.031.055a.909.909,0,1,0,1.575-.907Z" transform="translate(188.97 2012.111)" fill="#ffca00"/>
    <path id="Trazado_824064" data-name="Trazado 824064" d="M471.257,68.365a.908.908,0,0,0-1.573.909l.031.055a.909.909,0,1,0,1.575-.907Z" transform="translate(612.421 2012.111)" fill="#ffca00"/>
    <path id="Trazado_824044" data-name="Trazado 824044" d="M1.695.454a.908.908,0,0,0-1.573.909l.031.055A.909.909,0,1,0,1.728.511Z" transform="translate(734.066 2162.281) rotate(180)" fill="#ffca00"/>
    <path id="Trazado_762419" data-name="Trazado 762419" d="M479.408,89.163A.908.908,0,0,0,478.8,90.3l.033.107a.909.909,0,1,0,1.74-.522l-.034-.111a.909.909,0,0,0-1.133-.606" transform="translate(187.089 2007.774)" fill="#ffca00"/>
    <path id="Trazado_824065" data-name="Trazado 824065" d="M479.408,89.163A.908.908,0,0,0,478.8,90.3l.033.107a.909.909,0,1,0,1.74-.522l-.034-.111a.909.909,0,0,0-1.133-.606" transform="translate(610.54 2007.774)" fill="#ffca00"/>
    <path id="Trazado_824042" data-name="Trazado 824042" d="M.645.039A.908.908,0,0,0,.039,1.172l.033.107A.909.909,0,1,0,1.812.757L1.778.645A.909.909,0,0,0,.645.039" transform="translate(726.745 2145.406) rotate(180)" fill="#ffca00"/>
    <path id="Trazado_762420" data-name="Trazado 762420" d="M476.544,78.88l-.047-.108a.908.908,0,0,0-1.665.727l.044.1a.909.909,0,0,0,1.668-.721" transform="translate(187.908 2010.002)" fill="#ffca00"/>
    <path id="Trazado_824066" data-name="Trazado 824066" d="M476.544,78.88l-.047-.108a.908.908,0,0,0-1.665.727l.044.1a.909.909,0,0,0,1.668-.721" transform="translate(611.359 2010.002)" fill="#ffca00"/>
    <path id="Trazado_824043" data-name="Trazado 824043" d="M1.788.653,1.741.545a.908.908,0,0,0-1.665.727l.044.1A.909.909,0,0,0,1.788.653" transform="translate(729.934 2154.074) rotate(180)" fill="#ffca00"/>
    <path id="Trazado_762421" data-name="Trazado 762421" d="M481.5,101.481l.02.112a.909.909,0,0,0,.893.748.859.859,0,0,0,.161-.014.908.908,0,0,0,.734-1.054l-.021-.113a.908.908,0,1,0-1.788.321" transform="translate(186.531 2005.465)" fill="#ffca00"/>
    <path id="Trazado_824056" data-name="Trazado 824056" d="M481.5,101.481l.02.112a.909.909,0,0,0,.893.748.859.859,0,0,0,.161-.014.908.908,0,0,0,.734-1.054l-.021-.113a.908.908,0,1,0-1.788.321" transform="translate(609.982 2005.465)" fill="#ffca00"/>
    <path id="Trazado_824040" data-name="Trazado 824040" d="M.015,1.069l.02.112a.909.909,0,0,0,.893.748.859.859,0,0,0,.161-.014A.908.908,0,0,0,1.823.861L1.8.748a.908.908,0,1,0-1.788.321" transform="translate(724.585 2136.427) rotate(180)" fill="#ffca00"/>
    <path id="Trazado_762422" data-name="Trazado 762422" d="M360.962,188.5H360.9a79.456,79.456,0,0,1-79.3-73.577,6.042,6.042,0,0,0,0-11.873,78.849,78.849,0,0,1,6.035-25.018,79.757,79.757,0,0,1,4.5-9.011.908.908,0,1,0-1.57-.913,82.052,82.052,0,0,0-4.6,9.216,80.714,80.714,0,0,0-6.178,25.661,6.042,6.042,0,0,0,0,12.005A81.269,81.269,0,0,0,360.9,190.321h.064a.908.908,0,1,0,0-1.817M276.246,108.99a4.226,4.226,0,1,1,4.226,4.226,4.23,4.23,0,0,1-4.226-4.226" transform="translate(228.877 2012.164)" fill="#ffca00"/>
    <path id="Trazado_824070" data-name="Trazado 824070" d="M360.962,188.5H360.9a79.456,79.456,0,0,1-79.3-73.577,6.042,6.042,0,0,0,0-11.873,78.849,78.849,0,0,1,6.035-25.018,79.757,79.757,0,0,1,4.5-9.011.908.908,0,1,0-1.57-.913,82.052,82.052,0,0,0-4.6,9.216,80.714,80.714,0,0,0-6.178,25.661,6.042,6.042,0,0,0,0,12.005A81.269,81.269,0,0,0,360.9,190.321h.064a.908.908,0,1,0,0-1.817M276.246,108.99a4.226,4.226,0,1,1,4.226,4.226,4.23,4.23,0,0,1-4.226-4.226" transform="translate(652.328 2012.164)" fill="#ffca00"/>
    <path id="Trazado_824041" data-name="Trazado 824041" d="M86.533,120.845h-.064A79.456,79.456,0,0,1,7.17,47.268a6.042,6.042,0,0,0,0-11.873A78.849,78.849,0,0,1,13.2,10.376a79.757,79.757,0,0,1,4.5-9.011.908.908,0,1,0-1.57-.913,82.052,82.052,0,0,0-4.6,9.216A80.714,80.714,0,0,0,5.351,35.328a6.042,6.042,0,0,0,0,12.005,81.269,81.269,0,0,0,81.116,75.328h.064a.908.908,0,1,0,0-1.817M1.817,41.331a4.226,4.226,0,1,1,4.226,4.226,4.23,4.23,0,0,1-4.226-4.226" transform="translate(889.292 2162.481) rotate(180)" fill="#2d54fe"/>
    <path id="Trazado_762423" data-name="Trazado 762423" d="M431.181,207.18l-.108.06a.908.908,0,1,0,.874,1.593l.111-.06a.909.909,0,0,0-.877-1.592" transform="translate(196.938 1983.652)" fill="#ffca00"/>
    <path id="Trazado_824057" data-name="Trazado 824057" d="M431.181,207.18l-.108.06a.908.908,0,1,0,.874,1.593l.111-.06a.909.909,0,0,0-.877-1.592" transform="translate(620.389 1983.652)" fill="#ffca00"/>
    <path id="Trazado_824029" data-name="Trazado 824029" d="M.58.113.472.172a.908.908,0,1,0,.874,1.593l.111-.06A.909.909,0,0,0,.58.113" transform="translate(765.057 2051.584) rotate(180)" fill="#ffca00"/>
    <path id="Trazado_762424" data-name="Trazado 762424" d="M395.495,218.788l-.121.015a.909.909,0,0,0,.11,1.811.887.887,0,0,0,.111-.007l.127-.016a.908.908,0,1,0-.228-1.8" transform="translate(204.305 1981.257)" fill="#ffca00"/>
    <path id="Trazado_824069" data-name="Trazado 824069" d="M395.495,218.788l-.121.015a.909.909,0,0,0,.11,1.811.887.887,0,0,0,.111-.007l.127-.016a.908.908,0,1,0-.228-1.8" transform="translate(627.756 1981.257)" fill="#ffca00"/>
    <path id="Trazado_824030" data-name="Trazado 824030" d="M.919.007.8.022a.909.909,0,0,0,.11,1.811.887.887,0,0,0,.111-.007l.127-.016A.908.908,0,1,0,.919.007" transform="translate(793.716 2042.266) rotate(180)" fill="#ffca00"/>
    <path id="Trazado_762425" data-name="Trazado 762425" d="M419.8,212.541l-.112.045a.909.909,0,0,0,.665,1.691l.119-.048a.908.908,0,1,0-.672-1.688" transform="translate(199.287 1982.546)" fill="#ffca00"/>
    <path id="Trazado_824058" data-name="Trazado 824058" d="M419.8,212.541l-.112.045a.909.909,0,0,0,.665,1.691l.119-.048a.908.908,0,1,0-.672-1.688" transform="translate(622.739 1982.546)" fill="#ffca00"/>
    <path id="Trazado_824031" data-name="Trazado 824031" d="M.689.065.576.109A.909.909,0,0,0,1.241,1.8l.119-.048A.908.908,0,1,0,.689.065" transform="translate(774.196 2047.281) rotate(180)" fill="#ffca00"/>
    <path id="Trazado_762426" data-name="Trazado 762426" d="M441.795,200.432l-.1.075a.908.908,0,1,0,1.069,1.468l.1-.072a.909.909,0,0,0-1.068-1.471" transform="translate(194.746 1985.045)" fill="#ffca00"/>
    <path id="Trazado_824054" data-name="Trazado 824054" d="M441.795,200.432l-.1.075a.908.908,0,1,0,1.069,1.468l.1-.072a.909.909,0,0,0-1.068-1.471" transform="translate(618.197 1985.045)" fill="#ffca00"/>
    <path id="Trazado_824032" data-name="Trazado 824032" d="M.476.173l-.1.075A.908.908,0,1,0,1.443,1.716l.1-.072A.909.909,0,0,0,.476.173" transform="translate(756.533 2057.001) rotate(180)" fill="#ffca00"/>
    <path id="Trazado_762427" data-name="Trazado 762427" d="M407.847,216.437l-.118.03a.908.908,0,1,0,.449,1.76l.124-.031a.909.909,0,1,0-.455-1.76" transform="translate(201.755 1981.742)" fill="#ffca00"/>
    <path id="Trazado_824068" data-name="Trazado 824068" d="M407.847,216.437l-.118.03a.908.908,0,1,0,.449,1.76l.124-.031a.909.909,0,1,0-.455-1.76" transform="translate(625.207 1981.742)" fill="#ffca00"/>
    <path id="Trazado_824033" data-name="Trazado 824033" d="M.8.029.684.059a.908.908,0,1,0,.449,1.76l.124-.031A.909.909,0,1,0,.8.029" transform="translate(783.798 2044.153) rotate(180)" fill="#ffca00"/>
    <path id="Trazado_762428" data-name="Trazado 762428" d="M451.473,192.4l-.09.084a.909.909,0,0,0,1.243,1.326l.092-.087a.909.909,0,0,0-1.246-1.323" transform="translate(192.746 1986.702)" fill="#ffca00"/>
    <path id="Trazado_824050" data-name="Trazado 824050" d="M451.473,192.4l-.09.084a.909.909,0,0,0,1.243,1.326l.092-.087a.909.909,0,0,0-1.246-1.323" transform="translate(616.197 1986.702)" fill="#ffca00"/>
    <path id="Trazado_824034" data-name="Trazado 824034" d="M.377.247.287.331A.909.909,0,0,0,1.53,1.657l.092-.087A.909.909,0,0,0,.377.247" transform="translate(748.756 2063.444) rotate(180)" fill="#ffca00"/>
    <path id="Trazado_762429" data-name="Trazado 762429" d="M482.385,137.466a.91.91,0,0,0-1.062.724l-.022.119a.909.909,0,0,0,1.784.344l.024-.125a.909.909,0,0,0-.724-1.062" transform="translate(186.572 1997.89)" fill="#ffca00"/>
    <path id="Trazado_824059" data-name="Trazado 824059" d="M482.385,137.466a.91.91,0,0,0-1.062.724l-.022.119a.909.909,0,0,0,1.784.344l.024-.125a.909.909,0,0,0-.724-1.062" transform="translate(610.024 1997.89)" fill="#ffca00"/>
    <path id="Trazado_824035" data-name="Trazado 824035" d="M1.1.016A.91.91,0,0,0,.039.74L.017.859A.909.909,0,0,0,1.8,1.2l.024-.125A.909.909,0,0,0,1.1.016" transform="translate(724.741 2106.963) rotate(180)" fill="#ffca00"/>
    <path id="Trazado_762430" data-name="Trazado 762430" d="M474.762,161.621a.908.908,0,0,0-1.208.438l-.052.11a.908.908,0,0,0,1.643.776l.054-.116a.908.908,0,0,0-.438-1.208" transform="translate(188.182 1992.965)" fill="#ffca00"/>
    <path id="Trazado_824055" data-name="Trazado 824055" d="M474.762,161.621a.908.908,0,0,0-1.208.438l-.052.11a.908.908,0,0,0,1.643.776l.054-.116a.908.908,0,0,0-.438-1.208" transform="translate(611.633 1992.965)" fill="#ffca00"/>
    <path id="Trazado_824036" data-name="Trazado 824036" d="M1.347.086A.908.908,0,0,0,.139.523L.088.633a.908.908,0,0,0,1.643.776l.054-.116A.908.908,0,0,0,1.347.086" transform="translate(731.001 2087.804) rotate(180)" fill="#ffca00"/>
    <path id="Trazado_762431" data-name="Trazado 762431" d="M479.339,149.785a.909.909,0,0,0-1.145.584l-.038.116a.909.909,0,0,0,.582,1.146.919.919,0,0,0,.282.045.908.908,0,0,0,.863-.627l.039-.12a.908.908,0,0,0-.583-1.145" transform="translate(187.22 1995.376)" fill="#ffca00"/>
    <path id="Trazado_824060" data-name="Trazado 824060" d="M479.339,149.785a.909.909,0,0,0-1.145.584l-.038.116a.909.909,0,0,0,.582,1.146.919.919,0,0,0,.282.045.908.908,0,0,0,.863-.627l.039-.12a.908.908,0,0,0-.583-1.145" transform="translate(610.672 1995.376)" fill="#ffca00"/>
    <path id="Trazado_824037" data-name="Trazado 824037" d="M1.228.044A.909.909,0,0,0,.083.628L.045.744A.909.909,0,0,0,.627,1.891a.919.919,0,0,0,.282.045.908.908,0,0,0,.863-.627l.039-.12A.908.908,0,0,0,1.228.044" transform="translate(727.266 2097.188) rotate(180)" fill="#ffca00"/>
    <path id="Trazado_762432" data-name="Trazado 762432" d="M468.748,172.8a.909.909,0,0,0-1.255.278l-.067.105a.909.909,0,0,0,1.532.977l.068-.105a.91.91,0,0,0-.278-1.254" transform="translate(189.436 1990.691)" fill="#ffca00"/>
    <path id="Trazado_824051" data-name="Trazado 824051" d="M468.748,172.8a.909.909,0,0,0-1.255.278l-.067.105a.909.909,0,0,0,1.532.977l.068-.105a.91.91,0,0,0-.278-1.254" transform="translate(612.888 1990.691)" fill="#ffca00"/>
    <path id="Trazado_824027" data-name="Trazado 824027" d="M1.464.143A.909.909,0,0,0,.209.42L.142.525A.909.909,0,0,0,1.674,1.5L1.742,1.4A.91.91,0,0,0,1.464.143" transform="translate(735.878 2078.96) rotate(180)" fill="#ffca00"/>
    <path id="Trazado_762433" data-name="Trazado 762433" d="M461.366,183.118a.909.909,0,0,0-1.279.122l-.077.093a.909.909,0,0,0,1.4,1.163l.082-.1a.909.909,0,0,0-.122-1.279" transform="translate(190.966 1988.593)" fill="#ffca00"/>
    <path id="Trazado_824052" data-name="Trazado 824052" d="M461.366,183.118a.909.909,0,0,0-1.279.122l-.077.093a.909.909,0,0,0,1.4,1.163l.082-.1a.909.909,0,0,0-.122-1.279" transform="translate(614.417 1988.593)" fill="#ffca00"/>
    <path id="Trazado_824026" data-name="Trazado 824026" d="M1.567.208A.909.909,0,0,0,.288.33L.211.423a.909.909,0,0,0,1.4,1.163l.082-.1A.909.909,0,0,0,1.567.208" transform="translate(741.832 2070.8) rotate(180)" fill="#ffca00"/>
    <path id="Trazado_762434" data-name="Trazado 762434" d="M283.429,119.13a1.89,1.89,0,1,0-1.89,1.89,1.892,1.892,0,0,0,1.89-1.89" transform="translate(227.808 2002.023)" fill="#ffca00"/>
    <path id="Trazado_824074" data-name="Trazado 824074" d="M283.429,119.13a1.89,1.89,0,1,0-1.89,1.89,1.892,1.892,0,0,0,1.89-1.89" transform="translate(651.26 2002.023)" fill="#ffca00"/>
    <path id="Trazado_824047" data-name="Trazado 824047" d="M3.779,1.89a1.89,1.89,0,1,0-1.89,1.89,1.892,1.892,0,0,0,1.89-1.89" transform="translate(885.139 2123.041) rotate(180)" fill="#2d54fe"/>
    <path id="Trazado_762435" data-name="Trazado 762435" d="M483.742,117.24a1.89,1.89,0,1,0,1.89,1.891,1.893,1.893,0,0,0-1.89-1.891" transform="translate(186.456 2002.023)" fill="#ffca00"/>
    <path id="Trazado_824061" data-name="Trazado 824061" d="M483.742,117.24a1.89,1.89,0,1,0,1.89,1.891,1.893,1.893,0,0,0-1.89-1.891" transform="translate(609.908 2002.023)" fill="#ffca00"/>
    <path id="Trazado_824038" data-name="Trazado 824038" d="M1.89,0A1.89,1.89,0,1,0,3.78,1.891,1.893,1.893,0,0,0,1.89,0" transform="translate(724.289 2123.041) rotate(180)" fill="#2d54fe"/>
    <path id="Trazado_824062" data-name="Trazado 824062" d="M526.121,117.139H488.649a6.053,6.053,0,0,0-5.8-5.131.9.9,0,0,0-.731.022,6.042,6.042,0,0,0,0,12.033.863.863,0,0,0,.339.088c.018,0,.037,0,.054,0a.913.913,0,0,0,.342-.067,6.053,6.053,0,0,0,5.8-5.13h37.472a.908.908,0,1,0,0-1.817m-43.446,5.134a4.226,4.226,0,1,1,4.226-4.226,4.231,4.231,0,0,1-4.226,4.226" transform="translate(610.974 2003.107)" fill="#ffca00"/>
    <path id="Trazado_824075" data-name="Trazado 824075" d="M49.489,5.2H12.017A6.053,6.053,0,0,0,6.22.067a.9.9,0,0,0-.731.022,6.042,6.042,0,0,0,0,12.033.863.863,0,0,0,.339.088c.018,0,.037,0,.054,0a.913.913,0,0,0,.342-.067,6.053,6.053,0,0,0,5.8-5.13H49.489a.908.908,0,1,0,0-1.817M6.043,10.332a4.226,4.226,0,1,1,4.226-4.226,4.231,4.231,0,0,1-4.226,4.226" transform="translate(877.287 2115.044)" fill="#2d54fe"/>
    <path id="Trazado_824063" data-name="Trazado 824063" d="M49.489,5.2H12.017A6.053,6.053,0,0,0,6.22.067a.9.9,0,0,0-.731.022,6.042,6.042,0,0,0,0,12.033.863.863,0,0,0,.339.088c.018,0,.037,0,.054,0a.913.913,0,0,0,.342-.067,6.053,6.053,0,0,0,5.8-5.13H49.489a.908.908,0,1,0,0-1.817M6.043,10.332a4.226,4.226,0,1,1,4.226-4.226,4.231,4.231,0,0,1-4.226,4.226" transform="translate(1151.894 2127.256) rotate(180)" fill="#ffca00"/>
    <path id="Trazado_762437" data-name="Trazado 762437" d="M386.02,5.424a3.894,3.894,0,1,1-3.894-3.894,3.894,3.894,0,0,1,3.894,3.894" transform="translate(207.648 2025.688)" fill="#ffca00"/>
    <path id="Trazado_824071" data-name="Trazado 824071" d="M386.02,5.424a3.894,3.894,0,1,1-3.894-3.894,3.894,3.894,0,0,1,3.894,3.894" transform="translate(631.099 2025.688)" fill="#ffca00"/>
    <path id="Trazado_762438" data-name="Trazado 762438" d="M384.337,6.006a1.629,1.629,0,1,1-1.629-1.629,1.629,1.629,0,0,1,1.629,1.629" transform="translate(207.065 2025.106)" fill="#fff"/>
    <path id="Trazado_824072" data-name="Trazado 824072" d="M384.337,6.006a1.629,1.629,0,1,1-1.629-1.629,1.629,1.629,0,0,1,1.629,1.629" transform="translate(630.516 2025.106)" fill="#fff"/>
    <g id="Grupo_1024276" data-name="Grupo 1024276" transform="translate(530.776 2062.155)">
      <g id="Grupo_1024275" data-name="Grupo 1024275" transform="translate(0 0)" clip-path="url(#clip-path-2)">
        <rect id="Rectángulo_358972" data-name="Rectángulo 358972" width="179.089" height="179.089" transform="translate(-67.638 61.877) rotate(-45)" fill="url(#linear-gradient-2)"/>
      </g>
    </g>
    <g id="Grupo_1078545" data-name="Grupo 1078545" transform="translate(954.228 2062.155)">
      <g id="Grupo_1024275-2" data-name="Grupo 1024275" transform="translate(0 0)" clip-path="url(#clip-path-2)">
        <rect id="Rectángulo_358972-2" data-name="Rectángulo 358972" width="179.089" height="179.089" transform="translate(-67.638 61.877) rotate(-45)" fill="url(#linear-gradient-2)"/>
      </g>
    </g>
    <g id="Grupo_1078543" data-name="Grupo 1078543" transform="translate(861.821 2180.149) rotate(180)">
      <g id="Grupo_1024275-3" data-name="Grupo 1024275" transform="translate(0 0)" clip-path="url(#clip-path-4)">
        <rect id="Rectángulo_358972-3" data-name="Rectángulo 358972" width="179.089" height="179.089" transform="translate(-67.638 61.877) rotate(-45)" fill="url(#linear-gradient-2)"/>
      </g>
    </g>
    <path id="Trazado_762440" data-name="Trazado 762440" d="M328.22,64.706a56.946,56.946,0,1,1,0,80.534,56.947,56.947,0,0,1,0-80.534" transform="translate(221.286 2016.178)" fill="#f3f4f5"/>
    <path id="Trazado_824053" data-name="Trazado 824053" d="M328.22,64.706a56.946,56.946,0,1,1,0,80.534,56.947,56.947,0,0,1,0-80.534" transform="translate(644.737 2016.178)" fill="#f3f4f5"/>
    <path id="Trazado_824028" data-name="Trazado 824028" d="M16.679,16.679a56.946,56.946,0,1,1,0,80.534,56.947,56.947,0,0,1,0-80.534" transform="translate(859.771 2178.1) rotate(180)" fill="#f3f4f5"/>
    <path id="Trazado_832972" data-name="Trazado 832972" d="M23.483,15V3.625h3.984a5.232,5.232,0,0,1,3.141.793,2.712,2.712,0,0,1,1.07,2.324,2.57,2.57,0,0,1-.43,1.473,2.482,2.482,0,0,1-1.2.934,2.4,2.4,0,0,1,1.379.883,2.61,2.61,0,0,1,.5,1.625,3,3,0,0,1-1.047,2.484A4.713,4.713,0,0,1,27.905,15Zm2.344-4.953v3.07h2.008a1.938,1.938,0,0,0,1.293-.395,1.353,1.353,0,0,0,.465-1.09,1.428,1.428,0,0,0-1.617-1.586Zm0-1.656h1.734q1.773-.031,1.773-1.414a1.307,1.307,0,0,0-.449-1.113,2.363,2.363,0,0,0-1.418-.34H25.827ZM38.444,15a2.507,2.507,0,0,1-.227-.758,2.732,2.732,0,0,1-2.133.914,3,3,0,0,1-2.059-.719,2.312,2.312,0,0,1-.816-1.812,2.389,2.389,0,0,1,1-2.062,4.915,4.915,0,0,1,2.879-.727h1.039V9.352a1.393,1.393,0,0,0-.3-.937,1.183,1.183,0,0,0-.949-.352,1.345,1.345,0,0,0-.895.273.929.929,0,0,0-.324.75H33.4a2.268,2.268,0,0,1,.453-1.359,3,3,0,0,1,1.281-.98,4.669,4.669,0,0,1,1.859-.355,3.689,3.689,0,0,1,2.48.785,2.747,2.747,0,0,1,.918,2.207v3.664a4.041,4.041,0,0,0,.336,1.82V15Zm-1.867-1.57a1.945,1.945,0,0,0,.922-.223,1.462,1.462,0,0,0,.625-.6V11.156H37.28q-1.7,0-1.8,1.172l-.008.133a.9.9,0,0,0,.3.7A1.153,1.153,0,0,0,36.577,13.43ZM44.507,15H42.241V3h2.266Zm6.758,0a2.507,2.507,0,0,1-.227-.758,2.732,2.732,0,0,1-2.133.914,3,3,0,0,1-2.059-.719,2.312,2.312,0,0,1-.816-1.812,2.389,2.389,0,0,1,1-2.062,4.915,4.915,0,0,1,2.879-.727h1.039V9.352a1.393,1.393,0,0,0-.3-.937,1.183,1.183,0,0,0-.949-.352,1.345,1.345,0,0,0-.895.273.929.929,0,0,0-.324.75H46.218a2.268,2.268,0,0,1,.453-1.359,3,3,0,0,1,1.281-.98,4.669,4.669,0,0,1,1.859-.355,3.689,3.689,0,0,1,2.48.785,2.747,2.747,0,0,1,.918,2.207v3.664a4.041,4.041,0,0,0,.336,1.82V15ZM49.4,13.43a1.945,1.945,0,0,0,.922-.223,1.462,1.462,0,0,0,.625-.6V11.156H50.1q-1.7,0-1.8,1.172l-.008.133a.9.9,0,0,0,.3.7A1.153,1.153,0,0,0,49.4,13.43Zm7.625-6.883.07.977a2.951,2.951,0,0,1,2.43-1.133,2.453,2.453,0,0,1,2,.789,3.682,3.682,0,0,1,.672,2.359V15H59.936V9.581a1.47,1.47,0,0,0-.312-1.045,1.4,1.4,0,0,0-1.039-.325,1.553,1.553,0,0,0-1.43.814V15H54.9V6.547Zm10.4,6.789a1.481,1.481,0,0,0,1.016-.344,1.2,1.2,0,0,0,.406-.914H70.96a2.9,2.9,0,0,1-.469,1.574,3.093,3.093,0,0,1-1.262,1.109,3.949,3.949,0,0,1-1.77.395A3.67,3.67,0,0,1,64.6,14a4.56,4.56,0,0,1-1.047-3.184v-.148a4.508,4.508,0,0,1,1.039-3.117,3.627,3.627,0,0,1,2.852-1.164,3.555,3.555,0,0,1,2.543.9,3.2,3.2,0,0,1,.973,2.4H68.843a1.551,1.551,0,0,0-.406-1.072,1.51,1.51,0,0,0-2.223.163,3.333,3.333,0,0,0-.4,1.866v.235a3.375,3.375,0,0,0,.4,1.878A1.377,1.377,0,0,0,67.421,13.336Zm8.719,1.82a4.15,4.15,0,0,1-3.027-1.141,4.054,4.054,0,0,1-1.168-3.039v-.219a5.106,5.106,0,0,1,.492-2.277,3.612,3.612,0,0,1,1.395-1.547,3.914,3.914,0,0,1,2.059-.543,3.508,3.508,0,0,1,2.73,1.094,4.444,4.444,0,0,1,1,3.1v.922H74.233a2.1,2.1,0,0,0,.66,1.328,2,2,0,0,0,1.395.5,2.437,2.437,0,0,0,2.039-.945l1.109,1.242a3.389,3.389,0,0,1-1.375,1.121A4.511,4.511,0,0,1,76.139,15.156Zm-.258-6.945a1.411,1.411,0,0,0-1.09.455,2.357,2.357,0,0,0-.535,1.3H77.4V9.788a1.681,1.681,0,0,0-.406-1.165A1.456,1.456,0,0,0,75.882,8.211Zm-51,20.5a4.954,4.954,0,0,1,.926-3.133,3,3,0,0,1,2.5-1.187,2.631,2.631,0,0,1,2.164.953l.094-.8h2.047v8.172a3.613,3.613,0,0,1-.5,1.93,3.236,3.236,0,0,1-1.418,1.25,4.985,4.985,0,0,1-2.141.43,4.635,4.635,0,0,1-1.812-.371A3.217,3.217,0,0,1,25.4,35l1-1.375a2.645,2.645,0,0,0,2.047.945,1.936,1.936,0,0,0,1.4-.48,1.8,1.8,0,0,0,.5-1.363v-.453a2.612,2.612,0,0,1-2.055.883,2.992,2.992,0,0,1-2.465-1.191,4.953,4.953,0,0,1-.941-3.16Zm2.258.161a3.1,3.1,0,0,0,.461,1.809,1.465,1.465,0,0,0,1.266.655,1.567,1.567,0,0,0,1.477-.777V26.988a1.563,1.563,0,0,0-1.461-.777,1.474,1.474,0,0,0-1.277.667A3.5,3.5,0,0,0,27.139,28.872Zm11.094,4.285a4.15,4.15,0,0,1-3.027-1.141,4.054,4.054,0,0,1-1.168-3.039v-.219a5.106,5.106,0,0,1,.492-2.277,3.612,3.612,0,0,1,1.395-1.547,3.914,3.914,0,0,1,2.059-.543,3.508,3.508,0,0,1,2.73,1.094,4.444,4.444,0,0,1,1,3.1v.922H36.327a2.1,2.1,0,0,0,.66,1.328,2,2,0,0,0,1.395.5,2.437,2.437,0,0,0,2.039-.945l1.109,1.242a3.389,3.389,0,0,1-1.375,1.121A4.511,4.511,0,0,1,38.233,33.156Zm-.258-6.945a1.411,1.411,0,0,0-1.09.455,2.357,2.357,0,0,0-.535,1.3h3.141v-.181a1.681,1.681,0,0,0-.406-1.165A1.456,1.456,0,0,0,37.975,26.211Zm7.094-1.664.07.977a2.951,2.951,0,0,1,2.43-1.133,2.453,2.453,0,0,1,2,.789,3.682,3.682,0,0,1,.672,2.359V33H47.983V27.581a1.47,1.47,0,0,0-.312-1.045,1.4,1.4,0,0,0-1.039-.325,1.553,1.553,0,0,0-1.43.814V33H42.944V24.547Zm10.773,8.609a4.15,4.15,0,0,1-3.027-1.141,4.054,4.054,0,0,1-1.168-3.039v-.219a5.106,5.106,0,0,1,.492-2.277,3.612,3.612,0,0,1,1.395-1.547,3.914,3.914,0,0,1,2.059-.543,3.508,3.508,0,0,1,2.73,1.094,4.444,4.444,0,0,1,1,3.1v.922H53.936a2.1,2.1,0,0,0,.66,1.328,2,2,0,0,0,1.395.5,2.437,2.437,0,0,0,2.039-.945l1.109,1.242a3.389,3.389,0,0,1-1.375,1.121A4.511,4.511,0,0,1,55.843,33.156Zm-.258-6.945a1.411,1.411,0,0,0-1.09.455,2.357,2.357,0,0,0-.535,1.3H57.1v-.181a1.681,1.681,0,0,0-.406-1.165A1.456,1.456,0,0,0,55.585,26.211Zm9.766.453a6.134,6.134,0,0,0-.812-.062,1.654,1.654,0,0,0-1.68.867V33H60.6V24.547h2.133l.063,1.008a2.092,2.092,0,0,1,1.883-1.164,2.366,2.366,0,0,1,.7.1ZM71.1,33a2.507,2.507,0,0,1-.227-.758,2.732,2.732,0,0,1-2.133.914,3,3,0,0,1-2.059-.719,2.312,2.312,0,0,1-.816-1.812,2.389,2.389,0,0,1,1-2.062,4.915,4.915,0,0,1,2.879-.727H70.78v-.484a1.393,1.393,0,0,0-.3-.937,1.183,1.183,0,0,0-.949-.352,1.345,1.345,0,0,0-.895.273.929.929,0,0,0-.324.75H66.053a2.268,2.268,0,0,1,.453-1.359,3,3,0,0,1,1.281-.98,4.669,4.669,0,0,1,1.859-.355,3.689,3.689,0,0,1,2.48.785,2.747,2.747,0,0,1,.918,2.207v3.664a4.041,4.041,0,0,0,.336,1.82V33Zm-1.867-1.57a1.945,1.945,0,0,0,.922-.223,1.462,1.462,0,0,0,.625-.6V29.156h-.844q-1.7,0-1.8,1.172l-.008.133a.9.9,0,0,0,.3.7A1.153,1.153,0,0,0,69.233,31.43ZM77.163,33H74.9V21h2.266Z" transform="translate(330.343 2103)" fill="#12263f"/>
    <path id="Trazado_832973" data-name="Trazado 832973" d="M19.534,10.055h-4.5v3.063h5.281V15H12.69V3.625H20.3v1.9H15.034V8.234h4.5Zm6.586,2.609a.727.727,0,0,0-.41-.652,4.659,4.659,0,0,0-1.316-.426q-3.016-.633-3.016-2.562a2.323,2.323,0,0,1,.934-1.879,3.766,3.766,0,0,1,2.441-.754,4.053,4.053,0,0,1,2.574.758,2.388,2.388,0,0,1,.965,1.969H26.034a1.092,1.092,0,0,0-.312-.8A1.322,1.322,0,0,0,24.745,8a1.351,1.351,0,0,0-.883.258.814.814,0,0,0-.312.656.7.7,0,0,0,.355.605,3.657,3.657,0,0,0,1.2.4,9.8,9.8,0,0,1,1.422.379,2.336,2.336,0,0,1,1.789,2.273,2.2,2.2,0,0,1-.992,1.871,4.28,4.28,0,0,1-2.562.715,4.47,4.47,0,0,1-1.887-.379,3.166,3.166,0,0,1-1.293-1.039,2.414,2.414,0,0,1-.469-1.426h2.141a1.179,1.179,0,0,0,.445.922,1.766,1.766,0,0,0,1.109.32,1.635,1.635,0,0,0,.98-.246A.766.766,0,0,0,26.12,12.664Zm6.352-8.2V6.547h1.445V8.2H32.471v4.219a1.007,1.007,0,0,0,.18.672.9.9,0,0,0,.688.2A3.6,3.6,0,0,0,34,13.242v1.711a4.648,4.648,0,0,1-1.367.2,2.156,2.156,0,0,1-2.422-2.4V8.2H28.979V6.547h1.234V4.469ZM40.073,15a2.507,2.507,0,0,1-.227-.758,2.732,2.732,0,0,1-2.133.914,3,3,0,0,1-2.059-.719,2.312,2.312,0,0,1-.816-1.812,2.389,2.389,0,0,1,1-2.062,4.915,4.915,0,0,1,2.879-.727h1.039V9.352a1.393,1.393,0,0,0-.3-.937,1.183,1.183,0,0,0-.949-.352,1.345,1.345,0,0,0-.895.273.929.929,0,0,0-.324.75H35.026a2.268,2.268,0,0,1,.453-1.359,3,3,0,0,1,1.281-.98,4.669,4.669,0,0,1,1.859-.355,3.689,3.689,0,0,1,2.48.785,2.747,2.747,0,0,1,.918,2.207v3.664a4.041,4.041,0,0,0,.336,1.82V15Zm-1.867-1.57a1.945,1.945,0,0,0,.922-.223,1.462,1.462,0,0,0,.625-.6V11.156h-.844q-1.7,0-1.8,1.172l-.008.133a.9.9,0,0,0,.3.7A1.153,1.153,0,0,0,38.206,13.43Zm5.2-2.719a5.094,5.094,0,0,1,.887-3.148,2.877,2.877,0,0,1,2.426-1.172,2.589,2.589,0,0,1,2.039.922V3h2.266V15H48.979l-.109-.9A2.657,2.657,0,0,1,46.7,15.156,2.869,2.869,0,0,1,44.3,13.98,5.258,5.258,0,0,1,43.4,10.711Zm2.258.161a3.355,3.355,0,0,0,.414,1.829,1.348,1.348,0,0,0,1.2.636,1.51,1.51,0,0,0,1.477-.887V9.1a1.489,1.489,0,0,0-1.461-.887Q45.659,8.211,45.659,10.872Zm6.758-.176A5.013,5.013,0,0,1,52.9,8.453,3.546,3.546,0,0,1,54.3,6.93a4.069,4.069,0,0,1,2.113-.539A3.849,3.849,0,0,1,59.2,7.438a4.2,4.2,0,0,1,1.207,2.844l.016.578a4.418,4.418,0,0,1-1.086,3.121,4.209,4.209,0,0,1-5.832,0,4.5,4.5,0,0,1-1.09-3.187Zm2.258.16a3.16,3.16,0,0,0,.453,1.843,1.628,1.628,0,0,0,2.578.008,3.457,3.457,0,0,0,.461-2.015,3.128,3.128,0,0,0-.461-1.831,1.5,1.5,0,0,0-1.3-.649,1.474,1.474,0,0,0-1.281.646A3.516,3.516,0,0,0,54.675,10.856Zm11.719,1.808a.727.727,0,0,0-.41-.652,4.659,4.659,0,0,0-1.316-.426q-3.016-.633-3.016-2.562a2.323,2.323,0,0,1,.934-1.879,3.766,3.766,0,0,1,2.441-.754,4.053,4.053,0,0,1,2.574.758,2.388,2.388,0,0,1,.965,1.969H66.307a1.092,1.092,0,0,0-.312-.8A1.322,1.322,0,0,0,65.018,8a1.351,1.351,0,0,0-.883.258.814.814,0,0,0-.312.656.7.7,0,0,0,.355.605,3.657,3.657,0,0,0,1.2.4A9.8,9.8,0,0,1,66.8,10.3a2.336,2.336,0,0,1,1.789,2.273,2.2,2.2,0,0,1-.992,1.871,4.28,4.28,0,0,1-2.562.715,4.47,4.47,0,0,1-1.887-.379,3.166,3.166,0,0,1-1.293-1.039,2.414,2.414,0,0,1-.469-1.426h2.141a1.179,1.179,0,0,0,.445.922,1.766,1.766,0,0,0,1.109.32,1.635,1.635,0,0,0,.98-.246A.766.766,0,0,0,66.393,12.664Zm7.281-1.953a5.094,5.094,0,0,1,.887-3.148,2.877,2.877,0,0,1,2.426-1.172,2.589,2.589,0,0,1,2.039.922V3h2.266V15H79.253l-.109-.9a2.657,2.657,0,0,1-2.172,1.055,2.869,2.869,0,0,1-2.395-1.176A5.258,5.258,0,0,1,73.675,10.711Zm2.258.161a3.355,3.355,0,0,0,.414,1.829,1.348,1.348,0,0,0,1.2.636,1.51,1.51,0,0,0,1.477-.887V9.1a1.489,1.489,0,0,0-1.461-.887Q75.932,8.211,75.932,10.872Zm11,4.285a4.15,4.15,0,0,1-3.027-1.141,4.054,4.054,0,0,1-1.168-3.039v-.219a5.106,5.106,0,0,1,.492-2.277,3.612,3.612,0,0,1,1.395-1.547,3.914,3.914,0,0,1,2.059-.543,3.508,3.508,0,0,1,2.73,1.094,4.444,4.444,0,0,1,1,3.1v.922H85.026a2.1,2.1,0,0,0,.66,1.328,2,2,0,0,0,1.395.5,2.437,2.437,0,0,0,2.039-.945l1.109,1.242a3.389,3.389,0,0,1-1.375,1.121A4.511,4.511,0,0,1,86.932,15.156Zm-.258-6.945a1.411,1.411,0,0,0-1.09.455,2.357,2.357,0,0,0-.535,1.3H88.19V9.788a1.681,1.681,0,0,0-.406-1.165A1.456,1.456,0,0,0,86.675,8.211ZM18.85,26.664a6.134,6.134,0,0,0-.812-.062,1.654,1.654,0,0,0-1.68.867V33H14.1V24.547h2.133l.063,1.008a2.092,2.092,0,0,1,1.883-1.164,2.366,2.366,0,0,1,.7.1Zm4.828,6.492a4.15,4.15,0,0,1-3.027-1.141,4.054,4.054,0,0,1-1.168-3.039v-.219a5.106,5.106,0,0,1,.492-2.277,3.612,3.612,0,0,1,1.395-1.547,3.914,3.914,0,0,1,2.059-.543,3.508,3.508,0,0,1,2.73,1.094,4.444,4.444,0,0,1,1,3.1v.922H21.772a2.1,2.1,0,0,0,.66,1.328,2,2,0,0,0,1.395.5,2.437,2.437,0,0,0,2.039-.945l1.109,1.242A3.389,3.389,0,0,1,25.6,32.754,4.511,4.511,0,0,1,23.678,33.156Zm-.258-6.945a1.411,1.411,0,0,0-1.09.455,2.357,2.357,0,0,0-.535,1.3h3.141v-.181a1.681,1.681,0,0,0-.406-1.165A1.456,1.456,0,0,0,23.421,26.211Zm9.594,4.453a.727.727,0,0,0-.41-.652,4.659,4.659,0,0,0-1.316-.426q-3.016-.633-3.016-2.562a2.323,2.323,0,0,1,.934-1.879,3.766,3.766,0,0,1,2.441-.754,4.053,4.053,0,0,1,2.574.758,2.388,2.388,0,0,1,.965,1.969H32.928a1.092,1.092,0,0,0-.312-.8A1.322,1.322,0,0,0,31.639,26a1.351,1.351,0,0,0-.883.258.814.814,0,0,0-.312.656.7.7,0,0,0,.355.605,3.657,3.657,0,0,0,1.2.4,9.8,9.8,0,0,1,1.422.379A2.336,2.336,0,0,1,35.21,30.57a2.2,2.2,0,0,1-.992,1.871,4.28,4.28,0,0,1-2.562.715,4.47,4.47,0,0,1-1.887-.379,3.166,3.166,0,0,1-1.293-1.039,2.414,2.414,0,0,1-.469-1.426h2.141a1.179,1.179,0,0,0,.445.922,1.766,1.766,0,0,0,1.109.32,1.635,1.635,0,0,0,.98-.246A.766.766,0,0,0,33.014,30.664Zm8.711,1.477a2.831,2.831,0,0,1-2.312,1.016,2.67,2.67,0,0,1-2.074-.781,3.335,3.335,0,0,1-.73-2.289V24.547h2.258v5.467q0,1.322,1.2,1.322a1.63,1.63,0,0,0,1.578-.8V24.547h2.266V33H41.788ZM48,33H45.733V21H48Zm4.563-10.531v2.078h1.445V26.2H52.561v4.219a1.007,1.007,0,0,0,.18.672.9.9,0,0,0,.688.2,3.6,3.6,0,0,0,.664-.055v1.711a4.648,4.648,0,0,1-1.367.2,2.156,2.156,0,0,1-2.422-2.4V26.2H49.069V24.547H50.3V22.469ZM60.163,33a2.507,2.507,0,0,1-.227-.758,2.732,2.732,0,0,1-2.133.914,3,3,0,0,1-2.059-.719,2.312,2.312,0,0,1-.816-1.812,2.389,2.389,0,0,1,1-2.062,4.915,4.915,0,0,1,2.879-.727h1.039v-.484a1.393,1.393,0,0,0-.3-.937,1.183,1.183,0,0,0-.949-.352,1.345,1.345,0,0,0-.895.273.929.929,0,0,0-.324.75H55.116a2.268,2.268,0,0,1,.453-1.359,3,3,0,0,1,1.281-.98,4.669,4.669,0,0,1,1.859-.355,3.689,3.689,0,0,1,2.48.785,2.747,2.747,0,0,1,.918,2.207v3.664a4.041,4.041,0,0,0,.336,1.82V33ZM58.3,31.43a1.945,1.945,0,0,0,.922-.223,1.462,1.462,0,0,0,.625-.6V29.156H59q-1.7,0-1.8,1.172l-.008.133a.9.9,0,0,0,.3.7A1.153,1.153,0,0,0,58.3,31.43Zm5.2-2.719a5.094,5.094,0,0,1,.887-3.148A2.877,2.877,0,0,1,66.8,24.391a2.589,2.589,0,0,1,2.039.922V21h2.266V33H69.069l-.109-.9a2.657,2.657,0,0,1-2.172,1.055,2.869,2.869,0,0,1-2.395-1.176A5.258,5.258,0,0,1,63.491,28.711Zm2.258.161a3.355,3.355,0,0,0,.414,1.829,1.348,1.348,0,0,0,1.2.636,1.51,1.51,0,0,0,1.477-.887V27.1a1.489,1.489,0,0,0-1.461-.887Q65.749,26.211,65.749,28.872Zm6.758-.176a5.013,5.013,0,0,1,.484-2.242,3.546,3.546,0,0,1,1.395-1.523,4.069,4.069,0,0,1,2.113-.539,3.849,3.849,0,0,1,2.793,1.047A4.2,4.2,0,0,1,80.5,28.281l.016.578a4.418,4.418,0,0,1-1.086,3.121,4.209,4.209,0,0,1-5.832,0,4.5,4.5,0,0,1-1.09-3.187Zm2.258.16a3.16,3.16,0,0,0,.453,1.843,1.628,1.628,0,0,0,2.578.008,3.457,3.457,0,0,0,.461-2.015A3.128,3.128,0,0,0,77.8,26.86a1.5,1.5,0,0,0-1.3-.649,1.474,1.474,0,0,0-1.281.646A3.516,3.516,0,0,0,74.764,28.856Zm11.719,1.808a.727.727,0,0,0-.41-.652,4.659,4.659,0,0,0-1.316-.426q-3.016-.633-3.016-2.562a2.323,2.323,0,0,1,.934-1.879,3.766,3.766,0,0,1,2.441-.754,4.053,4.053,0,0,1,2.574.758,2.388,2.388,0,0,1,.965,1.969H86.4a1.092,1.092,0,0,0-.312-.8A1.322,1.322,0,0,0,85.108,26a1.351,1.351,0,0,0-.883.258.814.814,0,0,0-.312.656.7.7,0,0,0,.355.605,3.657,3.657,0,0,0,1.2.4,9.8,9.8,0,0,1,1.422.379,2.336,2.336,0,0,1,1.789,2.273,2.2,2.2,0,0,1-.992,1.871,4.28,4.28,0,0,1-2.562.715,4.47,4.47,0,0,1-1.887-.379,3.166,3.166,0,0,1-1.293-1.039,2.414,2.414,0,0,1-.469-1.426h2.141a1.179,1.179,0,0,0,.445.922,1.766,1.766,0,0,0,1.109.32,1.635,1.635,0,0,0,.98-.246A.766.766,0,0,0,86.483,30.664Z" transform="translate(538.776 2103)" fill="#12263f"/>
    <path id="Trazado_832974" data-name="Trazado 832974" d="M24.11,10.055h-4.5v3.063h5.281V15H17.266V3.625h7.609v1.9H19.61V8.234h4.5ZM30.7,12.664a.727.727,0,0,0-.41-.652,4.659,4.659,0,0,0-1.316-.426q-3.016-.633-3.016-2.562a2.323,2.323,0,0,1,.934-1.879,3.766,3.766,0,0,1,2.441-.754,4.053,4.053,0,0,1,2.574.758,2.388,2.388,0,0,1,.965,1.969H30.61a1.092,1.092,0,0,0-.312-.8A1.322,1.322,0,0,0,29.321,8a1.351,1.351,0,0,0-.883.258.814.814,0,0,0-.312.656.7.7,0,0,0,.355.605,3.657,3.657,0,0,0,1.2.4A9.8,9.8,0,0,1,31.1,10.3a2.336,2.336,0,0,1,1.789,2.273,2.2,2.2,0,0,1-.992,1.871,4.28,4.28,0,0,1-2.562.715,4.47,4.47,0,0,1-1.887-.379,3.166,3.166,0,0,1-1.293-1.039,2.414,2.414,0,0,1-.469-1.426h2.141a1.179,1.179,0,0,0,.445.922,1.766,1.766,0,0,0,1.109.32,1.635,1.635,0,0,0,.98-.246A.766.766,0,0,0,30.7,12.664Zm6.352-8.2V6.547h1.445V8.2H37.047v4.219a1.007,1.007,0,0,0,.18.672.9.9,0,0,0,.688.2,3.6,3.6,0,0,0,.664-.055v1.711a4.648,4.648,0,0,1-1.367.2,2.156,2.156,0,0,1-2.422-2.4V8.2H33.555V6.547H34.79V4.469ZM44.649,15a2.507,2.507,0,0,1-.227-.758,2.732,2.732,0,0,1-2.133.914,3,3,0,0,1-2.059-.719,2.312,2.312,0,0,1-.816-1.812,2.389,2.389,0,0,1,1-2.062,4.915,4.915,0,0,1,2.879-.727h1.039V9.352a1.393,1.393,0,0,0-.3-.937,1.183,1.183,0,0,0-.949-.352,1.345,1.345,0,0,0-.895.273.929.929,0,0,0-.324.75H39.6a2.268,2.268,0,0,1,.453-1.359,3,3,0,0,1,1.281-.98A4.669,4.669,0,0,1,43.2,6.391a3.689,3.689,0,0,1,2.48.785,2.747,2.747,0,0,1,.918,2.207v3.664a4.041,4.041,0,0,0,.336,1.82V15Zm-1.867-1.57a1.945,1.945,0,0,0,.922-.223,1.462,1.462,0,0,0,.625-.6V11.156h-.844q-1.7,0-1.8,1.172l-.008.133a.9.9,0,0,0,.3.7A1.153,1.153,0,0,0,42.782,13.43Zm5.2-2.719a5.094,5.094,0,0,1,.887-3.148A2.877,2.877,0,0,1,51.29,6.391a2.589,2.589,0,0,1,2.039.922V3h2.266V15H53.555l-.109-.9a2.657,2.657,0,0,1-2.172,1.055,2.869,2.869,0,0,1-2.395-1.176A5.258,5.258,0,0,1,47.977,10.711Zm2.258.161a3.355,3.355,0,0,0,.414,1.829,1.348,1.348,0,0,0,1.2.636,1.51,1.51,0,0,0,1.477-.887V9.1a1.489,1.489,0,0,0-1.461-.887Q50.235,8.211,50.235,10.872Zm6.758-.176a5.013,5.013,0,0,1,.484-2.242A3.546,3.546,0,0,1,58.872,6.93a4.069,4.069,0,0,1,2.113-.539,3.849,3.849,0,0,1,2.793,1.047,4.2,4.2,0,0,1,1.207,2.844l.016.578a4.418,4.418,0,0,1-1.086,3.121,4.209,4.209,0,0,1-5.832,0,4.5,4.5,0,0,1-1.09-3.187Zm2.258.16A3.16,3.16,0,0,0,59.7,12.7a1.628,1.628,0,0,0,2.578.008,3.457,3.457,0,0,0,.461-2.015,3.128,3.128,0,0,0-.461-1.831,1.5,1.5,0,0,0-1.3-.649,1.474,1.474,0,0,0-1.281.646A3.516,3.516,0,0,0,59.25,10.856Zm11.719,1.808a.727.727,0,0,0-.41-.652,4.659,4.659,0,0,0-1.316-.426q-3.016-.633-3.016-2.562a2.323,2.323,0,0,1,.934-1.879A3.766,3.766,0,0,1,69.6,6.391a4.053,4.053,0,0,1,2.574.758,2.388,2.388,0,0,1,.965,1.969H70.883a1.092,1.092,0,0,0-.312-.8A1.322,1.322,0,0,0,69.594,8a1.351,1.351,0,0,0-.883.258.814.814,0,0,0-.312.656.7.7,0,0,0,.355.605,3.657,3.657,0,0,0,1.2.4,9.8,9.8,0,0,1,1.422.379,2.336,2.336,0,0,1,1.789,2.273,2.2,2.2,0,0,1-.992,1.871,4.28,4.28,0,0,1-2.562.715,4.47,4.47,0,0,1-1.887-.379,3.166,3.166,0,0,1-1.293-1.039,2.414,2.414,0,0,1-.469-1.426H68.1a1.179,1.179,0,0,0,.445.922,1.766,1.766,0,0,0,1.109.32,1.635,1.635,0,0,0,.98-.246A.766.766,0,0,0,70.969,12.664Zm7.281-1.953a5.094,5.094,0,0,1,.887-3.148,2.877,2.877,0,0,1,2.426-1.172,2.589,2.589,0,0,1,2.039.922V3h2.266V15H83.829l-.109-.9a2.657,2.657,0,0,1-2.172,1.055,2.869,2.869,0,0,1-2.395-1.176A5.258,5.258,0,0,1,78.25,10.711Zm2.258.161a3.355,3.355,0,0,0,.414,1.829,1.348,1.348,0,0,0,1.2.636,1.51,1.51,0,0,0,1.477-.887V9.1a1.489,1.489,0,0,0-1.461-.887Q80.508,8.211,80.508,10.872Zm11,4.285a4.15,4.15,0,0,1-3.027-1.141,4.054,4.054,0,0,1-1.168-3.039v-.219a5.106,5.106,0,0,1,.492-2.277A3.612,3.612,0,0,1,89.2,6.934a3.914,3.914,0,0,1,2.059-.543,3.508,3.508,0,0,1,2.73,1.094,4.444,4.444,0,0,1,1,3.1v.922H89.6a2.1,2.1,0,0,0,.66,1.328,2,2,0,0,0,1.395.5,2.437,2.437,0,0,0,2.039-.945l1.109,1.242a3.389,3.389,0,0,1-1.375,1.121A4.511,4.511,0,0,1,91.508,15.156ZM91.25,8.211a1.411,1.411,0,0,0-1.09.455,2.357,2.357,0,0,0-.535,1.3h3.141V9.788a1.681,1.681,0,0,0-.406-1.165A1.456,1.456,0,0,0,91.25,8.211Zm-55.7,14.524a10.85,10.85,0,0,0-1.25-.078q-1.531,0-1.531,1.316v.575h1.68V26.2H32.77V33H30.5V26.2H29.247V24.547H30.5v-.656a2.888,2.888,0,0,1,.922-2.262,3.769,3.769,0,0,1,2.563-.793q1.18,0,3.828.25V33H35.551Zm9.2,9.406a2.831,2.831,0,0,1-2.312,1.016,2.67,2.67,0,0,1-2.074-.781,3.335,3.335,0,0,1-.73-2.289V24.547H41.9v5.467q0,1.322,1.2,1.322a1.63,1.63,0,0,0,1.578-.8V24.547h2.266V33H44.817Zm6.281-7.594v8.914a3.024,3.024,0,0,1-.742,2.176,2.821,2.821,0,0,1-2.141.777,4.591,4.591,0,0,1-1.117-.133V34.492a4.238,4.238,0,0,0,.711.07q1.023,0,1.023-1.086v-8.93ZM48.59,22.359a1.112,1.112,0,0,1,.34-.836,1.47,1.47,0,0,1,1.852,0,1.2,1.2,0,0,1-.008,1.68,1.448,1.448,0,0,1-1.836,0A1.108,1.108,0,0,1,48.59,22.359ZM52.45,28.7a5.013,5.013,0,0,1,.484-2.242,3.546,3.546,0,0,1,1.395-1.523,4.069,4.069,0,0,1,2.113-.539,3.849,3.849,0,0,1,2.793,1.047,4.2,4.2,0,0,1,1.207,2.844l.016.578a4.418,4.418,0,0,1-1.086,3.121,4.209,4.209,0,0,1-5.832,0A4.5,4.5,0,0,1,52.45,28.8Zm2.258.16a3.16,3.16,0,0,0,.453,1.843,1.628,1.628,0,0,0,2.578.008,3.457,3.457,0,0,0,.461-2.015,3.128,3.128,0,0,0-.461-1.831,1.5,1.5,0,0,0-1.3-.649,1.474,1.474,0,0,0-1.281.646A3.516,3.516,0,0,0,54.708,28.856Zm10.773-.145a5.094,5.094,0,0,1,.887-3.148,2.877,2.877,0,0,1,2.426-1.172,2.589,2.589,0,0,1,2.039.922V21H73.1V33H71.059l-.109-.9a2.657,2.657,0,0,1-2.172,1.055,2.869,2.869,0,0,1-2.395-1.176A5.258,5.258,0,0,1,65.481,28.711Zm2.258.161a3.355,3.355,0,0,0,.414,1.829,1.348,1.348,0,0,0,1.2.636,1.51,1.51,0,0,0,1.477-.887V27.1a1.489,1.489,0,0,0-1.461-.887Q67.739,26.211,67.739,28.872Zm11,4.285a4.15,4.15,0,0,1-3.027-1.141,4.054,4.054,0,0,1-1.168-3.039v-.219a5.106,5.106,0,0,1,.492-2.277,3.612,3.612,0,0,1,1.395-1.547,3.914,3.914,0,0,1,2.059-.543,3.508,3.508,0,0,1,2.73,1.094,4.444,4.444,0,0,1,1,3.1v.922H76.833a2.1,2.1,0,0,0,.66,1.328,2,2,0,0,0,1.395.5,2.437,2.437,0,0,0,2.039-.945l1.109,1.242a3.389,3.389,0,0,1-1.375,1.121A4.511,4.511,0,0,1,78.739,33.156Zm-.258-6.945a1.411,1.411,0,0,0-1.09.455,2.357,2.357,0,0,0-.535,1.3H80v-.181a1.681,1.681,0,0,0-.406-1.165A1.456,1.456,0,0,0,78.481,26.211ZM31.657,51.156a4.15,4.15,0,0,1-3.027-1.141,4.054,4.054,0,0,1-1.168-3.039v-.219a5.106,5.106,0,0,1,.492-2.277,3.612,3.612,0,0,1,1.395-1.547,3.914,3.914,0,0,1,2.059-.543,3.508,3.508,0,0,1,2.73,1.094,4.444,4.444,0,0,1,1,3.1v.922H29.75a2.1,2.1,0,0,0,.66,1.328,2,2,0,0,0,1.395.5,2.437,2.437,0,0,0,2.039-.945l1.109,1.242a3.389,3.389,0,0,1-1.375,1.121A4.511,4.511,0,0,1,31.657,51.156ZM31.4,44.211a1.411,1.411,0,0,0-1.09.455,2.357,2.357,0,0,0-.535,1.3h3.141v-.181a1.681,1.681,0,0,0-.406-1.165A1.456,1.456,0,0,0,31.4,44.211ZM37.032,51V44.2H35.774V42.547h1.258v-.719a2.918,2.918,0,0,1,.816-2.207,3.162,3.162,0,0,1,2.285-.785,5.321,5.321,0,0,1,1.148.155l-.023,1.736a2.878,2.878,0,0,0-.687-.07q-1.273,0-1.273,1.205v.685h1.68V44.2H39.3V51Zm8.82.156a4.15,4.15,0,0,1-3.027-1.141,4.054,4.054,0,0,1-1.168-3.039v-.219a5.106,5.106,0,0,1,.492-2.277,3.612,3.612,0,0,1,1.395-1.547,3.914,3.914,0,0,1,2.059-.543,3.508,3.508,0,0,1,2.73,1.094,4.444,4.444,0,0,1,1,3.1v.922H43.946a2.1,2.1,0,0,0,.66,1.328,2,2,0,0,0,1.395.5,2.437,2.437,0,0,0,2.039-.945l1.109,1.242a3.389,3.389,0,0,1-1.375,1.121A4.511,4.511,0,0,1,45.852,51.156Zm-.258-6.945a1.411,1.411,0,0,0-1.09.455,2.357,2.357,0,0,0-.535,1.3H47.11v-.181a1.681,1.681,0,0,0-.406-1.165A1.456,1.456,0,0,0,45.594,44.211Zm8.531,5.125a1.481,1.481,0,0,0,1.016-.344,1.2,1.2,0,0,0,.406-.914h2.117a2.9,2.9,0,0,1-.469,1.574,3.093,3.093,0,0,1-1.262,1.109,3.949,3.949,0,0,1-1.77.395A3.67,3.67,0,0,1,51.305,50a4.56,4.56,0,0,1-1.047-3.184v-.148A4.508,4.508,0,0,1,51.3,43.555a3.627,3.627,0,0,1,2.852-1.164,3.555,3.555,0,0,1,2.543.9,3.2,3.2,0,0,1,.973,2.4H55.547a1.551,1.551,0,0,0-.406-1.072,1.51,1.51,0,0,0-2.223.163,3.333,3.333,0,0,0-.4,1.866v.235a3.375,3.375,0,0,0,.4,1.878A1.377,1.377,0,0,0,54.125,49.336Zm7.531-8.867v2.078H63.1V44.2H61.657v4.219a1.007,1.007,0,0,0,.18.672.9.9,0,0,0,.688.2,3.6,3.6,0,0,0,.664-.055v1.711a4.648,4.648,0,0,1-1.367.2,2.156,2.156,0,0,1-2.422-2.4V44.2H58.165V42.547H59.4V40.469ZM66.743,51H64.477V42.547h2.266Zm-2.4-10.641a1.112,1.112,0,0,1,.34-.836,1.465,1.465,0,0,1,1.848,0,1.193,1.193,0,0,1,0,1.68,1.448,1.448,0,0,1-1.836,0A1.108,1.108,0,0,1,64.344,40.359Zm7.422,7.883,1.57-5.7H75.7L72.844,51H70.688l-2.852-8.453H70.2ZM76.219,46.7a5.013,5.013,0,0,1,.484-2.242A3.546,3.546,0,0,1,78.1,42.93a4.069,4.069,0,0,1,2.113-.539A3.849,3.849,0,0,1,83,43.438a4.2,4.2,0,0,1,1.207,2.844l.016.578a4.418,4.418,0,0,1-1.086,3.121,4.209,4.209,0,0,1-5.832,0,4.5,4.5,0,0,1-1.09-3.187Zm2.258.16A3.16,3.16,0,0,0,78.93,48.7a1.628,1.628,0,0,0,2.578.008,3.457,3.457,0,0,0,.461-2.015,3.128,3.128,0,0,0-.461-1.831,1.5,1.5,0,0,0-1.3-.649,1.474,1.474,0,0,0-1.281.646A3.516,3.516,0,0,0,78.477,46.856Z" transform="translate(747.636 2093.999)" fill="#12263f"/>
    <path id="Trazado_832975" data-name="Trazado 832975" d="M15.182,10.055h-4.5v3.063h5.281V15H8.339V3.625h7.609v1.9H10.682V8.234h4.5Zm6.586,2.609a.727.727,0,0,0-.41-.652,4.659,4.659,0,0,0-1.316-.426q-3.016-.633-3.016-2.562a2.323,2.323,0,0,1,.934-1.879A3.766,3.766,0,0,1,20.4,6.391a4.053,4.053,0,0,1,2.574.758,2.388,2.388,0,0,1,.965,1.969H21.682a1.092,1.092,0,0,0-.312-.8A1.322,1.322,0,0,0,20.393,8a1.351,1.351,0,0,0-.883.258.814.814,0,0,0-.312.656.7.7,0,0,0,.355.605,3.657,3.657,0,0,0,1.2.4,9.8,9.8,0,0,1,1.422.379,2.336,2.336,0,0,1,1.789,2.273,2.2,2.2,0,0,1-.992,1.871,4.28,4.28,0,0,1-2.562.715,4.47,4.47,0,0,1-1.887-.379,3.166,3.166,0,0,1-1.293-1.039,2.414,2.414,0,0,1-.469-1.426H18.9a1.179,1.179,0,0,0,.445.922,1.766,1.766,0,0,0,1.109.32,1.635,1.635,0,0,0,.98-.246A.766.766,0,0,0,21.768,12.664Zm6.352-8.2V6.547h1.445V8.2H28.12v4.219a1.007,1.007,0,0,0,.18.672.9.9,0,0,0,.688.2,3.6,3.6,0,0,0,.664-.055v1.711a4.648,4.648,0,0,1-1.367.2,2.156,2.156,0,0,1-2.422-2.4V8.2H24.628V6.547h1.234V4.469ZM35.721,15a2.507,2.507,0,0,1-.227-.758,2.732,2.732,0,0,1-2.133.914,3,3,0,0,1-2.059-.719,2.312,2.312,0,0,1-.816-1.812,2.389,2.389,0,0,1,1-2.062,4.915,4.915,0,0,1,2.879-.727H35.4V9.352a1.393,1.393,0,0,0-.3-.937,1.183,1.183,0,0,0-.949-.352,1.345,1.345,0,0,0-.895.273.929.929,0,0,0-.324.75H30.675a2.268,2.268,0,0,1,.453-1.359,3,3,0,0,1,1.281-.98,4.669,4.669,0,0,1,1.859-.355,3.689,3.689,0,0,1,2.48.785,2.747,2.747,0,0,1,.918,2.207v3.664A4.041,4.041,0,0,0,38,14.867V15Zm-1.867-1.57a1.945,1.945,0,0,0,.922-.223,1.462,1.462,0,0,0,.625-.6V11.156h-.844q-1.7,0-1.8,1.172l-.008.133a.9.9,0,0,0,.3.7A1.153,1.153,0,0,0,33.854,13.43Zm5.2-2.719a5.094,5.094,0,0,1,.887-3.148,2.877,2.877,0,0,1,2.426-1.172,2.589,2.589,0,0,1,2.039.922V3h2.266V15H44.628l-.109-.9a2.657,2.657,0,0,1-2.172,1.055,2.869,2.869,0,0,1-2.395-1.176A5.258,5.258,0,0,1,39.05,10.711Zm2.258.161a3.355,3.355,0,0,0,.414,1.829,1.348,1.348,0,0,0,1.2.636,1.51,1.51,0,0,0,1.477-.887V9.1a1.489,1.489,0,0,0-1.461-.887Q41.307,8.211,41.307,10.872Zm6.758-.176a5.013,5.013,0,0,1,.484-2.242A3.546,3.546,0,0,1,49.944,6.93a4.069,4.069,0,0,1,2.113-.539A3.849,3.849,0,0,1,54.85,7.438a4.2,4.2,0,0,1,1.207,2.844l.016.578a4.418,4.418,0,0,1-1.086,3.121,4.209,4.209,0,0,1-5.832,0,4.5,4.5,0,0,1-1.09-3.187Zm2.258.16a3.16,3.16,0,0,0,.453,1.843,1.628,1.628,0,0,0,2.578.008,3.457,3.457,0,0,0,.461-2.015,3.128,3.128,0,0,0-.461-1.831,1.5,1.5,0,0,0-1.3-.649,1.474,1.474,0,0,0-1.281.646A3.516,3.516,0,0,0,50.323,10.856Zm11.719,1.808a.727.727,0,0,0-.41-.652,4.659,4.659,0,0,0-1.316-.426Q57.3,10.953,57.3,9.023a2.323,2.323,0,0,1,.934-1.879,3.766,3.766,0,0,1,2.441-.754,4.053,4.053,0,0,1,2.574.758,2.388,2.388,0,0,1,.965,1.969H61.956a1.092,1.092,0,0,0-.312-.8A1.322,1.322,0,0,0,60.667,8a1.351,1.351,0,0,0-.883.258.814.814,0,0,0-.312.656.7.7,0,0,0,.355.605,3.657,3.657,0,0,0,1.2.4,9.8,9.8,0,0,1,1.422.379,2.336,2.336,0,0,1,1.789,2.273,2.2,2.2,0,0,1-.992,1.871,4.28,4.28,0,0,1-2.562.715,4.47,4.47,0,0,1-1.887-.379A3.166,3.166,0,0,1,57.5,13.738a2.414,2.414,0,0,1-.469-1.426h2.141a1.179,1.179,0,0,0,.445.922,1.766,1.766,0,0,0,1.109.32,1.635,1.635,0,0,0,.98-.246A.766.766,0,0,0,62.042,12.664Zm7.281-1.953a5.094,5.094,0,0,1,.887-3.148,2.877,2.877,0,0,1,2.426-1.172,2.589,2.589,0,0,1,2.039.922V3H76.94V15H74.9l-.109-.9a2.657,2.657,0,0,1-2.172,1.055,2.869,2.869,0,0,1-2.395-1.176A5.258,5.258,0,0,1,69.323,10.711Zm2.258.161a3.355,3.355,0,0,0,.414,1.829,1.348,1.348,0,0,0,1.2.636,1.51,1.51,0,0,0,1.477-.887V9.1a1.489,1.489,0,0,0-1.461-.887Q71.581,8.211,71.581,10.872Zm11,4.285a4.15,4.15,0,0,1-3.027-1.141,4.054,4.054,0,0,1-1.168-3.039v-.219a5.106,5.106,0,0,1,.492-2.277,3.612,3.612,0,0,1,1.395-1.547,3.914,3.914,0,0,1,2.059-.543,3.508,3.508,0,0,1,2.73,1.094,4.444,4.444,0,0,1,1,3.1v.922H80.675a2.1,2.1,0,0,0,.66,1.328,2,2,0,0,0,1.395.5,2.437,2.437,0,0,0,2.039-.945l1.109,1.242A3.389,3.389,0,0,1,84.5,14.754,4.511,4.511,0,0,1,82.581,15.156Zm-.258-6.945a1.411,1.411,0,0,0-1.09.455,2.357,2.357,0,0,0-.535,1.3h3.141V9.788a1.681,1.681,0,0,0-.406-1.165A1.456,1.456,0,0,0,82.323,8.211Zm-68.4,23.125a1.481,1.481,0,0,0,1.016-.344,1.2,1.2,0,0,0,.406-.914H17.46a2.9,2.9,0,0,1-.469,1.574,3.093,3.093,0,0,1-1.262,1.109,3.949,3.949,0,0,1-1.77.395A3.67,3.67,0,0,1,11.1,32a4.56,4.56,0,0,1-1.047-3.184v-.148a4.508,4.508,0,0,1,1.039-3.117,3.627,3.627,0,0,1,2.852-1.164,3.555,3.555,0,0,1,2.543.9,3.2,3.2,0,0,1,.973,2.4H15.343a1.551,1.551,0,0,0-.406-1.072,1.51,1.51,0,0,0-2.223.163,3.333,3.333,0,0,0-.4,1.866v.235a3.375,3.375,0,0,0,.4,1.878A1.377,1.377,0,0,0,13.921,31.336ZM23.647,33a2.507,2.507,0,0,1-.227-.758,2.732,2.732,0,0,1-2.133.914,3,3,0,0,1-2.059-.719,2.312,2.312,0,0,1-.816-1.812,2.389,2.389,0,0,1,1-2.062,4.915,4.915,0,0,1,2.879-.727h1.039v-.484a1.393,1.393,0,0,0-.3-.937,1.183,1.183,0,0,0-.949-.352,1.345,1.345,0,0,0-.895.273.929.929,0,0,0-.324.75H18.6a2.268,2.268,0,0,1,.453-1.359,3,3,0,0,1,1.281-.98,4.669,4.669,0,0,1,1.859-.355,3.689,3.689,0,0,1,2.48.785,2.747,2.747,0,0,1,.918,2.207v3.664a4.041,4.041,0,0,0,.336,1.82V33ZM21.78,31.43a1.945,1.945,0,0,0,.922-.223,1.462,1.462,0,0,0,.625-.6V29.156h-.844q-1.7,0-1.8,1.172l-.008.133a.9.9,0,0,0,.3.7A1.153,1.153,0,0,0,21.78,31.43Zm7.664-6.883.07.945a2.971,2.971,0,0,1,2.43-1.1,2.255,2.255,0,0,1,2.242,1.289,2.9,2.9,0,0,1,2.539-1.289,2.521,2.521,0,0,1,2.047.8,3.681,3.681,0,0,1,.672,2.41V33H37.178V27.6a1.616,1.616,0,0,0-.281-1.053,1.245,1.245,0,0,0-.992-.333,1.409,1.409,0,0,0-1.406.971L34.507,33H32.249V27.6a1.6,1.6,0,0,0-.289-1.065,1.257,1.257,0,0,0-.984-.329,1.463,1.463,0,0,0-1.391.8V33H27.327V24.547Zm19.352,4.3a5.119,5.119,0,0,1-.867,3.168,2.872,2.872,0,0,1-2.422,1.137,2.639,2.639,0,0,1-2.2-1.055l-.1.9H41.178V21h2.258v4.3a2.571,2.571,0,0,1,2.055-.914,2.9,2.9,0,0,1,2.426,1.137,5.126,5.126,0,0,1,.879,3.2Zm-2.258-.172a3.381,3.381,0,0,0-.406-1.877,1.372,1.372,0,0,0-1.211-.592,1.489,1.489,0,0,0-1.484.885v3.346a1.509,1.509,0,0,0,1.5.893,1.4,1.4,0,0,0,1.438-1.081A5.6,5.6,0,0,0,46.538,28.679ZM52.569,33H50.3V24.547h2.266Zm-2.4-10.641a1.112,1.112,0,0,1,.34-.836,1.465,1.465,0,0,1,1.848,0,1.193,1.193,0,0,1,0,1.68,1.448,1.448,0,0,1-1.836,0A1.108,1.108,0,0,1,50.171,22.359ZM54.077,28.7a5.013,5.013,0,0,1,.484-2.242,3.546,3.546,0,0,1,1.395-1.523,4.069,4.069,0,0,1,2.113-.539,3.849,3.849,0,0,1,2.793,1.047,4.2,4.2,0,0,1,1.207,2.844l.016.578A4.418,4.418,0,0,1,61,31.98a4.209,4.209,0,0,1-5.832,0,4.5,4.5,0,0,1-1.09-3.187Zm2.258.16a3.16,3.16,0,0,0,.453,1.843,1.628,1.628,0,0,0,2.578.008,3.457,3.457,0,0,0,.461-2.015,3.128,3.128,0,0,0-.461-1.831,1.5,1.5,0,0,0-1.3-.649,1.474,1.474,0,0,0-1.281.646A3.516,3.516,0,0,0,56.335,28.856Zm10.773-.145a5.094,5.094,0,0,1,.887-3.148,2.877,2.877,0,0,1,2.426-1.172,2.589,2.589,0,0,1,2.039.922V21h2.266V33H72.686l-.109-.9a2.657,2.657,0,0,1-2.172,1.055A2.869,2.869,0,0,1,68.01,31.98,5.258,5.258,0,0,1,67.108,28.711Zm2.258.161A3.355,3.355,0,0,0,69.78,30.7a1.348,1.348,0,0,0,1.2.636,1.51,1.51,0,0,0,1.477-.887V27.1A1.489,1.489,0,0,0,71,26.211Q69.366,26.211,69.366,28.872Zm11,4.285a4.15,4.15,0,0,1-3.027-1.141,4.054,4.054,0,0,1-1.168-3.039v-.219a5.106,5.106,0,0,1,.492-2.277,3.612,3.612,0,0,1,1.395-1.547,3.914,3.914,0,0,1,2.059-.543,3.508,3.508,0,0,1,2.73,1.094,4.444,4.444,0,0,1,1,3.1v.922H78.46a2.1,2.1,0,0,0,.66,1.328,2,2,0,0,0,1.395.5,2.437,2.437,0,0,0,2.039-.945l1.109,1.242a3.389,3.389,0,0,1-1.375,1.121A4.511,4.511,0,0,1,80.366,33.156Zm-.258-6.945a1.411,1.411,0,0,0-1.09.455,2.357,2.357,0,0,0-.535,1.3h3.141v-.181a1.681,1.681,0,0,0-.406-1.165A1.456,1.456,0,0,0,80.108,26.211ZM16.264,46.852a5.07,5.07,0,0,1-.887,3.129,2.843,2.843,0,0,1-2.395,1.176,2.633,2.633,0,0,1-2.07-.891V54.25H8.655v-11.7h2.094l.078.828a2.654,2.654,0,0,1,2.141-.984,2.862,2.862,0,0,1,2.43,1.156,5.207,5.207,0,0,1,.867,3.188Zm-2.258-.172a3.345,3.345,0,0,0-.418-1.826,1.36,1.36,0,0,0-1.215-.643,1.478,1.478,0,0,0-1.461.815V48.5a1.5,1.5,0,0,0,1.477.839Q14.007,49.336,14.007,46.679ZM22.561,51a2.507,2.507,0,0,1-.227-.758,2.732,2.732,0,0,1-2.133.914,3,3,0,0,1-2.059-.719,2.312,2.312,0,0,1-.816-1.812,2.389,2.389,0,0,1,1-2.062,4.915,4.915,0,0,1,2.879-.727h1.039v-.484a1.393,1.393,0,0,0-.3-.937,1.183,1.183,0,0,0-.949-.352,1.345,1.345,0,0,0-.895.273.929.929,0,0,0-.324.75H17.514a2.268,2.268,0,0,1,.453-1.359,3,3,0,0,1,1.281-.98,4.669,4.669,0,0,1,1.859-.355,3.689,3.689,0,0,1,2.48.785,2.747,2.747,0,0,1,.918,2.207v3.664a4.041,4.041,0,0,0,.336,1.82V51Zm-1.867-1.57a1.945,1.945,0,0,0,.922-.223,1.462,1.462,0,0,0,.625-.6V47.156H21.4q-1.7,0-1.8,1.172l-.008.133a.9.9,0,0,0,.3.7A1.153,1.153,0,0,0,20.694,49.43Zm8.25-8.961v2.078h1.445V44.2H28.944v4.219a1.007,1.007,0,0,0,.18.672.9.9,0,0,0,.688.2,3.6,3.6,0,0,0,.664-.055v1.711a4.648,4.648,0,0,1-1.367.2,2.156,2.156,0,0,1-2.422-2.4V44.2H25.452V42.547h1.234V40.469Zm7.453,4.2a6.134,6.134,0,0,0-.812-.062,1.654,1.654,0,0,0-1.68.867V51H31.647V42.547H33.78l.063,1.008a2.092,2.092,0,0,1,1.883-1.164,2.366,2.366,0,0,1,.7.1ZM39.866,51H37.6V42.547h2.266Zm-2.4-10.641a1.112,1.112,0,0,1,.34-.836,1.465,1.465,0,0,1,1.848,0,1.193,1.193,0,0,1,0,1.68,1.448,1.448,0,0,1-1.836,0A1.108,1.108,0,0,1,37.468,40.359Zm6.375,2.188.07.945a2.971,2.971,0,0,1,2.43-1.1,2.255,2.255,0,0,1,2.242,1.289,2.9,2.9,0,0,1,2.539-1.289,2.521,2.521,0,0,1,2.047.8,3.681,3.681,0,0,1,.672,2.41V51H51.577V45.6a1.616,1.616,0,0,0-.281-1.053,1.245,1.245,0,0,0-.992-.333,1.409,1.409,0,0,0-1.406.971L48.905,51H46.647V45.6a1.6,1.6,0,0,0-.289-1.065,1.257,1.257,0,0,0-.984-.329,1.463,1.463,0,0,0-1.391.8V51H41.725V42.547ZM55.225,46.7a5.013,5.013,0,0,1,.484-2.242A3.546,3.546,0,0,1,57.1,42.93a4.069,4.069,0,0,1,2.113-.539,3.849,3.849,0,0,1,2.793,1.047,4.2,4.2,0,0,1,1.207,2.844l.016.578a4.418,4.418,0,0,1-1.086,3.121,4.209,4.209,0,0,1-5.832,0,4.5,4.5,0,0,1-1.09-3.187Zm2.258.16a3.16,3.16,0,0,0,.453,1.843,1.628,1.628,0,0,0,2.578.008,3.457,3.457,0,0,0,.461-2.015,3.128,3.128,0,0,0-.461-1.831,1.5,1.5,0,0,0-1.3-.649,1.474,1.474,0,0,0-1.281.646A3.516,3.516,0,0,0,57.483,46.856ZM66.7,42.547l.07.977a2.951,2.951,0,0,1,2.43-1.133,2.453,2.453,0,0,1,2,.789,3.682,3.682,0,0,1,.672,2.359V51H69.616V45.581a1.47,1.47,0,0,0-.312-1.045,1.4,1.4,0,0,0-1.039-.325,1.553,1.553,0,0,0-1.43.814V51H64.577V42.547ZM75.968,51H73.7V42.547h2.266Zm-2.4-10.641a1.112,1.112,0,0,1,.34-.836,1.465,1.465,0,0,1,1.848,0,1.193,1.193,0,0,1,0,1.68,1.448,1.448,0,0,1-1.836,0A1.108,1.108,0,0,1,73.569,40.359ZM77.475,46.7a5.013,5.013,0,0,1,.484-2.242,3.546,3.546,0,0,1,1.395-1.523,4.069,4.069,0,0,1,2.113-.539,3.849,3.849,0,0,1,2.793,1.047,4.2,4.2,0,0,1,1.207,2.844l.016.578A4.418,4.418,0,0,1,84.4,49.98a4.209,4.209,0,0,1-5.832,0,4.5,4.5,0,0,1-1.09-3.187Zm2.258.16a3.16,3.16,0,0,0,.453,1.843,1.628,1.628,0,0,0,2.578.008,3.457,3.457,0,0,0,.461-2.015,3.128,3.128,0,0,0-.461-1.831,1.5,1.5,0,0,0-1.3-.649,1.474,1.474,0,0,0-1.281.646A3.516,3.516,0,0,0,79.733,46.856Zm-45.8,13.691.07.977a2.951,2.951,0,0,1,2.43-1.133,2.453,2.453,0,0,1,2,.789,3.682,3.682,0,0,1,.672,2.359V69H36.843V63.581a1.47,1.47,0,0,0-.312-1.045,1.4,1.4,0,0,0-1.039-.325,1.553,1.553,0,0,0-1.43.814V69H31.8V60.547ZM44.7,69.156a4.15,4.15,0,0,1-3.027-1.141,4.054,4.054,0,0,1-1.168-3.039v-.219A5.106,5.106,0,0,1,41,62.48a3.612,3.612,0,0,1,1.395-1.547,3.914,3.914,0,0,1,2.059-.543,3.508,3.508,0,0,1,2.73,1.094,4.444,4.444,0,0,1,1,3.1v.922H42.8a2.1,2.1,0,0,0,.66,1.328,2,2,0,0,0,1.395.5,2.437,2.437,0,0,0,2.039-.945L48,67.633a3.389,3.389,0,0,1-1.375,1.121A4.511,4.511,0,0,1,44.7,69.156Zm-.258-6.945a1.411,1.411,0,0,0-1.09.455,2.357,2.357,0,0,0-.535,1.3H45.96v-.181a1.681,1.681,0,0,0-.406-1.165A1.456,1.456,0,0,0,44.444,62.211Zm7.719-3.742v2.078h1.445V62.2H52.163v4.219a1.007,1.007,0,0,0,.18.672.9.9,0,0,0,.688.2,3.6,3.6,0,0,0,.664-.055v1.711a4.648,4.648,0,0,1-1.367.2,2.156,2.156,0,0,1-2.422-2.4V62.2H48.671V60.547h1.234V58.469ZM54.28,64.7a5.013,5.013,0,0,1,.484-2.242,3.546,3.546,0,0,1,1.395-1.523,4.069,4.069,0,0,1,2.113-.539,3.849,3.849,0,0,1,2.793,1.047,4.2,4.2,0,0,1,1.207,2.844l.016.578A4.418,4.418,0,0,1,61.2,67.98a4.209,4.209,0,0,1-5.832,0A4.5,4.5,0,0,1,54.28,64.8Zm2.258.16a3.16,3.16,0,0,0,.453,1.843,1.628,1.628,0,0,0,2.578.008,3.457,3.457,0,0,0,.461-2.015,3.128,3.128,0,0,0-.461-1.831,1.5,1.5,0,0,0-1.3-.649,1.474,1.474,0,0,0-1.281.646A3.516,3.516,0,0,0,56.538,64.856Z" transform="translate(964.596 2085)" fill="#12263f"/>
    <g id="Grupo_1078544" data-name="Grupo 1078544" transform="translate(1139.792 2039.818)">
      <g transform="matrix(1, 0, 0, 1, -854.79, -13.82)" filter="url(#Trazado_762442)">
        <path id="Trazado_762442-2" data-name="Trazado 762442" d="M700.362,100.94A72.638,72.638,0,1,1,627.725,28.3a72.638,72.638,0,0,1,72.638,72.638" transform="translate(313.54 -5.79)" fill="#fe502d"/>
      </g>
      <path id="Trazado_762443" data-name="Trazado 762443" d="M702.855,202.454l1.289,1.289A88.49,88.49,0,0,1,646.156,225.3a.908.908,0,0,1,0-1.817,86.657,86.657,0,0,0,56.7-21.031" transform="translate(-559.696 -55.223)" fill="#fe502d"/>
      <path id="Trazado_762444" data-name="Trazado 762444" d="M752.074,108.109a88.471,88.471,0,0,1-21.58,58.013l-1.289-1.289a87.031,87.031,0,0,0,14.217-90.563,87.57,87.57,0,0,0-4.744-9.545.908.908,0,0,1,1.575-.905,89.345,89.345,0,0,1,4.843,9.743,88.217,88.217,0,0,1,6.977,34.546" transform="translate(-576.866 -26.776)" fill="#fe502d"/>
      <path id="Trazado_762445" data-name="Trazado 762445" d="M694.67,58.113a81.39,81.39,0,0,0-141,0l0,0a81.915,81.915,0,0,0-4.436,8.928A80.693,80.693,0,0,0,543.052,92.7a6.042,6.042,0,0,0,.512,12.042.913.913,0,0,0,.342.066h.06a.952.952,0,0,0,.333-.088,6.042,6.042,0,0,0,.57-11.954A78.852,78.852,0,0,1,550.9,67.751a79.669,79.669,0,0,1,4.338-8.73,78.816,78.816,0,0,1,5.787-8.666,80.184,80.184,0,0,1,6.913-7.878A79.575,79.575,0,0,1,693.1,59.021a.909.909,0,0,0,1.574-.908M547.97,98.7a4.226,4.226,0,1,1-4.226-4.226A4.232,4.232,0,0,1,547.97,98.7" transform="translate(-537.701 -17.37)" fill="#fe502d"/>
      <path id="Trazado_762446" data-name="Trazado 762446" d="M577.556,192.4a.909.909,0,0,0-1.246,1.323l.092.087a.908.908,0,1,0,1.243-1.325Z" transform="translate(-545.537 -53.115)" fill="#fe502d"/>
      <path id="Trazado_762447" data-name="Trazado 762447" d="M587.335,200.5l-.1-.073a.908.908,0,0,0-1.069,1.468l.1.073a.908.908,0,1,0,1.07-1.468" transform="translate(-547.536 -54.771)" fill="#fe502d"/>
      <path id="Trazado_762448" data-name="Trazado 762448" d="M550.852,150.357a.909.909,0,1,0-1.729.56l.04.122a.908.908,0,0,0,1.726-.566Z" transform="translate(-540.028 -44.439)" fill="#fe502d"/>
      <path id="Trazado_762449" data-name="Trazado 762449" d="M568.944,183.232a.908.908,0,0,0-1.4,1.16l.08.1a.909.909,0,1,0,1.4-1.161Z" transform="translate(-543.76 -51.223)" fill="#fe502d"/>
      <path id="Trazado_762450" data-name="Trazado 762450" d="M547.728,138.177a.908.908,0,1,0-1.785.338l.024.125a.908.908,0,0,0,1.784-.343Z" transform="translate(-539.383 -41.926)" fill="#fe502d"/>
      <path id="Trazado_762451" data-name="Trazado 762451" d="M561.545,173.066a.909.909,0,1,0-1.534.974l.069.108a.909.909,0,1,0,1.53-.981Z" transform="translate(-542.235 -49.126)" fill="#fe502d"/>
      <path id="Trazado_762452" data-name="Trazado 762452" d="M555.486,162.047a.908.908,0,0,0-1.643.775l.053.113a.908.908,0,1,0,1.643-.775Z" transform="translate(-540.984 -46.852)" fill="#fe502d"/>
      <path id="Trazado_762453" data-name="Trazado 762453" d="M621.294,216.466l-.119-.03a.909.909,0,1,0-.454,1.76l.123.031a.919.919,0,0,0,.226.029.909.909,0,0,0,.224-1.789" transform="translate(-554.54 -58.075)" fill="#fe502d"/>
      <path id="Trazado_762454" data-name="Trazado 762454" d="M597.951,207.235l-.107-.059a.909.909,0,1,0-.877,1.592l.111.061a.908.908,0,0,0,.872-1.594" transform="translate(-549.725 -56.165)" fill="#fe502d"/>
      <path id="Trazado_762455" data-name="Trazado 762455" d="M633.645,218.8l-.118-.014a.908.908,0,1,0-.227,1.8l.129.016a.846.846,0,0,0,.109.006.909.909,0,0,0,.107-1.811" transform="translate(-557.089 -58.561)" fill="#fe502d"/>
      <path id="Trazado_762456" data-name="Trazado 762456" d="M609.334,212.585l-.116-.046a.908.908,0,1,0-.67,1.689l.116.046a.907.907,0,0,0,1.18-.509.91.91,0,0,0-.51-1.18" transform="translate(-552.072 -57.271)" fill="#fe502d"/>
      <path id="Trazado_762457" data-name="Trazado 762457" d="M646.084,221.39h.065a.908.908,0,1,0,0-1.817h-.065a.908.908,0,0,0,0,1.817" transform="translate(-559.68 -58.722)" fill="#fe502d"/>
      <path id="Trazado_762458" data-name="Trazado 762458" d="M542.922,119.125a1.89,1.89,0,1,0,1.89-1.89,1.893,1.893,0,0,0-1.89,1.89" transform="translate(-538.768 -37.794)" fill="#fe502d"/>
      <path id="Trazado_762459" data-name="Trazado 762459" d="M727.188,196.507a3.894,3.894,0,1,1-3.894-3.894,3.894,3.894,0,0,1,3.894,3.894" transform="translate(-574.86 -53.209)" fill="#fe502d"/>
      <path id="Trazado_762460" data-name="Trazado 762460" d="M725.506,197.089a1.63,1.63,0,1,1-1.63-1.629,1.63,1.63,0,0,1,1.63,1.629" transform="translate(-575.442 -53.793)" fill="#fe502d"/>
      <g id="Grupo_1024280" data-name="Grupo 1024280" transform="translate(27.471 22.337)">
        <g id="Grupo_1024279" data-name="Grupo 1024279" transform="translate(0 0)" clip-path="url(#clip-path-5)">
          <rect id="Rectángulo_358974" data-name="Rectángulo 358974" width="179.089" height="179.089" transform="translate(-67.638 61.877) rotate(-45)" fill="url(#linear-gradient-5)"/>
        </g>
      </g>
      <path id="Trazado_762462" data-name="Trazado 762462" d="M591.492,64.706a56.946,56.946,0,1,1,0,80.534,56.947,56.947,0,0,1,0-80.534" transform="translate(-545.29 -23.64)" fill="#f3f4f5"/>
    </g>
    <path id="Trazado_824076" data-name="Trazado 824076" d="M529.511,117.139H489.473a6.335,6.335,0,0,0-6.195-5.131,1.04,1.04,0,0,0-.426-.065,1.025,1.025,0,0,0-.355.087,6.018,6.018,0,0,0,0,12.033.972.972,0,0,0,.362.088c.02,0,.039,0,.058,0a1.034,1.034,0,0,0,.365-.067,6.335,6.335,0,0,0,6.193-5.13h40.038a.91.91,0,1,0,0-1.817m-46.421,5.134a4.235,4.235,0,1,1,4.515-4.226,4.383,4.383,0,0,1-4.515,4.226" transform="translate(187.523 2003.107)" fill="#ffca00"/>
    <path id="Trazado_824077" data-name="Trazado 824077" d="M86.532,1.817h-.064A79.456,79.456,0,0,0,7.17,75.394a6.043,6.043,0,0,1,0,11.873A78.85,78.85,0,0,0,13.2,112.286a79.757,79.757,0,0,0,4.5,9.011.908.908,0,1,1-1.57.913,82.053,82.053,0,0,1-4.6-9.216A80.715,80.715,0,0,1,5.351,87.334a6.042,6.042,0,0,1,0-12.006A81.269,81.269,0,0,1,86.468,0h.064a.908.908,0,1,1,0,1.817M1.817,81.331a4.226,4.226,0,1,0,4.226-4.226,4.23,4.23,0,0,0-4.226,4.226" transform="translate(716.194 2039.819)" fill="#2d54fe"/>
    <path id="Trazado_832976" data-name="Trazado 832976" d="M23.218,3.625l2.922,8.25,2.906-8.25h3.078V15H29.772V11.891l.234-5.367L26.936,15H25.327L22.264,6.531l.234,5.359V15H20.155V3.625Zm14.7,11.531a4.15,4.15,0,0,1-3.027-1.141,4.054,4.054,0,0,1-1.168-3.039v-.219A5.106,5.106,0,0,1,34.21,8.48,3.612,3.612,0,0,1,35.6,6.934a3.914,3.914,0,0,1,2.059-.543,3.508,3.508,0,0,1,2.73,1.094,4.444,4.444,0,0,1,1,3.1v.922H36.007a2.1,2.1,0,0,0,.66,1.328,2,2,0,0,0,1.395.5,2.437,2.437,0,0,0,2.039-.945l1.109,1.242a3.389,3.389,0,0,1-1.375,1.121A4.511,4.511,0,0,1,37.913,15.156Zm-.258-6.945a1.411,1.411,0,0,0-1.09.455,2.357,2.357,0,0,0-.535,1.3h3.141V9.788a1.681,1.681,0,0,0-.406-1.165A1.456,1.456,0,0,0,37.655,8.211Zm7.133-1.664.07.945a2.971,2.971,0,0,1,2.43-1.1A2.255,2.255,0,0,1,49.53,7.68a2.9,2.9,0,0,1,2.539-1.289,2.521,2.521,0,0,1,2.047.8,3.681,3.681,0,0,1,.672,2.41V15H52.522V9.6a1.616,1.616,0,0,0-.281-1.053,1.245,1.245,0,0,0-.992-.333,1.409,1.409,0,0,0-1.406.971L49.85,15H47.593V9.6A1.6,1.6,0,0,0,47.3,8.54a1.257,1.257,0,0,0-.984-.329,1.463,1.463,0,0,0-1.391.8V15H42.671V6.547ZM56.171,10.7a5.013,5.013,0,0,1,.484-2.242A3.546,3.546,0,0,1,58.05,6.93a4.069,4.069,0,0,1,2.113-.539,3.849,3.849,0,0,1,2.793,1.047,4.2,4.2,0,0,1,1.207,2.844l.016.578a4.418,4.418,0,0,1-1.086,3.121,4.209,4.209,0,0,1-5.832,0,4.5,4.5,0,0,1-1.09-3.187Zm2.258.16a3.16,3.16,0,0,0,.453,1.843,1.628,1.628,0,0,0,2.578.008,3.457,3.457,0,0,0,.461-2.015A3.128,3.128,0,0,0,61.46,8.86a1.5,1.5,0,0,0-1.3-.649,1.474,1.474,0,0,0-1.281.646A3.516,3.516,0,0,0,58.428,10.856ZM70.319,8.664a6.134,6.134,0,0,0-.812-.062,1.654,1.654,0,0,0-1.68.867V15H65.569V6.547H67.7l.063,1.008a2.092,2.092,0,0,1,1.883-1.164,2.366,2.366,0,0,1,.7.1ZM73.788,15H71.522V6.547h2.266Zm-2.4-10.641a1.112,1.112,0,0,1,.34-.836,1.465,1.465,0,0,1,1.848,0,1.105,1.105,0,0,1,.344.836,1.108,1.108,0,0,1-.348.844,1.448,1.448,0,0,1-1.836,0A1.108,1.108,0,0,1,71.389,4.359ZM80.546,15a2.507,2.507,0,0,1-.227-.758,2.732,2.732,0,0,1-2.133.914,3,3,0,0,1-2.059-.719,2.312,2.312,0,0,1-.816-1.812,2.389,2.389,0,0,1,1-2.062,4.915,4.915,0,0,1,2.879-.727h1.039V9.352a1.393,1.393,0,0,0-.3-.937,1.183,1.183,0,0,0-.949-.352,1.345,1.345,0,0,0-.895.273.929.929,0,0,0-.324.75H75.5a2.268,2.268,0,0,1,.453-1.359,3,3,0,0,1,1.281-.98,4.669,4.669,0,0,1,1.859-.355,3.689,3.689,0,0,1,2.48.785,2.747,2.747,0,0,1,.918,2.207v3.664a4.041,4.041,0,0,0,.336,1.82V15Zm-1.867-1.57a1.945,1.945,0,0,0,.922-.223,1.462,1.462,0,0,0,.625-.6V11.156h-.844q-1.7,0-1.8,1.172l-.008.133a.9.9,0,0,0,.3.7A1.153,1.153,0,0,0,78.678,13.43Z" transform="translate(1176.396 2111.999)" fill="#12263f"/>
  </g>
</svg>
