<svg xmlns="http://www.w3.org/2000/svg" width="89" height="89" viewBox="0 0 89 89">
  <g id="Grupo_1078581" data-name="Grupo 1078581" transform="translate(-828 -852)">
    <rect id="Rectángulo_361585" data-name="Rectángulo 361585" width="89" height="89" transform="translate(828 852)" fill="none"/>
    <g id="Grupo_1078618" data-name="Grupo 1078618" transform="translate(817.195 856.931)">
      <path id="Trazado_824131" data-name="Trazado 824131" d="M179.951,7.5h-55a.773.773,0,0,0-.773.773V44.464H128.5a1.546,1.546,0,0,1,1.339,2.319l-3.295,5.707h1.626a1.546,1.546,0,0,1,1.546,1.546v2.243a1.546,1.546,0,0,1-1.546,1.546h-.555l.029.174a17.429,17.429,0,0,1,8.014,5.481,13.753,13.753,0,0,1,3.149,8.688,14.5,14.5,0,0,1-6.754,11.985l.028.168h47.866a.773.773,0,0,0,.773-.773V8.273a.773.773,0,0,0-.773-.773Z" transform="translate(-92.742 -6.341)" fill="#fdf6ec"/>
      <path id="Trazado_824132" data-name="Trazado 824132" d="M128.5,44.464a1.546,1.546,0,0,1,1.339,2.319l-3.295,5.707h1.626a1.546,1.546,0,0,1,1.546,1.546v2.243a1.546,1.546,0,0,1-1.546,1.546h-.555a18.891,18.891,0,0,1,3.2,1.417V8.273a.773.773,0,0,1,.773-.773h-6.643a.773.773,0,0,0-.773.773V44.464Z" transform="translate(-92.742 -6.341)" fill="#fef1da"/>
      <g id="Grupo_1078601" data-name="Grupo 1078601" transform="translate(15.637 38.123)">
        <path id="Trazado_824133" data-name="Trazado 824133" d="M90.857,246.645H81.2a1.546,1.546,0,0,0-1.339,2.318l3.295,5.707H88.9l3.295-5.707A1.546,1.546,0,0,0,90.857,246.645Z" transform="translate(-70.733 -246.645)" fill="#ffca00"/>
        <path id="Trazado_824134" data-name="Trazado 824134" d="M87.759,254.67l-3.295-5.707a1.546,1.546,0,0,1,1.339-2.319H81.194a1.546,1.546,0,0,0-1.339,2.319l3.295,5.707Z" transform="translate(-70.732 -246.645)" fill="#fac600"/>
        <path id="Trazado_824135" data-name="Trazado 824135" d="M41.214,333.081H33.323c-6.64,2.231-11.347,7.811-11.347,14.343a14.6,14.6,0,0,0,6.253,11.711,2.293,2.293,0,0,0,1.362.441h16.09a14.737,14.737,0,0,0,6.88-12.153C52.562,340.892,47.854,335.312,41.214,333.081Z" transform="translate(-21.976 -319.721)" fill="#ffca00"/>
        <path id="Trazado_824136" data-name="Trazado 824136" d="M28.472,347.424c0-6.533,4.709-12.113,11.351-14.343h-6.5c-6.64,2.231-11.347,7.811-11.347,14.343a14.6,14.6,0,0,0,6.253,11.711,2.293,2.293,0,0,0,1.362.441h6.5a2.293,2.293,0,0,1-1.362-.441A14.6,14.6,0,0,1,28.472,347.424Z" transform="translate(-21.976 -319.721)" fill="#fac600"/>
        <g id="Grupo_1078599" data-name="Grupo 1078599" transform="translate(9.247 8.025)">
          <path id="Trazado_824137" data-name="Trazado 824137" d="M92.347,303.9h-9a1.546,1.546,0,0,1-1.546-1.546v-2.243a1.546,1.546,0,0,1,1.546-1.546h9a1.546,1.546,0,0,1,1.546,1.546v2.243A1.546,1.546,0,0,1,92.347,303.9Z" transform="translate(-81.801 -298.567)" fill="#2d54fe"/>
        </g>
        <g id="Grupo_1078600" data-name="Grupo 1078600" transform="translate(9.247 8.025)">
          <path id="Trazado_824138" data-name="Trazado 824138" d="M87.051,302.356v-2.243a1.546,1.546,0,0,1,1.546-1.546h-5.25a1.546,1.546,0,0,0-1.546,1.546v2.243a1.546,1.546,0,0,0,1.546,1.546H88.6A1.546,1.546,0,0,1,87.051,302.356Z" transform="translate(-81.801 -298.567)" fill="#0023b9"/>
        </g>
      </g>
      <g id="Grupo_1078608" data-name="Grupo 1078608" transform="translate(37.231 12.896)">
        <g id="Grupo_1078602" data-name="Grupo 1078602" transform="translate(0 11.091)">
          <path id="Trazado_824139" data-name="Trazado 824139" d="M165.545,164.986h-3.4a.464.464,0,0,1-.464-.464V155.65a.464.464,0,0,1,.464-.464h2.937a.464.464,0,0,1,.464.464Z" transform="translate(-161.681 -155.186)" fill="#fd5426"/>
        </g>
        <g id="Grupo_1078603" data-name="Grupo 1078603" transform="translate(8.218 7.188)">
          <path id="Trazado_824140" data-name="Trazado 824140" d="M218.713,143.639h-3.864V130.4a.464.464,0,0,1,.464-.464h2.937a.464.464,0,0,1,.464.464Z" transform="translate(-214.849 -129.936)" fill="#ffca00"/>
        </g>
        <g id="Grupo_1078604" data-name="Grupo 1078604" transform="translate(16.436 3.369)">
          <path id="Trazado_824141" data-name="Trazado 824141" d="M271.88,122.751h-3.864V105.694a.464.464,0,0,1,.464-.464h2.937a.464.464,0,0,1,.464.464Z" transform="translate(-268.016 -105.23)" fill="#2d54fe"/>
        </g>
        <g id="Grupo_1078605" data-name="Grupo 1078605" transform="translate(24.654)">
          <path id="Trazado_824142" data-name="Trazado 824142" d="M325.047,104.322h-3.864V83.895a.464.464,0,0,1,.464-.464h2.937a.464.464,0,0,1,.464.464Z" transform="translate(-321.183 -83.431)" fill="#0ed290"/>
        </g>
        <g id="Grupo_1078606" data-name="Grupo 1078606" transform="translate(32.872 4.043)">
          <path id="Trazado_824143" data-name="Trazado 824143" d="M378.215,126.437h-3.864V110.054a.464.464,0,0,1,.464-.464h2.937a.464.464,0,0,1,.464.464Z" transform="translate(-374.351 -109.59)" fill="#2d54fe"/>
        </g>
        <g id="Grupo_1078607" data-name="Grupo 1078607" transform="translate(41.09 8.712)">
          <path id="Trazado_824144" data-name="Trazado 824144" d="M430.918,151.973h-3.4V140.258a.464.464,0,0,1,.464-.464h2.937a.464.464,0,0,1,.464.464v11.252A.464.464,0,0,1,430.918,151.973Z" transform="translate(-427.518 -139.794)" fill="#ffca00"/>
        </g>
      </g>
      <g id="Grupo_1078613" data-name="Grupo 1078613" transform="translate(61.871 41.579)">
        <g id="Grupo_1078609" data-name="Grupo 1078609" transform="translate(3.92)">
          <path id="Trazado_824145" data-name="Trazado 824145" d="M352.23,277.258h8.164c0-.052,0-.1,0-.155a8.1,8.1,0,0,0-13.941-5.612Z" transform="translate(-346.456 -269)" fill="#fe502d"/>
        </g>
        <g id="Grupo_1078610" data-name="Grupo 1078610" transform="translate(3.92)">
          <path id="Trazado_824146" data-name="Trazado 824146" d="M349.214,274.246a8.106,8.106,0,0,1,6.976-3.987c.153,0,.3.005.455.013a8.08,8.08,0,0,0-10.188,1.22Z" transform="translate(-346.457 -269)" fill="#ef4424"/>
        </g>
        <g id="Grupo_1078611" data-name="Grupo 1078611" transform="translate(0 1.209)">
          <path id="Trazado_824147" data-name="Trazado 824147" d="M330.854,283.714h9.757a9.757,9.757,0,1,1-16.661-6.9Z" transform="translate(-321.097 -276.819)" fill="#2d54fe"/>
        </g>
        <g id="Grupo_1078612" data-name="Grupo 1078612" transform="translate(0 1.209)">
          <path id="Trazado_824148" data-name="Trazado 824148" d="M325.061,283.715a9.759,9.759,0,0,1,1.165-4.622l-2.276-2.273a9.757,9.757,0,0,0,6.9,16.652,9.643,9.643,0,0,0,1.982-.206A9.817,9.817,0,0,1,325.061,283.715Z" transform="translate(-321.097 -276.82)" fill="#0023b9"/>
        </g>
      </g>
      <g id="Grupo_1078616" data-name="Grupo 1078616" transform="translate(51.384 65.709)">
        <path id="Trazado_824149" data-name="Trazado 824149" d="M392.658,425.118h-7.135v4.843h7.135a2.421,2.421,0,0,0,0-4.843Z" transform="translate(-365.078 -425.118)" fill="#fe502d"/>
        <g id="Grupo_1078614" data-name="Grupo 1078614" transform="translate(0 0)">
          <path id="Trazado_824150" data-name="Trazado 824150" d="M255.67,425.118a2.421,2.421,0,0,0,0,4.843h18.024v-4.843Z" transform="translate(-253.249 -425.118)" fill="#2d54fe"/>
        </g>
        <g id="Grupo_1078615" data-name="Grupo 1078615" transform="translate(0)">
          <path id="Trazado_824151" data-name="Trazado 824151" d="M259.815,427.539a2.421,2.421,0,0,1,2.421-2.421H255.67a2.421,2.421,0,1,0,0,4.843h6.566A2.421,2.421,0,0,1,259.815,427.539Z" transform="translate(-253.249 -425.118)" fill="#0023b9"/>
        </g>
      </g>
      <g id="Grupo_1078617" data-name="Grupo 1078617" transform="translate(14.478)">
        <path id="Trazado_824152" data-name="Trazado 824152" d="M87.982,41.217a1.159,1.159,0,0,0,1.159-1.159V1.932A1.934,1.934,0,0,0,87.209,0h-55a1.934,1.934,0,0,0-1.932,1.932V36.964H26.1a2.7,2.7,0,0,0-2.343,4.057l2.307,4a2.707,2.707,0,0,0-2.339,2.677v2.243a2.686,2.686,0,0,0,.431,1.459,18.743,18.743,0,0,0-4.927,3.469,15.383,15.383,0,0,0-4.751,10.96A15.757,15.757,0,0,0,21.2,78.471a3.475,3.475,0,0,0,2.05.667H87.209a1.934,1.934,0,0,0,1.932-1.932V45.467a1.159,1.159,0,0,0-2.319,0V76.82H42.6a15.628,15.628,0,0,0,4.558-8.455,1.159,1.159,0,0,0-2.283-.4,13.842,13.842,0,0,1-5.893,8.857H23.252a1.14,1.14,0,0,1-.674-.215A13.464,13.464,0,0,1,16.8,65.827a13.083,13.083,0,0,1,4.061-9.31,16.86,16.86,0,0,1,6.33-3.874h7.5c5.09,1.766,8.94,5.627,10.053,10.376A1.159,1.159,0,0,0,47,62.49,16.9,16.9,0,0,0,37.7,51.4a2.686,2.686,0,0,0,.43-1.458V47.694A2.707,2.707,0,0,0,35.8,45.017l2.307-4a2.7,2.7,0,0,0-2.343-4.057H32.593V2.319H86.822V40.057a1.159,1.159,0,0,0,1.159,1.159ZM35.817,47.694v2.243a.387.387,0,0,1-.386.386h-9a.387.387,0,0,1-.386-.386V47.694a.387.387,0,0,1,.386-.386h9A.387.387,0,0,1,35.817,47.694Zm-.056-8.412a.386.386,0,0,1,.335.58l-2.96,5.127H28.724l-2.96-5.127a.386.386,0,0,1,.335-.58Z" transform="translate(-14.478)"/>
        <path id="Trazado_824153" data-name="Trazado 824153" d="M94.151,377.823a1.159,1.159,0,0,0,1.159-1.159v-1.309h.17a3.564,3.564,0,1,0,0-7.129H92.821a1.246,1.246,0,1,1,0-2.492h4.684a1.159,1.159,0,0,0,0-2.319h-2.2v-1.309a1.159,1.159,0,0,0-2.319,0v1.309h-.17a3.564,3.564,0,0,0,0,7.129H95.48a1.246,1.246,0,1,1,0,2.492H90.8a1.159,1.159,0,0,0,0,2.318h2.2v1.309A1.159,1.159,0,0,0,94.151,377.823Z" transform="translate(-77.699 -305.157)"/>
        <path id="Trazado_824154" data-name="Trazado 824154" d="M201.455,97.517V86.266a1.625,1.625,0,0,0-1.623-1.623H196.9a1.625,1.625,0,0,0-1.623,1.623V96.822h-2.035V81.6a1.625,1.625,0,0,0-1.623-1.623h-2.937a1.625,1.625,0,0,0-1.623,1.623V96.822h-2.035V77.554a1.625,1.625,0,0,0-1.623-1.623H180.46a1.625,1.625,0,0,0-1.623,1.623V96.822H176.8V90.471a1.159,1.159,0,1,0-2.319,0v6.351h-1.546v-15.2h1.546v3.442a1.159,1.159,0,0,0,2.319,0V80.923a1.625,1.625,0,0,0-1.623-1.623h-2.937a1.625,1.625,0,0,0-1.623,1.623v15.9h-2.035V84.742a1.625,1.625,0,0,0-1.623-1.623h-2.937a1.625,1.625,0,0,0-1.623,1.623v12.08h-2.035V88.645a1.625,1.625,0,0,0-1.623-1.623h-2.937a1.625,1.625,0,0,0-1.623,1.623v8.872a1.625,1.625,0,0,0,1.623,1.623h44.026a1.624,1.624,0,0,0,1.623-1.623Zm-43.408-.7H156.5V89.341h1.546Zm8.218,0h-1.546V85.438h1.546Zm16.436,0h-1.546V78.25H182.7Zm8.218,0h-1.546V82.293h1.546Zm8.218,0h-1.546v-9.86h1.546Z" transform="translate(-132.589 -64.195)"/>
        <path id="Trazado_824155" data-name="Trazado 824155" d="M334.27,269.6h-.57a9.253,9.253,0,0,0-14.867-6.151l-.406-.405a1.16,1.16,0,0,0-.819-.339h0a1.16,1.16,0,0,0-.82.34,10.917,10.917,0,1,0,18.641,7.714A1.159,1.159,0,0,0,334.27,269.6Zm-9.757-5.785a6.955,6.955,0,0,1,6.846,5.785h-6.366l-4.5-4.5A6.9,6.9,0,0,1,324.513,263.819Zm0,15.543a8.6,8.6,0,0,1-6.846-13.8l6.027,6.019a1.16,1.16,0,0,0,.819.339h8.52A8.611,8.611,0,0,1,324.513,279.361Z" transform="translate(-267.362 -221.081)"/>
        <path id="Trazado_824156" data-name="Trazado 824156" d="M204.311,273.1h12.981a1.159,1.159,0,1,0,0-2.318H204.311a1.159,1.159,0,1,0,0,2.318Z" transform="translate(-173.989 -228.931)"/>
        <path id="Trazado_824157" data-name="Trazado 824157" d="M204.311,301.866h12.981a1.159,1.159,0,0,0,0-2.319H204.311a1.159,1.159,0,0,0,0,2.319Z" transform="translate(-173.989 -253.247)"/>
        <path id="Trazado_824158" data-name="Trazado 824158" d="M215.816,330.628h11.2a1.159,1.159,0,0,0,0-2.319h-11.2a1.159,1.159,0,0,0,0,2.319Z" transform="translate(-183.716 -277.563)"/>
        <path id="Trazado_824159" data-name="Trazado 824159" d="M238.826,359.389h7.646a1.159,1.159,0,1,0,0-2.319h-7.646a1.159,1.159,0,1,0,0,2.319Z" transform="translate(-203.169 -301.879)"/>
        <path id="Trazado_824160" data-name="Trazado 824160" d="M168.775,39.133a1.159,1.159,0,1,0,0-2.319H155.757a1.159,1.159,0,0,0,0,2.319Z" transform="translate(-132.94 -31.124)"/>
        <path id="Trazado_824161" data-name="Trazado 824161" d="M399.507,39.133h7.149a1.159,1.159,0,0,0,0-2.319h-7.149a1.159,1.159,0,1,0,0,2.319Z" transform="translate(-339.014 -31.124)"/>
        <path id="Trazado_824162" data-name="Trazado 824162" d="M399.507,65.593h7.149a1.159,1.159,0,0,0,0-2.319h-7.149a1.159,1.159,0,1,0,0,2.319Z" transform="translate(-339.014 -53.495)"/>
        <path id="Trazado_824163" data-name="Trazado 824163" d="M249.33,424.779h25.159a3.581,3.581,0,1,0,0-7.161H249.33a3.581,3.581,0,1,0,0,7.161Zm19.183-4.843h5.976a1.262,1.262,0,1,1,0,2.524h-5.976Zm-19.183,0h16.865v2.524H249.33a1.262,1.262,0,1,1,0-2.524Z" transform="translate(-210.002 -353.068)"/>
      </g>
    </g>
  </g>
</svg>
