<svg xmlns="http://www.w3.org/2000/svg" width="166" height="166" viewBox="0 0 166 166">
  <g id="Grupo_1028906" data-name="Grupo 1028906" transform="translate(-460 -5361)">
    <circle id="Elipse_8441" data-name="Elipse 8441" cx="83" cy="83" r="83" transform="translate(460 5361)" fill="#fff" opacity="0.45"/>
    <path id="Trazado_775906" data-name="Trazado 775906" d="M67,0A67,67,0,1,1,0,67,67,67,0,0,1,67,0Z" transform="translate(476 5377)" fill="#fff"/>
    <g id="Grupo_1028916" data-name="Grupo 1028916" transform="translate(500.398 5404.755)">
      <g id="Grupo_1028914" data-name="Grupo 1028914" transform="translate(8.27 1.15)">
        <path id="Trazado_775907" data-name="Trazado 775907" d="M70.922,8.907,70.5,82.4a.825.825,0,0,1-.825.825l-3.374.461H27.621a1.628,1.628,0,0,1-.684-.149l-4.914-8.786-7.254-3.381a1.657,1.657,0,0,1-.149-.684V8.325a.825.825,0,0,1,.826-.825H66.3l3.8.583a.825.825,0,0,1,.825.825Z" transform="translate(-14.62 -7.5)" fill="#eef5f6"/>
        <path id="Trazado_775908" data-name="Trazado 775908" d="M352.133,8.325V82.864a.825.825,0,0,1-.825.825H346.3a1.846,1.846,0,0,0,1.847-1.847V9.347A1.846,1.846,0,0,0,346.3,7.5h5.008a.825.825,0,0,1,.825.825Z" transform="translate(-295.455 -7.5)" fill="#deecf1"/>
        <path id="Trazado_775909" data-name="Trazado 775909" d="M27.759,424.926v11.4a1.623,1.623,0,0,1-.483-.334l-11.35-11.35a1.658,1.658,0,0,1-.336-.483h11.4A.766.766,0,0,1,27.759,424.926Z" transform="translate(-15.441 -360.287)" fill="#cbe5e8"/>
        <circle id="Elipse_8762" data-name="Elipse 8762" cx="9.19" cy="9.19" r="9.19" transform="translate(13.25 6.601)" fill="#ffca00"/>
        <g id="Grupo_1028909" data-name="Grupo 1028909" transform="translate(6.688 30.352)">
          <path id="Trazado_775910" data-name="Trazado 775910" d="M62.389,210.1H58.71a.46.46,0,0,1-.46-.46v-3.679a.46.46,0,0,1,.46-.46h3.679a.46.46,0,0,1,.46.46v3.679A.46.46,0,0,1,62.389,210.1Z" transform="translate(-58.25 -205.497)" fill="#2d54fe"/>
          <path id="Trazado_775911" data-name="Trazado 775911" d="M62.389,285.1H58.71a.46.46,0,0,1-.46-.46v-3.679a.46.46,0,0,1,.46-.46h3.679a.46.46,0,0,1,.46.46v3.679A.46.46,0,0,1,62.389,285.1Z" transform="translate(-58.25 -269.001)" fill="#2d54fe"/>
          <path id="Trazado_775912" data-name="Trazado 775912" d="M62.389,360.1H58.71a.46.46,0,0,1-.46-.46V355.96a.46.46,0,0,1,.46-.46h3.679a.46.46,0,0,1,.46.46v3.679A.46.46,0,0,1,62.389,360.1Z" transform="translate(-58.25 -332.505)" fill="#2d54fe"/>
        </g>
        <path id="Trazado_775913" data-name="Trazado 775913" d="M151.25,429.889H138.643a.613.613,0,0,1-.613-.613v-4.508a.613.613,0,0,1,.613-.613H151.25a.613.613,0,0,1,.613.613v4.508A.613.613,0,0,1,151.25,429.889Z" transform="translate(-119.112 -360.283)" fill="#cbe5e8"/>
        <g id="Grupo_1028913" data-name="Grupo 1028913" transform="translate(39.353 20.764)">
          <path id="Trazado_775914" data-name="Trazado 775914" d="M271.331,144.6a1.65,1.65,0,0,1,1.65-1.65h24l6.6.577a1.65,1.65,0,0,1,1.65,1.65l-.087,44.236a1.65,1.65,0,0,1-1.65,1.65l-6.66.729H272.981a1.65,1.65,0,0,1-1.65-1.65Z" transform="translate(-271.331 -142.948)" fill="#888891"/>
          <path id="Trazado_775915" data-name="Trazado 775915" d="M443,144.6v45.543a1.65,1.65,0,0,1-1.651,1.649h-8.2a2.487,2.487,0,0,0,2.488-2.486V145.436a2.487,2.487,0,0,0-2.488-2.486h8.2A1.65,1.65,0,0,1,443,144.6Z" transform="translate(-408.344 -142.95)" fill="#73737f"/>
          <g id="Grupo_1028911" data-name="Grupo 1028911" transform="translate(4.868 4.95)">
            <path id="Trazado_775916" data-name="Trazado 775916" d="M327.431,175.854l.115,7.9a.307.307,0,0,1-.307.307l-1.728.421h-22.12a.307.307,0,0,1-.307-.307v-8.627a.307.307,0,0,1,.307-.307h22.12l1.613.307A.307.307,0,0,1,327.431,175.854Z" transform="translate(-303.085 -175.24)" fill="#eef5f6"/>
            <g id="Grupo_1028910" data-name="Grupo 1028910" transform="translate(0 14.191)">
              <path id="Trazado_775917" data-name="Trazado 775917" d="M307.729,272.761h-4.337a.307.307,0,0,1-.307-.307v-4.337a.307.307,0,0,1,.307-.307h4.337a.307.307,0,0,1,.307.307v4.337A.307.307,0,0,1,307.729,272.761Z" transform="translate(-303.085 -267.811)" fill="#73737f"/>
              <path id="Trazado_775918" data-name="Trazado 775918" d="M372.313,272.761h-4.337a.307.307,0,0,1-.307-.307v-4.337a.307.307,0,0,1,.307-.307h4.337a.307.307,0,0,1,.307.307v4.337A.307.307,0,0,1,372.313,272.761Z" transform="translate(-357.768 -267.811)" fill="#73737f"/>
              <path id="Trazado_775919" data-name="Trazado 775919" d="M436.9,272.761H432.56a.307.307,0,0,1-.307-.307v-4.337a.307.307,0,0,1,.307-.307H436.9a.307.307,0,0,1,.307.307v4.337A.307.307,0,0,1,436.9,272.761Z" transform="translate(-412.452 -267.811)" fill="#73737f"/>
              <path id="Trazado_775920" data-name="Trazado 775920" d="M307.729,337.345h-4.337a.307.307,0,0,1-.307-.307V332.7a.307.307,0,0,1,.307-.307h4.337a.307.307,0,0,1,.307.307v4.337A.307.307,0,0,1,307.729,337.345Z" transform="translate(-303.085 -322.495)" fill="#73737f"/>
              <path id="Trazado_775921" data-name="Trazado 775921" d="M372.313,337.345h-4.337a.307.307,0,0,1-.307-.307V332.7a.307.307,0,0,1,.307-.307h4.337a.307.307,0,0,1,.307.307v4.337A.307.307,0,0,1,372.313,337.345Z" transform="translate(-357.768 -322.495)" fill="#73737f"/>
              <path id="Trazado_775922" data-name="Trazado 775922" d="M307.729,401.929h-4.337a.307.307,0,0,1-.307-.307v-4.337a.307.307,0,0,1,.307-.307h4.337a.307.307,0,0,1,.307.307v4.337A.307.307,0,0,1,307.729,401.929Z" transform="translate(-303.085 -377.178)" fill="#73737f"/>
              <path id="Trazado_775923" data-name="Trazado 775923" d="M372.313,401.929h-4.337a.307.307,0,0,1-.307-.307v-4.337a.307.307,0,0,1,.307-.307h4.337a.307.307,0,0,1,.307.307v4.337A.307.307,0,0,1,372.313,401.929Z" transform="translate(-357.768 -377.178)" fill="#73737f"/>
            </g>
            <path id="Trazado_775924" data-name="Trazado 775924" d="M436.473,346.691l-1.595.556H432.56a.307.307,0,0,1-.307-.307V332.7a.307.307,0,0,1,.307-.307h2.319l1.653.408a.307.307,0,0,1,.307.307l-.058,13.274A.307.307,0,0,1,436.473,346.691Z" transform="translate(-412.452 -308.305)" fill="#ffca00"/>
          </g>
          <g id="Grupo_1028912" data-name="Grupo 1028912" transform="translate(27.294 4.95)">
            <path id="Trazado_775925" data-name="Trazado 775925" d="M451.7,332.707v14.237a.306.306,0,0,1-.307.307H449.38V332.4H451.4A.306.306,0,0,1,451.7,332.707Z" transform="translate(-449.38 -308.308)" fill="#ffc55f"/>
            <path id="Trazado_775926" data-name="Trazado 775926" d="M451.7,175.547v8.628a.307.307,0,0,1-.307.307H449.38V175.24H451.4A.307.307,0,0,1,451.7,175.547Z" transform="translate(-449.38 -175.24)" fill="#deecf1"/>
            <path id="Trazado_775927" data-name="Trazado 775927" d="M451.7,268.117v4.337a.306.306,0,0,1-.307.307H449.38v-4.95H451.4A.307.307,0,0,1,451.7,268.117Z" transform="translate(-449.38 -253.619)" fill="#626272"/>
          </g>
        </g>
      </g>
      <g id="Grupo_1028915" data-name="Grupo 1028915" transform="translate(7.12 0)">
        <path id="Trazado_775928" data-name="Trazado 775928" d="M139.863,78.069a4.342,4.342,0,0,0,1.844,1.148v.5a1.15,1.15,0,0,0,2.3,0V79.21a3.211,3.211,0,0,0,2.115-2.643,3.141,3.141,0,0,0-2.734-3.413c-.4-.1-1.071-.326-1.1-.8a.8.8,0,0,1,.407-.723,1.616,1.616,0,0,1,1.2.11h0l.008.005a1.149,1.149,0,0,0,1.157-1.986h0a3.926,3.926,0,0,0-1.056-.4v-.439a1.15,1.15,0,1,0-2.3,0v.637A3.075,3.075,0,0,0,139.99,72.5a3.319,3.319,0,0,0,2.861,2.891c.4.1,1.053.339.986.907a.934.934,0,0,1-.925.8,2.036,2.036,0,0,1-1.334-.564h0a1.149,1.149,0,1,0-1.714,1.53Z" transform="translate(-119.267 -57.379)"/>
        <path id="Trazado_775929" data-name="Trazado 775929" d="M103.893,63.738A10.339,10.339,0,1,0,93.554,53.4,10.351,10.351,0,0,0,103.893,63.738Zm0-18.379a8.04,8.04,0,1,1-8.04,8.04A8.049,8.049,0,0,1,103.893,45.359Z" transform="translate(-80.304 -36.459)"/>
        <path id="Trazado_775930" data-name="Trazado 775930" d="M57.648,199.148A1.15,1.15,0,0,0,56.5,198H51.9a1.15,1.15,0,0,0-1.15,1.15v4.6a1.15,1.15,0,0,0,1.15,1.15h4.6a1.15,1.15,0,0,0,1.15-1.15Zm-2.3,3.449h-2.3v-2.3h2.3Z" transform="translate(-44.062 -167.646)"/>
        <path id="Trazado_775931" data-name="Trazado 775931" d="M57.648,274.149A1.15,1.15,0,0,0,56.5,273H51.9a1.15,1.15,0,0,0-1.15,1.15v4.6a1.15,1.15,0,0,0,1.15,1.15h4.6a1.15,1.15,0,0,0,1.15-1.15Zm-2.3,3.449h-2.3v-2.3h2.3Z" transform="translate(-44.062 -231.149)"/>
        <path id="Trazado_775932" data-name="Trazado 775932" d="M56.5,348H51.9a1.15,1.15,0,0,0-1.15,1.15v4.6a1.15,1.15,0,0,0,1.15,1.15h4.6a1.15,1.15,0,0,0,1.15-1.15v-4.6A1.15,1.15,0,0,0,56.5,348Zm-1.15,4.6h-2.3v-2.3h2.3Z" transform="translate(-44.062 -294.653)"/>
        <path id="Trazado_775933" data-name="Trazado 775933" d="M108.65,230.3H116.3a1.15,1.15,0,1,0,0-2.3H108.65a1.15,1.15,0,1,0,0,2.3Z" transform="translate(-92.112 -193.047)"/>
        <path id="Trazado_775934" data-name="Trazado 775934" d="M108.65,305.3H126.4a1.15,1.15,0,0,0,0-2.3H108.65a1.15,1.15,0,0,0,0,2.3Z" transform="translate(-92.112 -256.55)"/>
        <path id="Trazado_775935" data-name="Trazado 775935" d="M114.782,380.3a1.15,1.15,0,1,0,0-2.3H108.65a1.15,1.15,0,1,0,0,2.3Z" transform="translate(-92.112 -320.054)"/>
        <path id="Trazado_775936" data-name="Trazado 775936" d="M8.27,18.091a1.15,1.15,0,0,0,1.15-1.15V2.3H42.608a1.15,1.15,0,0,0,0-2.3H9.1A1.977,1.977,0,0,0,7.12,1.974V16.941a1.15,1.15,0,0,0,1.15,1.15Z" transform="translate(-7.12 0)"/>
        <path id="Trazado_775937" data-name="Trazado 775937" d="M36.909,193.042H21.737V181.875a1.15,1.15,0,0,0-1.15-1.15H9.419V139.16a1.15,1.15,0,1,0-2.3,0v42.032a2.82,2.82,0,0,0,.821,1.98l11.35,11.35a2.781,2.781,0,0,0,1.98.82H36.909a1.15,1.15,0,1,0,0-2.3Zm-17.471-1.626-8.391-8.391h8.391Z" transform="translate(-7.12 -116.854)"/>
        <path id="Trazado_775938" data-name="Trazado 775938" d="M165.616,20.764h-4.577a1.15,1.15,0,1,0,0,2.3h4.577a.5.5,0,0,1,.5.5V69.106a.5.5,0,0,1-.5.5H134.266a.5.5,0,0,1-.5-.5V23.563a.5.5,0,0,1,.5-.5h21.408a1.15,1.15,0,0,0,0-2.3H151.09V1.974A1.977,1.977,0,0,0,149.115,0h-16.15a1.15,1.15,0,1,0,0,2.3H148.79V20.764H134.266a2.8,2.8,0,0,0-2.8,2.8v6.789H108.65a1.15,1.15,0,1,0,0,2.3h22.815v9.2H108.65a1.15,1.15,0,1,0,0,2.3h22.815v9.2H108.65a1.15,1.15,0,1,0,0,2.3h22.815V69.106a2.8,2.8,0,0,0,2.8,2.8H148.79v4.283H127.266a1.15,1.15,0,1,0,0,2.3h21.849a1.977,1.977,0,0,0,1.974-1.974V71.905h14.526a2.8,2.8,0,0,0,2.8-2.8V23.563A2.8,2.8,0,0,0,165.616,20.764Z" transform="translate(-92.112 0)"/>
        <path id="Trazado_775939" data-name="Trazado 775939" d="M322.636,168.89a1.15,1.15,0,0,0-1.15-1.15H296.735a1.15,1.15,0,0,0-1.15,1.15v9.241a1.15,1.15,0,0,0,1.15,1.15h24.751a1.15,1.15,0,0,0,1.15-1.15Zm-2.3,8.091H297.884v-6.941h22.452Z" transform="translate(-251.364 -142.026)"/>
        <path id="Trazado_775940" data-name="Trazado 775940" d="M302.835,261.462a1.15,1.15,0,0,0-1.15-1.15h-4.95a1.15,1.15,0,0,0-1.15,1.15v4.95a1.15,1.15,0,0,0,1.15,1.15h4.95a1.15,1.15,0,0,0,1.15-1.15Zm-2.3,3.8h-2.651v-2.651h2.651Z" transform="translate(-251.364 -220.407)"/>
        <path id="Trazado_775941" data-name="Trazado 775941" d="M367.419,261.462a1.15,1.15,0,0,0-1.15-1.15h-4.95a1.15,1.15,0,0,0-1.15,1.15v4.95a1.15,1.15,0,0,0,1.15,1.15h4.95a1.15,1.15,0,0,0,1.15-1.15Zm-2.3,3.8h-2.651v-2.651h2.651Z" transform="translate(-306.048 -220.407)"/>
        <path id="Trazado_775942" data-name="Trazado 775942" d="M432,261.462a1.15,1.15,0,0,0-1.15-1.15H425.9a1.15,1.15,0,0,0-1.15,1.15v4.95a1.15,1.15,0,0,0,1.15,1.15h4.95a1.15,1.15,0,0,0,1.15-1.15Zm-2.3,3.8h-2.651v-2.651H429.7Z" transform="translate(-360.731 -220.407)"/>
        <path id="Trazado_775943" data-name="Trazado 775943" d="M302.835,326.046a1.15,1.15,0,0,0-1.15-1.15h-4.95a1.15,1.15,0,0,0-1.15,1.15V331a1.15,1.15,0,0,0,1.15,1.15h4.95a1.15,1.15,0,0,0,1.15-1.15Zm-2.3,3.8h-2.651V327.2h2.651Z" transform="translate(-251.364 -275.091)"/>
        <path id="Trazado_775944" data-name="Trazado 775944" d="M367.419,326.046a1.15,1.15,0,0,0-1.15-1.15h-4.95a1.15,1.15,0,0,0-1.15,1.15V331a1.15,1.15,0,0,0,1.15,1.15h4.95a1.15,1.15,0,0,0,1.15-1.15Zm-2.3,3.8h-2.651V327.2h2.651Z" transform="translate(-306.048 -275.091)"/>
        <path id="Trazado_775945" data-name="Trazado 775945" d="M301.685,389.479h-4.95a1.15,1.15,0,0,0-1.15,1.15v4.95a1.15,1.15,0,0,0,1.15,1.15h4.95a1.15,1.15,0,0,0,1.15-1.15v-4.95A1.15,1.15,0,0,0,301.685,389.479Zm-1.15,4.95h-2.651v-2.651h2.651Z" transform="translate(-251.364 -329.773)"/>
        <path id="Trazado_775946" data-name="Trazado 775946" d="M366.269,389.479h-4.95a1.15,1.15,0,0,0-1.15,1.15v4.95a1.15,1.15,0,0,0,1.15,1.15h4.95a1.15,1.15,0,0,0,1.15-1.15v-4.95A1.15,1.15,0,0,0,366.269,389.479Zm-1.15,4.95h-2.651v-2.651h2.651Z" transform="translate(-306.048 -329.773)"/>
        <path id="Trazado_775947" data-name="Trazado 775947" d="M430.853,324.9H425.9a1.15,1.15,0,0,0-1.15,1.15V340.9a1.15,1.15,0,0,0,1.15,1.15h4.95A1.15,1.15,0,0,0,432,340.9V326.046A1.15,1.15,0,0,0,430.853,324.9Zm-1.15,14.851h-2.651V327.2H429.7Z" transform="translate(-360.731 -275.091)"/>
        <path id="Trazado_775948" data-name="Trazado 775948" d="M146.663,423.539V417.8a1.15,1.15,0,0,0-1.15-1.15H131.68a1.15,1.15,0,0,0-1.15,1.15v5.734a1.15,1.15,0,0,0,1.15,1.15h13.834A1.15,1.15,0,0,0,146.663,423.539Zm-2.3-1.15H132.829v-3.435h11.534Z" transform="translate(-111.612 -352.783)"/>
        <path id="Trazado_775949" data-name="Trazado 775949" d="M258.021,43.06H244.095a1.15,1.15,0,0,0,0,2.3h13.927a1.15,1.15,0,0,0,0-2.3Z" transform="translate(-206.794 -36.459)"/>
        <path id="Trazado_775950" data-name="Trazado 775950" d="M300.965,75.355h-6.152a1.15,1.15,0,0,0,0,2.3h6.152a1.15,1.15,0,0,0,0-2.3Z" transform="translate(-249.738 -63.803)"/>
      </g>
    </g>
  </g>
</svg>
