<svg xmlns="http://www.w3.org/2000/svg" width="166" height="166" viewBox="0 0 166 166">
  <g id="Grupo_1028907" data-name="Grupo 1028907" transform="translate(-975 -5361)">
    <circle id="Elipse_8445" data-name="Elipse 8445" cx="83" cy="83" r="83" transform="translate(975 5361)" fill="#fff" opacity="0.45"/>
    <circle id="Elipse_8446" data-name="Elipse 8446" cx="67" cy="67" r="67" transform="translate(991 5377)" fill="#fff"/>
    <g id="Grupo_1028929" data-name="Grupo 1028929" transform="translate(987.798 5399.245)">
      <g id="Grupo_1028928" data-name="Grupo 1028928" transform="translate(29.349 1.389)">
        <g id="Grupo_1028917" data-name="Grupo 1028917" transform="translate(28.404)">
          <path id="Trazado_775951" data-name="Trazado 775951" d="M207.651,59.861H194.83a6.037,6.037,0,0,0-6.037,6.037V78.293h24.9V65.9A6.037,6.037,0,0,0,207.651,59.861Z" transform="translate(-188.793 -50.162)" fill="#fe502d"/>
          <path id="Trazado_775952" data-name="Trazado 775952" d="M201.35,59.86a6.036,6.036,0,0,0-6.037,6.037v12.4h-6.52V65.9a6.036,6.036,0,0,1,6.037-6.037Z" transform="translate(-188.793 -50.161)" fill="#ff2d03"/>
          <path id="Trazado_775953" data-name="Trazado 775953" d="M230.944,35.191a7.37,7.37,0,1,1-14.209-2.751c3,1.229,3.74.552,6.839.552s3.43.889,6.839-.552A7.34,7.34,0,0,1,230.944,35.191Z" transform="translate(-211.126 -27.82)" fill="#ffdfcf"/>
          <path id="Trazado_775954" data-name="Trazado 775954" d="M232.75,12.12a7.371,7.371,0,0,1-13.677,0,7.372,7.372,0,0,1,13.677,0Z" transform="translate(-213.464 -7.5)" fill="#7a6d79"/>
        </g>
        <path id="Trazado_775955" data-name="Trazado 775955" d="M207.651,371.062H194.83a6.037,6.037,0,0,1-6.037-6.037V352.63h24.9v12.395A6.037,6.037,0,0,1,207.651,371.062Z" transform="translate(-160.389 -288.701)" fill="#2d54fe"/>
        <path id="Trazado_775956" data-name="Trazado 775956" d="M201.35,371.062a6.036,6.036,0,0,1-6.037-6.037v-12.4h-6.52v12.4a6.036,6.036,0,0,0,6.037,6.037Z" transform="translate(-160.389 -288.701)" fill="#1239e2"/>
        <path id="Trazado_775957" data-name="Trazado 775957" d="M230.944,432.282a7.37,7.37,0,1,0-14.209,2.751c3-1.229,3.74-.552,6.839-.552s3.43-.889,6.839.552A7.34,7.34,0,0,0,230.944,432.282Z" transform="translate(-182.721 -347.593)" fill="#ffdfcf"/>
        <path id="Trazado_775958" data-name="Trazado 775958" d="M232.75,459.232a7.371,7.371,0,0,0-13.677,0,7.372,7.372,0,0,0,13.677,0Z" transform="translate(-185.06 -371.791)" fill="#7a6d79"/>
        <g id="Grupo_1028920" data-name="Grupo 1028920" transform="translate(0 19.293)">
          <g id="Grupo_1028918" data-name="Grupo 1028918">
            <path id="Trazado_775959" data-name="Trazado 775959" d="M71.676,114.678l-6.41,11.1a6.037,6.037,0,0,0,2.21,8.247l10.734,6.2,12.448-21.56-10.734-6.2A6.037,6.037,0,0,0,71.676,114.678Z" transform="translate(-59.083 -111.658)" fill="#2d54fe"/>
            <path id="Trazado_775960" data-name="Trazado 775960" d="M68.524,157.419a6.036,6.036,0,0,0,2.21,8.246l10.735,6.2-3.26,5.647-10.735-6.2a6.037,6.037,0,0,1-2.21-8.246Z" transform="translate(-59.081 -148.943)" fill="#002adf"/>
            <path id="Trazado_775961" data-name="Trazado 775961" d="M53.412,113.161a7.37,7.37,0,1,1-9.487,10.93c2.563-1.983,2.348-2.963,3.9-5.647s2.485-2.526,2.942-6.2a7.342,7.342,0,0,1,2.648.915Z" transform="translate(-42.355 -112.137)" fill="#ae6c6c"/>
            <path id="Trazado_775962" data-name="Trazado 775962" d="M43.856,111.925a7.371,7.371,0,0,1-6.839,11.845,7.372,7.372,0,0,1,6.839-11.845Z" transform="translate(-35.447 -111.816)" fill="#7a6d79"/>
          </g>
          <g id="Grupo_1028919" data-name="Grupo 1028919" transform="translate(50.129 24.906)">
            <path id="Trazado_775963" data-name="Trazado 775963" d="M331.469,260.563l-6.41,11.1a6.037,6.037,0,0,1-8.247,2.21l-10.734-6.2,12.448-21.56,10.734,6.2A6.037,6.037,0,0,1,331.469,260.563Z" transform="translate(-306.077 -246.118)" fill="#9be69d"/>
            <path id="Trazado_775964" data-name="Trazado 775964" d="M328.318,336.016a6.037,6.037,0,0,1-8.246,2.21l-10.735-6.2-3.26,5.647,10.735,6.2a6.036,6.036,0,0,0,8.246-2.21Z" transform="translate(-306.077 -316.115)" fill="#6fd7a3"/>
            <path id="Trazado_775965" data-name="Trazado 775965" d="M407.994,321.545a7.37,7.37,0,1,0-4.722,13.681c.435-3.211,1.392-3.515,2.942-6.2s.945-3.415,3.9-5.647a7.337,7.337,0,0,0-2.116-1.836Z" transform="translate(-380.106 -306.767)" fill="#ffdfcf"/>
            <path id="Trazado_775966" data-name="Trazado 775966" d="M431.068,335.484a7.371,7.371,0,0,0-6.839,11.845,7.372,7.372,0,0,0,6.839-11.845Z" transform="translate(-401.063 -318.871)" fill="#7a6d79"/>
          </g>
        </g>
        <g id="Grupo_1028923" data-name="Grupo 1028923" transform="translate(0 19.293)">
          <g id="Grupo_1028921" data-name="Grupo 1028921" transform="translate(0 24.906)">
            <path id="Trazado_775967" data-name="Trazado 775967" d="M65.266,260.563l6.41,11.1a6.037,6.037,0,0,0,8.247,2.21l10.734-6.2L78.21,246.118l-10.734,6.2a6.037,6.037,0,0,0-2.21,8.247Z" transform="translate(-59.083 -246.118)" fill="#7a6d79"/>
            <path id="Trazado_775968" data-name="Trazado 775968" d="M85.836,336.016a6.037,6.037,0,0,0,8.246,2.21l10.735-6.2,3.26,5.647-10.735,6.2a6.036,6.036,0,0,1-8.246-2.21Z" transform="translate(-76.503 -316.115)" fill="#685e68"/>
            <path id="Trazado_775969" data-name="Trazado 775969" d="M46.041,321.545a7.37,7.37,0,1,1,4.722,13.681c-.435-3.211-1.392-3.515-2.942-6.2s-.945-3.415-3.9-5.647a7.336,7.336,0,0,1,2.116-1.836Z" transform="translate(-42.355 -306.767)" fill="#ffdfcf"/>
            <path id="Trazado_775970" data-name="Trazado 775970" d="M37.018,335.484a7.371,7.371,0,0,1,6.839,11.845,7.372,7.372,0,0,1-6.839-11.845Z" transform="translate(-35.448 -318.871)" fill="#7a6d79"/>
          </g>
          <g id="Grupo_1028922" data-name="Grupo 1028922" transform="translate(50.129)">
            <path id="Trazado_775971" data-name="Trazado 775971" d="M325.058,114.678l6.41,11.1a6.037,6.037,0,0,1-2.21,8.247l-10.734,6.2-12.448-21.56,10.734-6.2A6.037,6.037,0,0,1,325.058,114.678Z" transform="translate(-306.077 -111.658)" fill="#ffca00"/>
            <path id="Trazado_775972" data-name="Trazado 775972" d="M368.622,157.419a6.036,6.036,0,0,1-2.21,8.246l-10.735,6.2,3.26,5.647,10.735-6.2a6.037,6.037,0,0,0,2.21-8.246Z" transform="translate(-346.49 -148.943)" fill="#f9a82c"/>
            <path id="Trazado_775973" data-name="Trazado 775973" d="M400.624,113.161a7.37,7.37,0,1,0,9.487,10.93c-2.563-1.983-2.348-2.963-3.9-5.647s-2.485-2.526-2.942-6.2A7.342,7.342,0,0,0,400.624,113.161Z" transform="translate(-380.106 -112.137)" fill="#ae6c6c"/>
            <path id="Trazado_775974" data-name="Trazado 775974" d="M424.229,111.925a7.371,7.371,0,0,0,6.839,11.845,7.372,7.372,0,0,0-6.839-11.845Z" transform="translate(-401.063 -111.816)" fill="#7a6d79"/>
          </g>
        </g>
        <circle id="Elipse_8763" data-name="Elipse 8763" cx="25.047" cy="25.047" r="25.047" transform="translate(15.805 20.983)" fill="#dc8758"/>
        <path id="Trazado_775975" data-name="Trazado 775975" d="M187.966,190.489l-4.141,9.822a1.193,1.193,0,0,1-1.563.636l-13.849-5.838a1.193,1.193,0,0,1-.636-1.563l4.141-9.822a1.193,1.193,0,0,1,1.563-.636l13.849,5.838A1.193,1.193,0,0,1,187.966,190.489Z" transform="translate(-143.189 -150.487)" fill="#d8ecfe"/>
        <path id="Trazado_775976" data-name="Trazado 775976" d="M268.631,213.52l-9.775,4.249a1.193,1.193,0,0,1-1.57-.619l-5.991-13.784a1.193,1.193,0,0,1,.619-1.57l9.775-4.249a1.193,1.193,0,0,1,1.57.619l5.991,13.784A1.193,1.193,0,0,1,268.631,213.52Z" transform="translate(-211.232 -162.264)" fill="#f5f8f9"/>
        <path id="Trazado_775977" data-name="Trazado 775977" d="M259.4,253.263l-9.775,4.249a1.193,1.193,0,0,1-1.57-.619l-5.991-13.784a1.193,1.193,0,0,1,.619-1.57l9.775-4.249a1.193,1.193,0,0,1,1.57.619l5.991,13.784A1.193,1.193,0,0,1,259.4,253.263Z" transform="translate(-203.709 -194.645)" fill="#f5f8f9"/>
        <path id="Trazado_775978" data-name="Trazado 775978" d="M147.974,170.3q-1.072.094-2.171.094a25.047,25.047,0,0,1,0-50.094q1.1,0,2.171.094a25.047,25.047,0,0,0,0,49.9Z" transform="translate(-104.954 -99.403)" fill="#c57a44"/>
        <g id="Grupo_1028924" data-name="Grupo 1028924" transform="translate(43.07 60.507)">
          <path id="Trazado_775979" data-name="Trazado 775979" d="M277.463,348.1l2.193,2.193v7.424h6.277v-8.858a2.825,2.825,0,0,0-.828-2l-3.2-3.2L278.747,345Z" transform="translate(-275.704 -341.896)" fill="#2d54fe"/>
          <path id="Trazado_775980" data-name="Trazado 775980" d="M268.884,339.515l.841.841,4.44-4.44-.841-.841a3.14,3.14,0,0,0-4.44,4.44Z" transform="translate(-267.966 -334.156)" fill="#ffdfcf"/>
        </g>
        <g id="Grupo_1028925" data-name="Grupo 1028925" transform="translate(50.291 20.103)">
          <path id="Trazado_775981" data-name="Trazado 775981" d="M322.82,121.467l-6.429,3.712-.727,2.71-2.475,1.067a1.286,1.286,0,1,1-2.51-.556l-1.079-2.137,1.1-4.089a2.823,2.823,0,0,1,1.315-1.714l7.67-4.429" transform="translate(-309.11 -116.031)" fill="#ffca00"/>
          <path id="Trazado_775982" data-name="Trazado 775982" d="M310.094,176.657a3.18,3.18,0,0,1-.815-.107,3.141,3.141,0,0,1-2.219-3.844l.383-1.436,6.064,1.626-.383,1.434A3.139,3.139,0,0,1,310.094,176.657Z" transform="translate(-306.953 -161.038)" fill="#ffca00"/>
        </g>
        <g id="Grupo_1028926" data-name="Grupo 1028926" transform="translate(8.393 45.59)">
          <path id="Trazado_775983" data-name="Trazado 775983" d="M83.9,263.869l6.429-3.712,2.708.725s2.988-.656,3.437-2.33-1.811-3.734-1.811-3.734l-4.09-1.1a2.823,2.823,0,0,0-2.142.282l-7.67,4.429Z" transform="translate(-80.758 -253.626)" fill="#7a6d79"/>
          <path id="Trazado_775984" data-name="Trazado 775984" d="M152.421,263.48a3.18,3.18,0,0,1-.107.815,3.141,3.141,0,0,1-3.844,2.219l-1.436-.383,1.626-6.064,1.434.383A3.139,3.139,0,0,1,152.421,263.48Z" transform="translate(-134.758 -258.873)" fill="#ffdfcf"/>
        </g>
        <g id="Grupo_1028927" data-name="Grupo 1028927" transform="translate(28.403 60.509)">
          <path id="Trazado_775985" data-name="Trazado 775985" d="M197.257,348.1l-2.193,2.193v7.424h-6.277v-8.858a2.826,2.826,0,0,1,.828-2l3.2-3.2,3.156,1.34Z" transform="translate(-188.786 -341.905)" fill="#1239e2"/>
          <path id="Trazado_775986" data-name="Trazado 775986" d="M215.828,339.524l-.841.841-4.44-4.44.841-.841a3.14,3.14,0,0,1,4.44,4.44Z" transform="translate(-206.516 -334.165)" fill="#ffdfcf"/>
        </g>
      </g>
      <path id="Trazado_775987" data-name="Trazado 775987" d="M108.061,59.162A8.784,8.784,0,0,0,106.9,58.6a7.387,7.387,0,0,0-3.544-8.018l-5.481-3.164,5.481-3.164a7.386,7.386,0,0,0,3.544-8.019,8.751,8.751,0,0,0,5.515-8.847,1.389,1.389,0,0,0-2.77.22,6,6,0,0,1-.933,3.7,5.976,5.976,0,0,1-5.306-9.191,6,6,0,0,1,3.674,1.045,1.389,1.389,0,1,0,1.577-2.288,8.776,8.776,0,0,0-10.424.349,7.387,7.387,0,0,0-8.714-.938l-5.467,3.157-.013.008V17.125a7.387,7.387,0,0,0-5.172-7.078,8.76,8.76,0,1,0-17.33,0,7.387,7.387,0,0,0-5.172,7.078v6.329l-5.481-3.164a7.387,7.387,0,0,0-8.716.94A8.761,8.761,0,1,0,33.5,36.235a7.387,7.387,0,0,0,3.543,8.02l5.481,3.164-5.481,3.164A7.387,7.387,0,0,0,33.5,58.6a8.76,8.76,0,1,0,8.666,15.008,7.383,7.383,0,0,0,8.715.94l5.481-3.164v3.087a1.389,1.389,0,0,0,2.778,0V68.856a1.45,1.45,0,0,1,.419-1.015l2.22-2.22L64.259,68.1l-1.21,1.21a1.389,1.389,0,0,0-.407.982v4.942a1.389,1.389,0,1,0,2.778,0v-1.81a26.56,26.56,0,0,0,9.562,0v1.81a1.389,1.389,0,0,0,2.778,0V70.289a1.389,1.389,0,0,0-.407-.982L76.143,68.1l2.475-2.475,2.221,2.221a1.425,1.425,0,0,1,.42,1.014v8.857h0a4.622,4.622,0,0,1-3.235,4.429,8.754,8.754,0,0,0-15.645,0,4.666,4.666,0,0,1-2.567-2.022,1.389,1.389,0,0,0-2.378,1.438,7.455,7.455,0,0,0,4.1,3.23,8.76,8.76,0,1,0,17.329.006,7.387,7.387,0,0,0,5.172-7.078V71.385l5.481,3.164a7.383,7.383,0,0,0,8.715-.94,8.792,8.792,0,0,0,1.067.726,8.76,8.76,0,1,0,8.76-15.174ZM70.2,80.1a5.991,5.991,0,0,1,5.9,5,8.788,8.788,0,0,0-11.8,0A5.991,5.991,0,0,1,70.2,80.1Zm0,11.964a5.986,5.986,0,0,1-5.309-3.231,5.977,5.977,0,0,1,10.618,0A5.986,5.986,0,0,1,70.2,92.06ZM99.879,23.471a8.781,8.781,0,0,0,5.906,10.218,5.982,5.982,0,0,1-5.906-10.218Zm-3.523-.191A8.772,8.772,0,0,0,103.7,36.854c.164,0,.328-.007.491-.016a4.622,4.622,0,0,1-2.22,5.011l-5.44,3.141a26.255,26.255,0,0,0-6.2-14.711l1.707-.985a1.389,1.389,0,0,0-1.389-2.406l-4.419,2.551a1.389,1.389,0,0,0-.647.843l-.367,1.368-3.381-.906L82.569,28a1.425,1.425,0,0,1,.668-.871l7.67-4.429h0a4.621,4.621,0,0,1,5.448.585ZM74.321,63.8a1.748,1.748,0,0,1,2.323-.134l-2.457,2.457a1.752,1.752,0,0,1,.134-2.323Zm3.969-2.374a4.493,4.493,0,0,0-2.732-.917h0a4.527,4.527,0,0,0-1.586.286L69.053,49.479l9.416-4.091,5.836,13.424ZM67.764,47.009a2.588,2.588,0,0,0-1.55,2.4l-10.92-4.6,3.988-9.462,10.2,4.3,0,0a2.587,2.587,0,0,0-1.338,3.4l1.389,3.2Zm13.176-2.9a2.579,2.579,0,0,0-3.4-1.343l-5.467,2.375-1.312-3.018,9.416-4.093,5.834,13.425-1.582.687Zm1.386-8.442a1.75,1.75,0,0,1-1.238-2.143l.024-.091,3.381.906-.024.092a1.752,1.752,0,0,1-2.143,1.237ZM70.2,2.778A5.986,5.986,0,0,1,75.51,6.009a5.977,5.977,0,0,1-10.618,0A5.986,5.986,0,0,1,70.2,2.778Zm5.9,6.967a5.981,5.981,0,0,1-11.8,0,8.788,8.788,0,0,0,11.8,0Zm-13.723,2.95a8.754,8.754,0,0,0,15.646,0,4.622,4.622,0,0,1,3.235,4.43V23.4a26.529,26.529,0,0,0-22.117-.013V17.125A4.622,4.622,0,0,1,62.378,12.695ZM41.9,31.081a5.991,5.991,0,0,1-7.283,2.608,8.781,8.781,0,0,0,5.9-10.216A5.99,5.99,0,0,1,41.9,31.081ZM31.541,25.1a5.986,5.986,0,0,1,5.191-2.99c.087,0,.175,0,.263.008a5.977,5.977,0,0,1-5.314,9.194,5.992,5.992,0,0,1-.139-6.213Zm0,44.641a5.991,5.991,0,0,1,.139-6.213,5.977,5.977,0,0,1,5.314,9.2A5.987,5.987,0,0,1,31.541,69.739Zm8.983,1.626a8.788,8.788,0,0,0-5.9-10.217,5.98,5.98,0,0,1,5.9,10.217Zm8.97.778a4.62,4.62,0,0,1-5.452-.589,8.754,8.754,0,0,0-7.825-13.548,4.622,4.622,0,0,1,2.219-5.016h0l7.671-4.429a1.425,1.425,0,0,1,1.088-.143l2.748.736-.906,3.381-1.368-.366a1.389,1.389,0,0,0-1.054.139l-4.081,2.356a1.389,1.389,0,1,0,1.389,2.406l1.366-.789A26.736,26.736,0,0,0,54.937,69ZM52.719,49.9a1.75,1.75,0,0,1-.905,3.381l-.092-.024.906-3.381ZM66.214,66.123l-2.458-2.458a1.749,1.749,0,0,1,2.458,2.458Zm-.565,4.514,2.4-2.4a4.529,4.529,0,0,0-6.4-6.4L57.6,65.879a4.21,4.21,0,0,0-.764,1.057,23.914,23.914,0,0,1-9.017-11.851l3.28.878a4.528,4.528,0,0,0,2.343-8.748l-5.524-1.48a4.214,4.214,0,0,0-1.3-.138,23.619,23.619,0,0,1,3.047-9.926,1.389,1.389,0,1,0-2.41-1.382,26.4,26.4,0,0,0-3.375,10.7l-5.442-3.142a4.622,4.622,0,0,1-2.219-5.016c.163.009.327.016.49.016a8.756,8.756,0,0,0,7.335-13.564,4.62,4.62,0,0,1,5.452-.589l5.434,3.137a26.8,26.8,0,0,0-3.587,3.061,1.389,1.389,0,1,0,1.982,1.948A23.662,23.662,0,0,1,80.417,26.08a4.223,4.223,0,0,0-.532,1.2L78.405,32.8a4.493,4.493,0,0,0,.183,2.887L73,38.115,60.18,32.709A2.587,2.587,0,0,0,56.8,34.085l-4.14,9.824a2.589,2.589,0,0,0,1.376,3.382l13.516,5.7,4.185,9.626a4.534,4.534,0,0,0,.621,5.622l2.4,2.4A24.01,24.01,0,0,1,65.649,70.637Zm14.8-7.119,5.148-2.236a2.586,2.586,0,0,0,1.338-3.4l-1.391-3.2L87.3,53.92a2.581,2.581,0,0,0,1.341-3.4L83.4,38.454a4.533,4.533,0,0,0,3.756-3.31l.878-3.276a23.657,23.657,0,0,1-4.458,35.065,4.217,4.217,0,0,0-.769-1.056Zm10.464,8.626L85.467,69A26.541,26.541,0,0,0,96.523,49.847l5.444,3.143a4.622,4.622,0,0,1,2.219,5.016A8.754,8.754,0,0,0,96.36,71.554,4.62,4.62,0,0,1,90.908,72.143ZM98.5,63.758a5.977,5.977,0,0,1,7.275-2.61,8.788,8.788,0,0,0-5.9,10.217A5.991,5.991,0,0,1,98.5,63.758Zm10.361,5.982a5.987,5.987,0,0,1-5.453,2.982,5.977,5.977,0,0,1,5.314-9.2,5.992,5.992,0,0,1,.139,6.213Z"/>
    </g>
  </g>
</svg>
