<svg xmlns="http://www.w3.org/2000/svg" xmlns:xlink="http://www.w3.org/1999/xlink" width="89" height="89" viewBox="0 0 89 89">
  <defs>
    <clipPath id="clip-path">
      <rect id="Rectángulo_361662" data-name="Rectángulo 361662" width="89" height="89" transform="translate(1106 929)" fill="none"/>
    </clipPath>
  </defs>
  <g id="Enmascarar_grupo_998590" data-name="Enmascarar grupo 998590" transform="translate(-1106 -929)" clip-path="url(#clip-path)">
    <g id="Artboard51" transform="translate(1094.935 898.049)">
      <g id="Grupo_1078598" data-name="Grupo 1078598" transform="translate(14.285 37.536)">
        <g id="Grupo_1078597" data-name="Grupo 1078597" transform="translate(1.345 1.235)">
          <g id="Grupo_1078590" data-name="Grupo 1078590" transform="translate(0 25.498)">
            <g id="Grupo_1078586" data-name="Grupo 1078586" transform="translate(26.412 8.325)">
              <path id="Trazado_824112" data-name="Trazado 824112" d="M187.08,243.684a1.715,1.715,0,0,0-1.715-1.715h-7.511a1.715,1.715,0,0,0-1.715,1.715v31.6A1.715,1.715,0,0,0,177.855,277h7.511a1.715,1.715,0,0,0,1.715-1.715Z" transform="translate(-176.14 -241.969)" fill="#ffca00" fill-rule="evenodd"/>
              <path id="Trazado_824113" data-name="Trazado 824113" d="M218.936,277a1.715,1.715,0,0,0,1.715-1.715v-31.6a1.715,1.715,0,0,0-1.715-1.715h1.886a1.715,1.715,0,0,1,1.715,1.715v31.6A1.715,1.715,0,0,1,220.822,277Z" transform="translate(-211.597 -241.969)" fill="#ffca00" fill-rule="evenodd"/>
            </g>
            <g id="Grupo_1078587" data-name="Grupo 1078587" transform="translate(6.106 17.579)">
              <path id="Trazado_824114" data-name="Trazado 824114" d="M68.671,297.643a1.715,1.715,0,0,0-1.715-1.715H59.45a1.715,1.715,0,0,0-1.715,1.715v22.349a1.715,1.715,0,0,0,1.715,1.715h7.506a1.715,1.715,0,0,0,1.715-1.715Z" transform="translate(-57.735 -295.928)" fill="#fe502d" fill-rule="evenodd"/>
              <path id="Trazado_824115" data-name="Trazado 824115" d="M100.5,321.707a1.715,1.715,0,0,0,1.715-1.715V297.643a1.715,1.715,0,0,0-1.715-1.715h1.886a1.715,1.715,0,0,1,1.715,1.715v22.349a1.715,1.715,0,0,1-1.715,1.715Z" transform="translate(-93.17 -295.928)" fill="#fd4755" fill-rule="evenodd"/>
            </g>
            <g id="Grupo_1078588" data-name="Grupo 1078588" transform="translate(46.722)">
              <path id="Trazado_824116" data-name="Trazado 824116" d="M294.572,195.137a1.715,1.715,0,0,1,1.715-1.715h7.506a1.715,1.715,0,0,1,1.715,1.715v39.928a1.715,1.715,0,0,1-1.715,1.715h-7.506a1.715,1.715,0,0,1-1.715-1.715Z" transform="translate(-294.572 -193.422)" fill="#2d54fe" fill-rule="evenodd"/>
              <path id="Trazado_824117" data-name="Trazado 824117" d="M337.34,193.422h1.886a1.715,1.715,0,0,1,1.715,1.715v39.928a1.715,1.715,0,0,1-1.715,1.715H337.34a1.715,1.715,0,0,0,1.715-1.715V195.137A1.715,1.715,0,0,0,337.34,193.422Z" transform="translate(-330.006 -193.422)" fill="#2d54fe" fill-rule="evenodd"/>
            </g>
            <g id="Grupo_1078589" data-name="Grupo 1078589" transform="translate(0 42.211)">
              <path id="Trazado_824118" data-name="Trazado 824118" d="M22.128,442.5a1.2,1.2,0,0,0,1.2,1.2H84.691a1.2,1.2,0,0,0,1.2-1.2v-1.732a1.2,1.2,0,0,0-1.2-1.2H23.328a1.2,1.2,0,0,0-1.2,1.2Z" transform="translate(-22.128 -439.564)" fill="#a79ba7" fill-rule="evenodd"/>
              <path id="Trazado_824119" data-name="Trazado 824119" d="M22.128,451.614H85.892v.866a1.2,1.2,0,0,1-1.2,1.2H23.328a1.2,1.2,0,0,1-1.2-1.2Z" transform="translate(-22.128 -449.548)" fill="#837683" fill-rule="evenodd"/>
            </g>
          </g>
          <g id="Grupo_1078594" data-name="Grupo 1078594" transform="translate(41.76 21.168)">
            <g id="Grupo_1078591" data-name="Grupo 1078591" transform="translate(22.169 27.177)">
              <path id="Trazado_824120" data-name="Trazado 824120" d="M398.259,326.645l4.487,7.512-3.418,2.042L394.91,328.8A15.8,15.8,0,0,0,398.259,326.645Z" transform="translate(-394.91 -326.645)" fill="#a79ba7" fill-rule="evenodd"/>
              <path id="Trazado_824121" data-name="Trazado 824121" d="M408.707,327.407q.507-.362.983-.762l4.487,7.512-1.061.633Z" transform="translate(-406.341 -326.645)" fill="#837683" fill-rule="evenodd"/>
            </g>
            <g id="Grupo_1078592" data-name="Grupo 1078592">
              <path id="Trazado_824122" data-name="Trazado 824122" d="M281.424,168.172a15.785,15.785,0,1,1-15.784,15.785A15.783,15.783,0,0,1,281.424,168.172Z" transform="translate(-265.64 -168.172)" fill="#a79ba7" fill-rule="evenodd"/>
              <path id="Trazado_824123" data-name="Trazado 824123" d="M352.683,168.195q.426-.023.857-.023a15.785,15.785,0,0,1,0,31.569q-.432,0-.857-.023a15.785,15.785,0,0,0,0-31.523Z" transform="translate(-337.756 -168.172)" fill="#837683" fill-rule="evenodd"/>
            </g>
            <g id="Grupo_1078593" data-name="Grupo 1078593" transform="translate(25.135 33.461)">
              <path id="Trazado_824124" data-name="Trazado 824124" d="M420.575,378.63l3.857-2.3a1.438,1.438,0,0,0,.5-1.967l-6.2-10.37a1.442,1.442,0,0,0-1.968-.495l-3.857,2.3a1.434,1.434,0,0,0-.495,1.968l6.192,10.369A1.442,1.442,0,0,0,420.575,378.63Z" transform="translate(-412.211 -363.293)" fill="#f1ba84" fill-rule="evenodd"/>
              <path id="Trazado_824125" data-name="Trazado 824125" d="M437.747,378.749l2.907-1.737a1.437,1.437,0,0,0,.5-1.967l-6.2-10.37a1.444,1.444,0,0,0-1.717-.614l.95-.567a1.442,1.442,0,0,1,1.968.495l6.2,10.37a1.438,1.438,0,0,1-.5,1.967L438,378.63a1.425,1.425,0,0,1-.251.119Z" transform="translate(-429.634 -363.293)" fill="#e3a76f" fill-rule="evenodd"/>
            </g>
          </g>
          <g id="Grupo_1078595" data-name="Grupo 1078595" transform="translate(46.383 25.786)">
            <path id="Trazado_824126" data-name="Trazado 824126" d="M303.763,217.428A11.164,11.164,0,1,0,292.6,206.264,11.185,11.185,0,0,0,303.763,217.428Z" transform="translate(-292.597 -195.1)" fill="#ffc338" fill-rule="evenodd"/>
            <path id="Trazado_824127" data-name="Trazado 824127" d="M293.93,206.264a11.165,11.165,0,0,1,10.5-11.145c-.219-.012-.442-.019-.665-.019a11.164,11.164,0,1,0,0,22.328c.223,0,.445-.007.665-.019A11.165,11.165,0,0,1,293.93,206.264Z" transform="translate(-292.597 -195.1)" fill="#f5b829" fill-rule="evenodd"/>
          </g>
          <g id="Grupo_1078596" data-name="Grupo 1078596" transform="translate(9.828)">
            <path id="Trazado_824128" data-name="Trazado 824128" d="M120.958,54.83a39.031,39.031,0,0,1-14.235,13.336c-9.164,5.114-19.187,6.29-27.286,3.957a37.512,37.512,0,0,0,19.137-5.1A51.784,51.784,0,0,0,115.351,51.07L112.2,48.96a.382.382,0,0,1-.17-.382.376.376,0,0,1,.27-.32l10.826-3.5a.379.379,0,0,1,.34.046.385.385,0,0,1,.177.293l.96,11.408a.391.391,0,0,1-.2.374.387.387,0,0,1-.42-.011Z" transform="translate(-79.437 -44.735)" fill="#2d54fe" fill-rule="evenodd"/>
            <path id="Trazado_824129" data-name="Trazado 824129" d="M120.958,54.83a39.031,39.031,0,0,1-14.235,13.336c-9.164,5.114-19.187,6.29-27.286,3.957.093,0,.185,0,.278,0h.135c7.609,1.462,17.594-.532,24.8-4.555A37.565,37.565,0,0,0,119.173,53.8Zm.675-9.592.895,10.648,1.462.98a.387.387,0,0,0,.42.011.391.391,0,0,0,.2-.374l-.96-11.408a.385.385,0,0,0-.177-.293.379.379,0,0,0-.34-.046Z" transform="translate(-79.437 -44.735)" fill="#0a27a9" fill-rule="evenodd"/>
          </g>
        </g>
        <path id="Trazado_824130" data-name="Trazado 824130" d="M74.686,105.246h4.735a1.372,1.372,0,0,1,1.372,1.372v4.133a1.372,1.372,0,0,1-1.372,1.372H15.657a1.372,1.372,0,0,1-1.372-1.372v-4.133a1.372,1.372,0,0,1,1.372-1.372h4.734V81.985a1.372,1.372,0,0,1,1.372-1.372H32.7a1.372,1.372,0,0,1,1.372,1.372v23.26H40.7V72.732a1.372,1.372,0,0,1,1.372-1.372H53.009a1.372,1.372,0,0,1,1.372,1.372v32.514h6.626V87.933a17.155,17.155,0,1,1,24.1.283l2.373,3.974a2.823,2.823,0,0,1,2.772,1.339h0l6.2,10.369a2.812,2.812,0,0,1-.971,3.849h0l-3.855,2.3h0a2.817,2.817,0,0,1-3.846-.963l0-.006L81.58,98.716a2.811,2.811,0,0,1,.127-3.079L79.44,91.844a17.116,17.116,0,0,1-4.754,1.113Zm-51.551,0h8.192V83.357H23.135Zm20.305,0h8.2V74.1h-8.2Zm20.31,0h8.192V92.974a17.285,17.285,0,0,1-8.192-2.789ZM82.961,89.972q-.51.352-1.044.667l2.027,3.392,1.063-.635ZM17.029,109.378h61.02v-1.389H17.029Zm59.9-47.439A14.413,14.413,0,1,0,87.123,79.591,14.411,14.411,0,0,0,76.932,61.939Zm-.486,1.815a12.534,12.534,0,1,1-15.35,8.863A12.533,12.533,0,0,1,76.445,63.754Zm-.71,2.65a9.79,9.79,0,1,0,6.922,11.99A9.79,9.79,0,0,0,75.735,66.4Zm-3.906,3.314v-.26a1.372,1.372,0,0,1,2.744,0v.246a4.344,4.344,0,0,1,2.87,2.55,1.372,1.372,0,1,1-2.529,1.063,1.878,1.878,0,0,0-2.472-.912,1.059,1.059,0,0,0-.778,1.008.847.847,0,0,0,.572.714,4.376,4.376,0,0,0,1.2.344c1.96.321,4.074,1.26,4.359,3.59v0c.265,2.194-1.38,3.54-3.218,3.98v.219a1.372,1.372,0,1,1-2.744,0v-.239a4.3,4.3,0,0,1-3.2-3.111,1.372,1.372,0,1,1,2.663-.663A1.859,1.859,0,0,0,73.3,79.458a3.011,3.011,0,0,0,1.227-.278.777.777,0,0,0,.54-.787,1.1,1.1,0,0,0-.746-.852,5.353,5.353,0,0,0-1.332-.362h0c-1.932-.318-3.952-1.335-4.064-3.632h0a3.715,3.715,0,0,1,2.513-3.693q.192-.076.392-.135ZM90.213,107.7l3.856-2.3a.063.063,0,0,0,.026-.084h0l-6.2-10.37a.063.063,0,0,0-.086-.022h0l-3.857,2.3,0,0a.058.058,0,0,0-.021.079l0,.006,6.19,10.366a.066.066,0,0,0,.087.024ZM67.594,51.177A41.642,41.642,0,0,1,53.038,63.636h0c-9.871,5.2-20.674,6.375-29.4,4a1.372,1.372,0,0,1,.371-2.7,39.534,39.534,0,0,0,19.265-4.859A52.116,52.116,0,0,0,59.439,46.008l-2.775-1.757a1.372,1.372,0,0,1,.29-2.457L69.186,37.61a1.372,1.372,0,0,1,1.807,1.144l1.449,12.853a1.372,1.372,0,0,1-2.1,1.313Zm.35-3.027,1.451.919-.937-8.311-7.908,2.7,1.559.987a1.372,1.372,0,0,1,.417,1.907c-3.839,5.905-11.441,12.71-17.971,16.152a46.715,46.715,0,0,1-8.1,3.377,41.933,41.933,0,0,0,15.3-4.677,38.432,38.432,0,0,0,14.3-12.652,1.372,1.372,0,0,1,1.882-.407Z" transform="translate(-14.285 -37.536)" fill-rule="evenodd"/>
      </g>
    </g>
  </g>
</svg>
