<svg xmlns="http://www.w3.org/2000/svg" xmlns:xlink="http://www.w3.org/1999/xlink" width="525" height="412.191" viewBox="0 0 525 412.191">
  <defs>
    <clipPath id="clip-path">
      <rect id="Rectángulo_381538" data-name="Rectángulo 381538" width="447.966" height="412.191" fill="none"/>
    </clipPath>
    <clipPath id="clip-path-3">
      <rect id="Rectángulo_381386" data-name="Rectángulo 381386" width="439.856" height="405.448" fill="none"/>
    </clipPath>
    <clipPath id="clip-path-6">
      <path id="Trazado_832827" data-name="Trazado 832827" d="M212.2,322.508a18.366,18.366,0,1,0,5.315-.783,18.318,18.318,0,0,0-5.315.783" fill="none"/>
    </clipPath>
    <clipPath id="clip-path-7">
      <rect id="Rectángulo_381393" data-name="Rectángulo 381393" width="31.005" height="31.005" transform="translate(201.987 324.646)" fill="#fff"/>
    </clipPath>
    <clipPath id="clip-path-9">
      <rect id="Rectángulo_381395" data-name="Rectángulo 381395" width="13.288" height="24.06" transform="translate(199.063 322.508)" fill="none"/>
    </clipPath>
    <clipPath id="clip-path-12">
      <rect id="Rectángulo_381397" data-name="Rectángulo 381397" width="31.002" height="31.002" transform="translate(175.681 309.145)" fill="none"/>
    </clipPath>
    <clipPath id="clip-path-13">
      <rect id="Rectángulo_381396" data-name="Rectángulo 381396" width="31.002" height="31.002" transform="translate(175.681 309.145)" fill="#fff"/>
    </clipPath>
    <clipPath id="clip-path-14">
      <rect id="Rectángulo_381399" data-name="Rectángulo 381399" width="31.002" height="31.002" transform="translate(263.595 314.693)" fill="none"/>
    </clipPath>
    <clipPath id="clip-path-15">
      <rect id="Rectángulo_381398" data-name="Rectángulo 381398" width="31.002" height="31.002" transform="translate(263.595 314.693)" fill="#fff"/>
    </clipPath>
    <clipPath id="clip-path-17">
      <rect id="Rectángulo_381402" data-name="Rectángulo 381402" width="102.987" height="143.108" transform="translate(265.194 250.092)" fill="none"/>
    </clipPath>
    <clipPath id="clip-path-19">
      <path id="Trazado_832847" data-name="Trazado 832847" d="M242.922,120.038l-13.41,130.9,15.13,1.55,23.629,2.42,121.441,12.441,8.689-84.821,14.13-137.88-160.2-16.41Z" fill="none"/>
    </clipPath>
    <clipPath id="clip-path-20">
      <path id="Trazado_832849" data-name="Trazado 832849" d="M264.5,103.506A29.294,29.294,0,1,0,296.63,77.351a29.635,29.635,0,0,0-3.021-.155,29.3,29.3,0,0,0-29.107,26.31" fill="none"/>
    </clipPath>
    <clipPath id="clip-path-21">
      <rect id="Rectángulo_381406" data-name="Rectángulo 381406" width="58.593" height="58.593" transform="translate(264.347 77.196)" fill="none"/>
    </clipPath>
    <clipPath id="clip-path-23">
      <rect id="Rectángulo_381505" data-name="Rectángulo 381505" width="168.89" height="147.31" transform="translate(229.511 120.038)" fill="none"/>
    </clipPath>
    <clipPath id="clip-path-26">
      <rect id="Rectángulo_381506" data-name="Rectángulo 381506" width="26.012" height="64.95" transform="translate(332.342 155.409)" fill="#2d54fe"/>
    </clipPath>
    <clipPath id="clip-path-27">
      <rect id="Rectángulo_381507" data-name="Rectángulo 381507" width="20.293" height="66.958" transform="translate(359.668 151.545)" fill="#2d54fe"/>
    </clipPath>
    <clipPath id="clip-path-28">
      <rect id="Rectángulo_381508" data-name="Rectángulo 381508" width="0.814" height="1.304" transform="translate(382.946 164.714)" fill="none"/>
    </clipPath>
    <clipPath id="clip-path-29">
      <rect id="Rectángulo_381509" data-name="Rectángulo 381509" width="7.53" height="60.014" transform="translate(380.065 163.018)" fill="#2d54fe"/>
    </clipPath>
    <clipPath id="clip-path-30">
      <rect id="Rectángulo_381510" data-name="Rectángulo 381510" width="49.065" height="91.166" transform="translate(272.988 203.156)" fill="#2d54fe"/>
    </clipPath>
    <clipPath id="clip-path-31">
      <rect id="Rectángulo_381511" data-name="Rectángulo 381511" width="38.751" height="121.408" transform="translate(363.84 229.857)" fill="#2d54fe"/>
    </clipPath>
    <clipPath id="clip-path-32">
      <rect id="Rectángulo_381512" data-name="Rectángulo 381512" width="19.837" height="75.008" transform="translate(316.34 330.194)" fill="#2d54fe"/>
    </clipPath>
    <clipPath id="clip-path-33">
      <rect id="Rectángulo_381514" data-name="Rectángulo 381514" width="21.58" height="40.192" transform="translate(267.871 199.786)" fill="none"/>
    </clipPath>
    <clipPath id="clip-path-35">
      <path id="Trazado_832901" data-name="Trazado 832901" d="M368.085,153.889l-80.12,100.5L274.477,271.31l9.936,6.333,89.2-118.933,3.315-7.526a2.511,2.511,0,0,0-1.777-1.784Z" fill="none"/>
    </clipPath>
    <clipPath id="clip-path-36">
      <rect id="Rectángulo_381517" data-name="Rectángulo 381517" width="102.451" height="128.243" transform="translate(274.477 149.4)" fill="none"/>
    </clipPath>
    <clipPath id="clip-path-39">
      <path id="Trazado_832905" data-name="Trazado 832905" d="M295.907,262.31a24.235,24.235,0,0,0-5.152-4.944,19.226,19.226,0,0,0-4.937-2.622c-15.047,16.532-28.648,42.649-28.648,42.649a21.462,21.462,0,0,0,4.681,3.931c9.578-7.785,25.277-23.385,25.277-23.385l6.843-1.77c9.582-13.979,19.536-33.74,19.536-33.74l-.827-1.22Z" fill="none"/>
    </clipPath>
    <clipPath id="clip-path-40">
      <rect id="Rectángulo_381520" data-name="Rectángulo 381520" width="51.655" height="60.115" transform="translate(261.851 241.209)" fill="none"/>
    </clipPath>
    <clipPath id="clip-path-43">
      <rect id="Rectángulo_381521" data-name="Rectángulo 381521" width="30.325" height="41.369" transform="translate(300.916 152.229)" fill="#2d54fe"/>
    </clipPath>
    <clipPath id="clip-path-44">
      <rect id="Rectángulo_381522" data-name="Rectángulo 381522" width="8.687" height="48.839" transform="translate(313.367 203.156)" fill="none"/>
    </clipPath>
    <clipPath id="clip-path-46">
      <rect id="Rectángulo_381525" data-name="Rectángulo 381525" width="82.873" height="143.781" transform="translate(63.999 228.466)" fill="none"/>
    </clipPath>
    <clipPath id="clip-path-48">
      <path id="Trazado_832947" data-name="Trazado 832947" d="M38.041,79.609l60.7,144.229,26.139,62.11,13.87-5.84,134.56-56.63-86.84-206.34Z" fill="none"/>
    </clipPath>
    <clipPath id="clip-path-49">
      <rect id="Rectángulo_381532" data-name="Rectángulo 381532" width="40.387" height="108.627" transform="translate(98.741 177.321)" fill="none"/>
    </clipPath>
    <clipPath id="clip-path-52">
      <rect id="Rectángulo_381533" data-name="Rectángulo 381533" width="40.304" height="93.331" transform="translate(63.999 160.365)" fill="#2d54fe"/>
    </clipPath>
    <clipPath id="clip-path-53">
      <rect id="Rectángulo_381534" data-name="Rectángulo 381534" width="31.269" height="135.775" transform="translate(28.319 222.882)" fill="#2d54fe"/>
    </clipPath>
    <clipPath id="clip-path-54">
      <rect id="Rectángulo_381535" data-name="Rectángulo 381535" width="42.761" height="75.983" transform="translate(83.381 281.386)" fill="#2d54fe"/>
    </clipPath>
    <clipPath id="clip-path-55">
      <rect id="Rectángulo_381536" data-name="Rectángulo 381536" width="24.226" height="83.704" transform="translate(116.512 185.642)" fill="#2d54fe"/>
    </clipPath>
  </defs>
  <g id="Layer_1" data-name="Layer 1" transform="translate(0 23.5)">
    <g id="Grupo_1028645" data-name="Grupo 1028645">
      <rect id="Rectángulo_361346" data-name="Rectángulo 361346" width="525" height="380" fill="none"/>
      <g id="Grupo_1079162" data-name="Grupo 1079162" transform="translate(45 -23.5)">
        <g id="Grupo_1079161" data-name="Grupo 1079161" clip-path="url(#clip-path)">
          <g id="Grupo_1079022" data-name="Grupo 1079022">
            <g id="Grupo_1079021" data-name="Grupo 1079021" clip-path="url(#clip-path)">
              <path id="Trazado_832817" data-name="Trazado 832817" d="M237.751,36.111l-20.405,4.3a5.09,5.09,0,0,1-6.03-3.932l-4.3-20.4a5.09,5.09,0,0,1,3.933-6.03l20.4-4.3a5.09,5.09,0,0,1,6.03,3.931l4.3,20.4A5.09,5.09,0,0,1,237.751,36.111Z" fill="none" stroke="#263238" stroke-linecap="round" stroke-linejoin="round" stroke-width="1"/>
              <line id="Línea_4175" data-name="Línea 4175" x2="2.608" y2="12.383" transform="translate(223.047 16.885)" fill="none" stroke="#263238" stroke-linecap="round" stroke-linejoin="round" stroke-width="1"/>
              <line id="Línea_4176" data-name="Línea 4176" x1="12.383" y2="2.608" transform="translate(218.159 21.773)" fill="none" stroke="#263238" stroke-linecap="round" stroke-linejoin="round" stroke-width="1"/>
              <path id="Trazado_832818" data-name="Trazado 832818" d="M443.423,254.244l-20.4,4.3a5.089,5.089,0,0,1-6.03-3.932l-4.3-20.4a5.09,5.09,0,0,1,3.932-6.03l20.405-4.3a5.091,5.091,0,0,1,6.03,3.933l4.3,20.4A5.09,5.09,0,0,1,443.423,254.244Z" fill="none" stroke="#263238" stroke-linecap="round" stroke-linejoin="round" stroke-width="1"/>
              <line id="Línea_4177" data-name="Línea 4177" x1="6.912" y2="10.6" transform="translate(426.567 235.909)" fill="none" stroke="#263238" stroke-linecap="round" stroke-linejoin="round" stroke-width="1"/>
              <line id="Línea_4178" data-name="Línea 4178" x1="10.6" y1="6.912" transform="translate(424.723 237.753)" fill="none" stroke="#263238" stroke-linecap="round" stroke-linejoin="round" stroke-width="1"/>
              <path id="Rectángulo_381388" data-name="Rectángulo 381388" d="M5.09,0H25.942a5.091,5.091,0,0,1,5.091,5.091V25.943a5.09,5.09,0,0,1-5.09,5.09H5.091A5.091,5.091,0,0,1,0,25.942V5.09A5.09,5.09,0,0,1,5.09,0Z" transform="matrix(0.058, -0.998, 0.998, 0.058, 134.516, 385.078)" fill="none" stroke="#263238" stroke-linecap="round" stroke-linejoin="round" stroke-width="1"/>
              <line id="Línea_4179" data-name="Línea 4179" x1="12.633" y1="0.729" transform="translate(144.584 370.118)" fill="none" stroke="#263238" stroke-linecap="round" stroke-linejoin="round" stroke-width="1"/>
              <path id="Rectángulo_381389" data-name="Rectángulo 381389" d="M5.091,0H25.942a5.091,5.091,0,0,1,5.091,5.091V25.942a5.09,5.09,0,0,1-5.09,5.09H5.091A5.091,5.091,0,0,1,0,25.942V5.091A5.091,5.091,0,0,1,5.091,0Z" transform="translate(2.769 232.882) rotate(-71.672)" fill="none" stroke="#263238" stroke-linecap="round" stroke-linejoin="round" stroke-width="1"/>
              <line id="Línea_4180" data-name="Línea 4180" x1="15.832" y2="7.952" transform="translate(14.461 219.056)" fill="none" stroke="#263238" stroke-linecap="round" stroke-linejoin="round" stroke-width="1"/>
              <path id="Trazado_832819" data-name="Trazado 832819" d="M21.209,215.786a2.209,2.209,0,1,1-2.965-.982A2.208,2.208,0,0,1,21.209,215.786Z" fill="none" stroke="#263238" stroke-linecap="round" stroke-linejoin="round" stroke-width="1"/>
              <path id="Trazado_832820" data-name="Trazado 832820" d="M27.493,228.3a2.209,2.209,0,1,1-2.965-.982A2.208,2.208,0,0,1,27.493,228.3Z" fill="none" stroke="#263238" stroke-linecap="round" stroke-linejoin="round" stroke-width="1"/>
            </g>
          </g>
          <g id="Grupo_1079024" data-name="Grupo 1079024">
            <g id="Grupo_1079023" data-name="Grupo 1079023" clip-path="url(#clip-path)">
              <path id="Trazado_832821" data-name="Trazado 832821" d="M232.641,350.628a18.417,18.417,0,1,1-4.67-25.63,18.426,18.426,0,0,1,4.67,25.63" fill="#ffca00"/>
            </g>
          </g>
          <g id="Grupo_1079038" data-name="Grupo 1079038">
            <g id="Grupo_1079037" data-name="Grupo 1079037" clip-path="url(#clip-path-6)">
              <g id="Grupo_1079030" data-name="Grupo 1079030" opacity="0.3">
                <g id="Grupo_1079029" data-name="Grupo 1079029">
                  <g id="Grupo_1079028" data-name="Grupo 1079028" clip-path="url(#clip-path-7)">
                    <g id="Grupo_1079027" data-name="Grupo 1079027" opacity="0.7">
                      <g id="Grupo_1079026" data-name="Grupo 1079026">
                        <g id="Grupo_1079025" data-name="Grupo 1079025" clip-path="url(#clip-path-7)">
                          <path id="Trazado_832822" data-name="Trazado 832822" d="M230.24,348.964A15.5,15.5,0,1,1,226.3,327.4a15.5,15.5,0,0,1,3.936,21.566" fill="#fff"/>
                        </g>
                      </g>
                    </g>
                  </g>
                </g>
              </g>
              <path id="Trazado_832823" data-name="Trazado 832823" d="M230.24,348.964A15.5,15.5,0,1,1,226.3,327.4,15.5,15.5,0,0,1,230.24,348.964Z" fill="none" stroke="#263238" stroke-linecap="round" stroke-linejoin="round" stroke-width="1"/>
              <path id="Trazado_832824" data-name="Trazado 832824" d="M221.463,332.412l.744-1.076,1.861,1.287-.744,1.076c1.385,1.446,1.355,3.259,0,5.223l-.315.456-2.151-1.487.415-.6c.715-1.035.574-1.713-.15-2.213s-1.41-.395-2.125.64-.8,2.044-.115,4.321c.832,2.777.687,4.357-.457,6.012-1.358,1.965-3.079,2.64-4.921,1.855l-.729,1.055-1.861-1.287.729-1.055c-1.4-1.46-1.36-3.293,0-5.258l.687-.993,2.151,1.487-.786,1.138c-.715,1.034-.518,1.72.206,2.221s1.436.443,2.151-.592.816-2.064.115-4.321c-.846-2.756-.686-4.357.458-6.012,1.344-1.944,3.008-2.627,4.843-1.877" fill="#ffca00"/>
              <path id="Trazado_832825" data-name="Trazado 832825" d="M221.463,332.412l.744-1.076,1.861,1.287-.744,1.076c1.385,1.446,1.355,3.259,0,5.223l-.315.456-2.151-1.487.415-.6c.715-1.035.574-1.713-.15-2.213s-1.41-.395-2.125.64-.8,2.044-.115,4.321c.832,2.777.687,4.357-.457,6.012-1.358,1.965-3.079,2.64-4.921,1.855l-.729,1.055-1.861-1.287.729-1.055c-1.4-1.46-1.36-3.293,0-5.258l.687-.993,2.151,1.487-.786,1.138c-.715,1.034-.518,1.72.206,2.221s1.436.443,2.151-.592.816-2.064.115-4.321c-.846-2.756-.686-4.357.458-6.012C217.964,332.345,219.628,331.662,221.463,332.412Z" fill="none" stroke="#263238" stroke-linecap="round" stroke-linejoin="round" stroke-width="1"/>
              <g id="Grupo_1079036" data-name="Grupo 1079036" opacity="0.2">
                <g id="Grupo_1079035" data-name="Grupo 1079035">
                  <g id="Grupo_1079034" data-name="Grupo 1079034" clip-path="url(#clip-path-9)">
                    <g id="Grupo_1079033" data-name="Grupo 1079033" opacity="0.7">
                      <g id="Grupo_1079032" data-name="Grupo 1079032">
                        <g id="Grupo_1079031" data-name="Grupo 1079031" clip-path="url(#clip-path-9)">
                          <path id="Trazado_832826" data-name="Trazado 832826" d="M212.351,325.218a24.817,24.817,0,0,1-12.14,21.35,18.411,18.411,0,0,1,11.99-24.06,24.212,24.212,0,0,1,.15,2.71"/>
                        </g>
                      </g>
                    </g>
                  </g>
                </g>
              </g>
            </g>
          </g>
          <g id="Grupo_1079052" data-name="Grupo 1079052">
            <g id="Grupo_1079051" data-name="Grupo 1079051" clip-path="url(#clip-path)">
              <path id="Trazado_832828" data-name="Trazado 832828" d="M232.641,350.628a18.417,18.417,0,1,1-4.67-25.63A18.426,18.426,0,0,1,232.641,350.628Z" fill="none" stroke="#263238" stroke-linecap="round" stroke-linejoin="round" stroke-width="1"/>
              <path id="Trazado_832829" data-name="Trazado 832829" d="M209.607,324.646a18.425,18.425,0,1,1-18.425-18.425,18.425,18.425,0,0,1,18.425,18.425" fill="#ffca00"/>
              <circle id="Elipse_8777" data-name="Elipse 8777" cx="18.425" cy="18.425" r="18.425" transform="translate(172.757 306.221)" fill="none" stroke="#263238" stroke-linecap="round" stroke-linejoin="round" stroke-width="1"/>
              <g id="Grupo_1079044" data-name="Grupo 1079044" opacity="0.3">
                <g id="Grupo_1079043" data-name="Grupo 1079043">
                  <g id="Grupo_1079042" data-name="Grupo 1079042" clip-path="url(#clip-path-12)">
                    <g id="Grupo_1079041" data-name="Grupo 1079041" opacity="0.7">
                      <g id="Grupo_1079040" data-name="Grupo 1079040">
                        <g id="Grupo_1079039" data-name="Grupo 1079039" clip-path="url(#clip-path-13)">
                          <path id="Trazado_832830" data-name="Trazado 832830" d="M206.683,324.646a15.5,15.5,0,1,1-15.5-15.5,15.5,15.5,0,0,1,15.5,15.5" fill="#fff"/>
                        </g>
                      </g>
                    </g>
                  </g>
                </g>
              </g>
              <circle id="Elipse_8778" data-name="Elipse 8778" cx="15.501" cy="15.501" r="15.501" transform="translate(175.681 309.145)" fill="none" stroke="#263238" stroke-linecap="round" stroke-linejoin="round" stroke-width="1"/>
              <path id="Trazado_832831" data-name="Trazado 832831" d="M190.05,316.023v-1.308h2.263v1.308c1.961.4,2.967,1.91,2.967,4.3v.554h-2.615v-.729c0-1.257-.5-1.735-1.382-1.735s-1.384.478-1.384,1.735.5,2.137,2.363,3.62c2.264,1.811,3.043,3.193,3.043,5.205,0,2.389-1.031,3.922-2.992,4.324v1.283H190.05V333.3c-1.986-.4-2.992-1.935-2.992-4.324v-1.207h2.616v1.382c0,1.258.552,1.71,1.432,1.71s1.433-.452,1.433-1.71-.5-2.161-2.363-3.619c-2.263-1.786-3.042-3.193-3.042-5.206,0-2.363.98-3.871,2.916-4.3" fill="#ffca00"/>
              <path id="Trazado_832832" data-name="Trazado 832832" d="M190.05,316.023v-1.308h2.263v1.308c1.961.4,2.967,1.91,2.967,4.3v.554h-2.615v-.729c0-1.257-.5-1.735-1.382-1.735s-1.384.478-1.384,1.735.5,2.137,2.363,3.62c2.264,1.811,3.043,3.193,3.043,5.205,0,2.389-1.031,3.922-2.992,4.324v1.283H190.05V333.3c-1.986-.4-2.992-1.935-2.992-4.324v-1.207h2.616v1.382c0,1.258.552,1.71,1.432,1.71s1.433-.452,1.433-1.71-.5-2.161-2.363-3.619c-2.263-1.786-3.042-3.193-3.042-5.206C187.134,317.958,188.114,316.45,190.05,316.023Z" fill="none" stroke="#263238" stroke-linecap="round" stroke-linejoin="round" stroke-width="1"/>
              <path id="Trazado_832833" data-name="Trazado 832833" d="M292.6,317.655a18.425,18.425,0,1,1-26.039-.962,18.425,18.425,0,0,1,26.039.962" fill="#ffca00"/>
              <path id="Trazado_832834" data-name="Trazado 832834" d="M292.6,317.655a18.425,18.425,0,1,1-26.039-.962A18.425,18.425,0,0,1,292.6,317.655Z" fill="none" stroke="#263238" stroke-linecap="round" stroke-linejoin="round" stroke-width="1"/>
              <g id="Grupo_1079050" data-name="Grupo 1079050" opacity="0.3">
                <g id="Grupo_1079049" data-name="Grupo 1079049">
                  <g id="Grupo_1079048" data-name="Grupo 1079048" clip-path="url(#clip-path-14)">
                    <g id="Grupo_1079047" data-name="Grupo 1079047" opacity="0.7">
                      <g id="Grupo_1079046" data-name="Grupo 1079046">
                        <g id="Grupo_1079045" data-name="Grupo 1079045" clip-path="url(#clip-path-15)">
                          <path id="Trazado_832835" data-name="Trazado 832835" d="M290.454,319.645a15.5,15.5,0,1,1-21.907-.809,15.5,15.5,0,0,1,21.907.809" fill="#fff"/>
                        </g>
                      </g>
                    </g>
                  </g>
                </g>
              </g>
              <path id="Trazado_832836" data-name="Trazado 832836" d="M290.454,319.645a15.5,15.5,0,1,1-21.907-.809A15.5,15.5,0,0,1,290.454,319.645Z" fill="none" stroke="#263238" stroke-linecap="round" stroke-linejoin="round" stroke-width="1"/>
              <path id="Trazado_832837" data-name="Trazado 832837" d="M272.4,324.645l-.89-.958,1.658-1.54.89.958c1.711-1.04,3.474-.62,5.1,1.13l.377.406-1.917,1.78-.5-.534c-.856-.922-1.549-.93-2.193-.331s-.69,1.292.166,2.213,1.823,1.223,4.2,1.044c2.89-.214,4.4.269,5.772,1.743,1.625,1.75,1.913,3.576.749,5.2l.873.94-1.658,1.54-.873-.94c-1.729,1.057-3.509.618-5.134-1.132l-.822-.885,1.916-1.78.941,1.013c.856.922,1.569.877,2.213.278s.743-1.306-.113-2.228-1.84-1.242-4.2-1.044c-2.873.232-4.4-.27-5.771-1.744-1.609-1.731-1.917-3.5-.789-5.134" fill="#92e3a9"/>
              <path id="Trazado_832838" data-name="Trazado 832838" d="M272.4,324.645l-.89-.958,1.658-1.54.89.958c1.711-1.04,3.474-.62,5.1,1.13l.377.406-1.917,1.78-.5-.534c-.856-.922-1.549-.93-2.193-.331s-.69,1.292.166,2.213,1.823,1.223,4.2,1.044c2.89-.214,4.4.269,5.772,1.743,1.625,1.75,1.913,3.576.749,5.2l.873.94-1.658,1.54-.873-.94c-1.729,1.057-3.509.618-5.134-1.132l-.822-.885,1.916-1.78.941,1.013c.856.922,1.569.877,2.213.278s.743-1.306-.113-2.228-1.84-1.242-4.2-1.044c-2.873.232-4.4-.27-5.771-1.744C271.578,328.048,271.27,326.275,272.4,324.645Z" fill="#ffca00" stroke="#263238" stroke-linecap="round" stroke-linejoin="round" stroke-width="1"/>
            </g>
          </g>
          <g id="Grupo_1079060" data-name="Grupo 1079060">
            <g id="Grupo_1079059" data-name="Grupo 1079059" clip-path="url(#clip-path)">
              <g id="Grupo_1079058" data-name="Grupo 1079058" opacity="0.2">
                <g id="Grupo_1079057" data-name="Grupo 1079057">
                  <g id="Grupo_1079056" data-name="Grupo 1079056" clip-path="url(#clip-path-17)">
                    <g id="Grupo_1079055" data-name="Grupo 1079055" opacity="0.7">
                      <g id="Grupo_1079054" data-name="Grupo 1079054">
                        <g id="Grupo_1079053" data-name="Grupo 1079053" clip-path="url(#clip-path-17)">
                          <path id="Trazado_832839" data-name="Trazado 832839" d="M271.508,250.092s-.076,38.236,0,40.469,2.969,15.66,2.969,15.66l-9.283,17.115,7.993,6.443,15.55-15.286s13.242,8.18,15.663,19.878,16.827,20.219,31.778,52.618,32-72.5,32-72.5l-46.127-58.075Z"/>
                        </g>
                      </g>
                    </g>
                  </g>
                </g>
              </g>
            </g>
          </g>
          <path id="Trazado_832840" data-name="Trazado 832840" d="M412.531,44.648,398.4,182.528l-8.69,84.82-121.44-12.44-23.63-2.42-15.13-1.55,13.41-130.9,9.41-91.8Z" fill="#fff"/>
          <g id="Grupo_1079062" data-name="Grupo 1079062">
            <g id="Grupo_1079061" data-name="Grupo 1079061" clip-path="url(#clip-path-19)">
              <path id="Trazado_832841" data-name="Trazado 832841" d="M366,49.8,296.851,42.71a2.363,2.363,0,0,0-.482,4.7L365.522,54.5A2.363,2.363,0,0,0,366,49.8" fill="#263238"/>
              <path id="Trazado_832842" data-name="Trazado 832842" d="M347.726,57.684l-34.577-3.543a1.181,1.181,0,0,0-.241,2.35l34.577,3.543a1.181,1.181,0,1,0,.241-2.35" fill="#263238"/>
              <path id="Trazado_832843" data-name="Trazado 832843" d="M385.769,159.446l-112.237-11.5a1.181,1.181,0,1,0-.241,2.35l112.237,11.5a1.181,1.181,0,1,0,.241-2.35" fill="#263238"/>
              <path id="Trazado_832844" data-name="Trazado 832844" d="M384.9,167.9l-130.51-13.374a1.182,1.182,0,0,0-.241,2.351l130.51,13.373a1.181,1.181,0,1,0,.241-2.35" fill="#263238"/>
              <path id="Trazado_832845" data-name="Trazado 832845" d="M347.491,172.6l-93.964-9.629a1.182,1.182,0,0,0-.241,2.351l93.964,9.628a1.181,1.181,0,1,0,.241-2.35" fill="#263238"/>
              <path id="Trazado_832962" data-name="Trazado 832962" d="M0,0H37.464V132.257H0Z" transform="translate(248.239 209.363) rotate(-84.149)" fill="#bfdeff"/>
              <rect id="Rectángulo_381405" data-name="Rectángulo 381405" width="37.464" height="132.257" transform="translate(248.239 209.363) rotate(-84.149)" fill="none" stroke="#263238" stroke-miterlimit="10" stroke-width="1"/>
              <path id="Trazado_832846" data-name="Trazado 832846" d="M322.785,109.479A29.294,29.294,0,1,1,296.63,77.351a29.293,29.293,0,0,1,26.155,32.128" fill="#92e3a9"/>
            </g>
          </g>
          <g id="Grupo_1079067" data-name="Grupo 1079067">
            <g id="Grupo_1079066" data-name="Grupo 1079066" clip-path="url(#clip-path-20)">
              <g id="Grupo_1079065" data-name="Grupo 1079065" opacity="0.5">
                <g id="Grupo_1079064" data-name="Grupo 1079064">
                  <g id="Grupo_1079063" data-name="Grupo 1079063" clip-path="url(#clip-path-21)">
                    <path id="Trazado_832848" data-name="Trazado 832848" d="M322.785,109.479A29.294,29.294,0,1,1,296.63,77.351a29.293,29.293,0,0,1,26.155,32.128" fill="#fff"/>
                  </g>
                </g>
              </g>
            </g>
          </g>
          <g id="Grupo_1079075" data-name="Grupo 1079075">
            <g id="Grupo_1079074" data-name="Grupo 1079074" clip-path="url(#clip-path-19)">
              <path id="Trazado_832850" data-name="Trazado 832850" d="M322.785,109.479A29.294,29.294,0,1,1,296.63,77.351,29.293,29.293,0,0,1,322.785,109.479Z" fill="none" stroke="#263238" stroke-miterlimit="10" stroke-width="1"/>
              <path id="Trazado_832851" data-name="Trazado 832851" d="M294.484,106.395l24.36,12.256a27.988,27.988,0,0,0-3.222-29.464Z" fill="#fff"/>
              <path id="Trazado_832852" data-name="Trazado 832852" d="M294.646,105.079l20.4-16.605a27.93,27.93,0,0,0-11.392-8.115l-3.679,10.1Z" fill="#fe502d"/>
              <path id="Trazado_832853" data-name="Trazado 832853" d="M296.952,78.714l-2.474,24.142,8.307-22.808a28.022,28.022,0,0,0-5.833-1.334" fill="#ffca00"/>
              <path id="Trazado_832854" data-name="Trazado 832854" d="M293.214,106.178l2.824-27.558a27.968,27.968,0,0,0-28.051,39.016Z" fill="#2d54fe"/>
              <path id="Trazado_832855" data-name="Trazado 832855" d="M290.792,134.318a27.98,27.98,0,0,0,27.634-14.849L293.634,107l-25.273,11.479a27.96,27.96,0,0,0,22.431,15.843" fill="#fe502d"/>
              <path id="Trazado_832856" data-name="Trazado 832856" d="M340.174,92.058l-3.341-.342a.627.627,0,0,1-.559-.687l.343-3.341a.626.626,0,0,1,.687-.559l3.34.342a.626.626,0,0,1,.559.687l-.342,3.341a.626.626,0,0,1-.687.559" fill="#92e3a9"/>
              <path id="Trazado_832961" data-name="Trazado 832961" d="M.626,0H3.985a.626.626,0,0,1,.626.626V3.984a.626.626,0,0,1-.626.626H.626A.626.626,0,0,1,0,3.984V.626A.626.626,0,0,1,.626,0Z" transform="translate(336.211 91.652) rotate(-84.156)" fill="#fe502d" stroke="#263238" stroke-width="1"/>
              <path id="Trazado_832857" data-name="Trazado 832857" d="M387.069,93.919l-43.055-4.411a.53.53,0,1,1,.108-1.054l43.055,4.412a.529.529,0,1,1-.108,1.053" fill="#263238"/>
              <path id="Trazado_832858" data-name="Trazado 832858" d="M382.618,95.781,343.779,91.8a.53.53,0,0,1,.108-1.054l38.839,3.98a.53.53,0,0,1-.108,1.054" fill="#263238"/>
              <path id="Trazado_832859" data-name="Trazado 832859" d="M339.121,102.33l-3.341-.342a.627.627,0,0,1-.559-.687l.342-3.341a.627.627,0,0,1,.687-.559l3.341.342a.627.627,0,0,1,.559.687l-.342,3.341a.626.626,0,0,1-.687.559" fill="#757575"/>
              <path id="Rectángulo_381408" data-name="Rectángulo 381408" d="M.626,0H3.984a.627.627,0,0,1,.627.627V3.985a.626.626,0,0,1-.626.626H.626A.626.626,0,0,1,0,3.985V.626A.626.626,0,0,1,.626,0Z" transform="translate(335.157 101.925) rotate(-84.156)" fill="none" stroke="#263238" stroke-linecap="round" stroke-linejoin="round" stroke-width="1"/>
              <path id="Trazado_832860" data-name="Trazado 832860" d="M386.017,104.192,342.962,99.78a.53.53,0,0,1,.108-1.054l43.055,4.412a.53.53,0,0,1-.108,1.054" fill="#263238"/>
              <path id="Trazado_832861" data-name="Trazado 832861" d="M381.566,106.053l-38.839-3.979a.53.53,0,0,1,.108-1.054L381.674,105a.529.529,0,1,1-.108,1.053" fill="#263238"/>
              <path id="Trazado_832862" data-name="Trazado 832862" d="M338.069,112.6l-3.341-.342a.627.627,0,0,1-.56-.687l.342-3.341a.628.628,0,0,1,.688-.559l3.34.342a.626.626,0,0,1,.56.687l-.343,3.341a.625.625,0,0,1-.686.559" fill="#999"/>
              <path id="Rectángulo_381409" data-name="Rectángulo 381409" d="M.626,0H3.984a.627.627,0,0,1,.627.627V3.985a.626.626,0,0,1-.626.626H.626A.626.626,0,0,1,0,3.985V.626A.626.626,0,0,1,.626,0Z" transform="translate(334.105 112.197) rotate(-84.156)" fill="none" stroke="#263238" stroke-linecap="round" stroke-linejoin="round" stroke-width="1"/>
              <path id="Trazado_832863" data-name="Trazado 832863" d="M384.964,114.465l-43.055-4.412a.53.53,0,0,1,.108-1.054l43.055,4.412a.53.53,0,1,1-.108,1.054" fill="#263238"/>
              <path id="Trazado_832864" data-name="Trazado 832864" d="M380.513,116.326l-38.839-3.98a.53.53,0,1,1,.108-1.054l38.839,3.98a.53.53,0,0,1-.108,1.054" fill="#263238"/>
              <path id="Trazado_832865" data-name="Trazado 832865" d="M337.016,122.876l-3.34-.342a.627.627,0,0,1-.56-.687l.343-3.341a.626.626,0,0,1,.687-.559l3.34.342a.626.626,0,0,1,.559.687l-.342,3.341a.626.626,0,0,1-.687.559" fill="#bfbfbf"/>
              <path id="Rectángulo_381410" data-name="Rectángulo 381410" d="M.626,0H3.984a.627.627,0,0,1,.627.627V3.984a.626.626,0,0,1-.626.626H.626A.626.626,0,0,1,0,3.984V.626A.626.626,0,0,1,.626,0Z" transform="matrix(0.102, -0.995, 0.995, 0.102, 333.052, 122.47)" fill="none" stroke="#263238" stroke-miterlimit="10" stroke-width="1"/>
              <path id="Trazado_832866" data-name="Trazado 832866" d="M383.911,124.738l-43.055-4.412a.53.53,0,0,1,.108-1.054l43.055,4.412a.53.53,0,0,1-.108,1.054" fill="#263238"/>
              <path id="Trazado_832867" data-name="Trazado 832867" d="M379.46,126.6l-38.839-3.98a.53.53,0,0,1,.108-1.054l38.839,3.98a.53.53,0,0,1-.108,1.054" fill="#263238"/>
              <path id="Trazado_832868" data-name="Trazado 832868" d="M335.963,133.149l-3.341-.342a.627.627,0,0,1-.559-.687l.343-3.341a.626.626,0,0,1,.687-.559l3.34.342a.626.626,0,0,1,.559.687l-.342,3.341a.626.626,0,0,1-.687.559" fill="#fff"/>
              <rect id="Rectángulo_381411" data-name="Rectángulo 381411" width="4.611" height="4.611" rx="0.626" transform="translate(332 132.743) rotate(-84.156)" fill="none" stroke="#263238" stroke-linecap="round" stroke-linejoin="round" stroke-width="1"/>
              <path id="Trazado_832869" data-name="Trazado 832869" d="M382.859,135.01,339.8,130.6a.53.53,0,0,1,.108-1.054l43.055,4.412a.529.529,0,1,1-.108,1.053" fill="#263238"/>
              <path id="Trazado_832870" data-name="Trazado 832870" d="M378.408,136.872l-38.839-3.98a.53.53,0,0,1,.108-1.054l38.839,3.98a.53.53,0,1,1-.108,1.054" fill="#263238"/>
              <rect id="Rectángulo_381412" data-name="Rectángulo 381412" width="14.129" height="2.471" transform="translate(363.709 210.258) rotate(-84.148)" fill="#757575"/>
              <rect id="Rectángulo_381413" data-name="Rectángulo 381413" width="14.129" height="2.471" transform="translate(363.709 210.258) rotate(-84.148)" fill="none" stroke="#263238" stroke-linecap="round" stroke-linejoin="round" stroke-width="1"/>
              <rect id="Rectángulo_381414" data-name="Rectángulo 381414" width="6.651" height="2.471" transform="translate(363.926 208.14) rotate(-84.146)" fill="#92e3a9"/>
              <rect id="Rectángulo_381415" data-name="Rectángulo 381415" width="6.651" height="2.471" transform="translate(363.926 208.14) rotate(-84.146)" fill="none" stroke="#263238" stroke-miterlimit="10" stroke-width="1"/>
              <rect id="Rectángulo_381416" data-name="Rectángulo 381416" width="14.129" height="2.471" transform="translate(369.607 207.278) rotate(-84.146)" fill="#757575"/>
              <rect id="Rectángulo_381417" data-name="Rectángulo 381417" width="14.129" height="2.471" transform="translate(369.607 207.278) rotate(-84.146)" fill="none" stroke="#263238" stroke-linecap="round" stroke-linejoin="round" stroke-width="1"/>
              <rect id="Rectángulo_381418" data-name="Rectángulo 381418" width="6.651" height="2.471" transform="translate(369.987 203.572) rotate(-84.146)" fill="#92e3a9"/>
              <rect id="Rectángulo_381419" data-name="Rectángulo 381419" width="6.651" height="2.471" transform="translate(369.987 203.572) rotate(-84.146)" fill="none" stroke="#263238" stroke-miterlimit="10" stroke-width="1"/>
              <rect id="Rectángulo_381420" data-name="Rectángulo 381420" width="14.129" height="2.471" transform="translate(374.865 210.541) rotate(-84.146)" fill="#757575"/>
              <rect id="Rectángulo_381421" data-name="Rectángulo 381421" width="14.129" height="2.471" transform="translate(374.865 210.541) rotate(-84.146)" fill="none" stroke="#263238" stroke-linecap="round" stroke-linejoin="round" stroke-width="1"/>
              <rect id="Rectángulo_381422" data-name="Rectángulo 381422" width="6.651" height="2.472" transform="translate(375.407 205.248) rotate(-84.148)" fill="#92e3a9"/>
              <rect id="Rectángulo_381423" data-name="Rectángulo 381423" width="6.651" height="2.472" transform="translate(375.407 205.248) rotate(-84.148)" fill="none" stroke="#263238" stroke-miterlimit="10" stroke-width="1"/>
              <rect id="Rectángulo_381424" data-name="Rectángulo 381424" width="14.129" height="2.471" transform="translate(358.46 206.914) rotate(-84.146)" fill="#757575"/>
              <rect id="Rectángulo_381425" data-name="Rectángulo 381425" width="14.129" height="2.471" transform="translate(358.46 206.914) rotate(-84.146)" fill="none" stroke="#263238" stroke-linecap="round" stroke-linejoin="round" stroke-width="1"/>
              <rect id="Rectángulo_381426" data-name="Rectángulo 381426" width="6.651" height="2.472" transform="translate(358.677 204.796) rotate(-84.148)" fill="#92e3a9"/>
              <rect id="Rectángulo_381427" data-name="Rectángulo 381427" width="6.651" height="2.472" transform="translate(358.677 204.796) rotate(-84.148)" fill="none" stroke="#263238" stroke-miterlimit="10" stroke-width="1"/>
              <rect id="Rectángulo_381428" data-name="Rectángulo 381428" width="14.129" height="2.471" transform="translate(352.499 210.505) rotate(-84.146)" fill="#757575"/>
              <rect id="Rectángulo_381429" data-name="Rectángulo 381429" width="14.129" height="2.471" transform="translate(352.499 210.505) rotate(-84.146)" fill="none" stroke="#263238" stroke-linecap="round" stroke-linejoin="round" stroke-width="1"/>
              <rect id="Rectángulo_381430" data-name="Rectángulo 381430" width="6.651" height="2.472" transform="translate(352.662 208.917) rotate(-84.148)" fill="#92e3a9"/>
              <rect id="Rectángulo_381431" data-name="Rectángulo 381431" width="6.651" height="2.472" transform="translate(352.662 208.917) rotate(-84.148)" fill="none" stroke="#263238" stroke-miterlimit="10" stroke-width="1"/>
              <rect id="Rectángulo_381432" data-name="Rectángulo 381432" width="14.129" height="2.471" transform="translate(347.337 206.309) rotate(-84.148)" fill="#757575"/>
              <rect id="Rectángulo_381433" data-name="Rectángulo 381433" width="14.129" height="2.471" transform="translate(347.337 206.309) rotate(-84.148)" fill="none" stroke="#263238" stroke-linecap="round" stroke-linejoin="round" stroke-width="1"/>
              <rect id="Rectángulo_381434" data-name="Rectángulo 381434" width="6.651" height="2.472" transform="translate(347.392 205.78) rotate(-84.148)" fill="#92e3a9"/>
              <rect id="Rectángulo_381435" data-name="Rectángulo 381435" width="6.651" height="2.472" transform="translate(347.392 205.78) rotate(-84.148)" fill="none" stroke="#263238" stroke-miterlimit="10" stroke-width="1"/>
              <rect id="Rectángulo_381436" data-name="Rectángulo 381436" width="14.129" height="2.471" transform="translate(341.05 213.09) rotate(-84.146)" fill="#757575"/>
              <rect id="Rectángulo_381437" data-name="Rectángulo 381437" width="14.129" height="2.471" transform="translate(341.05 213.09) rotate(-84.146)" fill="none" stroke="#263238" stroke-linecap="round" stroke-linejoin="round" stroke-width="1"/>
              <rect id="Rectángulo_381438" data-name="Rectángulo 381438" width="6.651" height="2.472" transform="translate(341.105 212.561) rotate(-84.148)" fill="#92e3a9"/>
              <rect id="Rectángulo_381439" data-name="Rectángulo 381439" width="6.651" height="2.472" transform="translate(341.105 212.561) rotate(-84.148)" fill="none" stroke="#263238" stroke-miterlimit="10" stroke-width="1"/>
              <rect id="Rectángulo_381440" data-name="Rectángulo 381440" width="14.129" height="2.471" transform="translate(336.423 203.672) rotate(-84.148)" fill="#757575"/>
              <rect id="Rectángulo_381441" data-name="Rectángulo 381441" width="14.129" height="2.471" transform="translate(336.423 203.672) rotate(-84.148)" fill="none" stroke="#263238" stroke-linecap="round" stroke-linejoin="round" stroke-width="1"/>
              <rect id="Rectángulo_381442" data-name="Rectángulo 381442" width="6.651" height="2.472" transform="translate(336.64 201.555) rotate(-84.148)" fill="#92e3a9"/>
              <rect id="Rectángulo_381443" data-name="Rectángulo 381443" width="6.651" height="2.472" transform="translate(336.64 201.555) rotate(-84.148)" fill="none" stroke="#263238" stroke-miterlimit="10" stroke-width="1"/>
              <rect id="Rectángulo_381444" data-name="Rectángulo 381444" width="14.129" height="2.471" transform="translate(330.973 202.285) rotate(-84.148)" fill="#757575"/>
              <rect id="Rectángulo_381445" data-name="Rectángulo 381445" width="14.129" height="2.471" transform="translate(330.973 202.285) rotate(-84.148)" fill="none" stroke="#263238" stroke-linecap="round" stroke-linejoin="round" stroke-width="1"/>
              <rect id="Rectángulo_381446" data-name="Rectángulo 381446" width="6.651" height="2.472" transform="translate(331.516 196.991) rotate(-84.148)" fill="#92e3a9"/>
              <rect id="Rectángulo_381447" data-name="Rectángulo 381447" width="6.651" height="2.472" transform="translate(331.516 196.991) rotate(-84.148)" fill="none" stroke="#263238" stroke-miterlimit="10" stroke-width="1"/>
              <rect id="Rectángulo_381448" data-name="Rectángulo 381448" width="14.129" height="2.471" transform="translate(324.535 210.539) rotate(-84.148)" fill="#757575"/>
              <rect id="Rectángulo_381449" data-name="Rectángulo 381449" width="14.129" height="2.471" transform="translate(324.535 210.539) rotate(-84.148)" fill="none" stroke="#263238" stroke-linecap="round" stroke-linejoin="round" stroke-width="1"/>
              <rect id="Rectángulo_381450" data-name="Rectángulo 381450" width="6.651" height="2.471" transform="translate(325.132 204.716) rotate(-84.146)" fill="#92e3a9"/>
              <rect id="Rectángulo_381451" data-name="Rectángulo 381451" width="6.651" height="2.471" transform="translate(325.132 204.716) rotate(-84.146)" fill="none" stroke="#263238" stroke-miterlimit="10" stroke-width="1"/>
              <rect id="Rectángulo_381452" data-name="Rectángulo 381452" width="14.129" height="2.471" transform="translate(319.634 203.794) rotate(-84.148)" fill="#757575"/>
              <rect id="Rectángulo_381453" data-name="Rectángulo 381453" width="14.129" height="2.471" transform="translate(319.634 203.794) rotate(-84.148)" fill="none" stroke="#263238" stroke-linecap="round" stroke-linejoin="round" stroke-width="1"/>
              <rect id="Rectángulo_381454" data-name="Rectángulo 381454" width="6.651" height="2.471" transform="translate(319.905 201.147) rotate(-84.146)" fill="#92e3a9"/>
              <rect id="Rectángulo_381455" data-name="Rectángulo 381455" width="6.651" height="2.471" transform="translate(319.905 201.147) rotate(-84.146)" fill="none" stroke="#263238" stroke-miterlimit="10" stroke-width="1"/>
              <rect id="Rectángulo_381456" data-name="Rectángulo 381456" width="14.129" height="2.471" transform="translate(313.724 206.894) rotate(-84.146)" fill="#757575"/>
              <rect id="Rectángulo_381457" data-name="Rectángulo 381457" width="14.129" height="2.471" transform="translate(313.724 206.894) rotate(-84.146)" fill="none" stroke="#263238" stroke-linecap="round" stroke-linejoin="round" stroke-width="1"/>
              <rect id="Rectángulo_381458" data-name="Rectángulo 381458" width="6.651" height="2.471" transform="translate(313.941 204.777) rotate(-84.146)" fill="#92e3a9"/>
              <rect id="Rectángulo_381459" data-name="Rectángulo 381459" width="6.651" height="2.471" transform="translate(313.941 204.777) rotate(-84.146)" fill="none" stroke="#263238" stroke-miterlimit="10" stroke-width="1"/>
              <rect id="Rectángulo_381460" data-name="Rectángulo 381460" width="14.129" height="2.471" transform="translate(307.544 212.638) rotate(-84.148)" fill="#757575"/>
              <rect id="Rectángulo_381461" data-name="Rectángulo 381461" width="14.129" height="2.471" transform="translate(307.544 212.638) rotate(-84.148)" fill="none" stroke="#263238" stroke-linecap="round" stroke-linejoin="round" stroke-width="1"/>
              <rect id="Rectángulo_381462" data-name="Rectángulo 381462" width="6.651" height="2.472" transform="translate(307.543 212.638) rotate(-84.148)" fill="#ffca00"/>
              <rect id="Rectángulo_381463" data-name="Rectángulo 381463" width="6.651" height="2.472" transform="translate(307.543 212.638) rotate(-84.148)" fill="none" stroke="#263238" stroke-miterlimit="10" stroke-width="1"/>
              <rect id="Rectángulo_381464" data-name="Rectángulo 381464" width="14.129" height="2.471" transform="translate(302.922 203.169) rotate(-84.148)" fill="#757575"/>
              <rect id="Rectángulo_381465" data-name="Rectángulo 381465" width="14.129" height="2.471" transform="translate(302.922 203.169) rotate(-84.148)" fill="none" stroke="#263238" stroke-linecap="round" stroke-linejoin="round" stroke-width="1"/>
              <rect id="Rectángulo_381466" data-name="Rectángulo 381466" width="6.651" height="2.472" transform="translate(303.084 201.581) rotate(-84.148)" fill="#ffca00"/>
              <rect id="Rectángulo_381467" data-name="Rectángulo 381467" width="6.651" height="2.472" transform="translate(303.084 201.581) rotate(-84.148)" fill="none" stroke="#263238" stroke-miterlimit="10" stroke-width="1"/>
              <rect id="Rectángulo_381468" data-name="Rectángulo 381468" width="14.129" height="2.471" transform="translate(298.02 196.425) rotate(-84.148)" fill="#757575"/>
              <rect id="Rectángulo_381469" data-name="Rectángulo 381469" width="14.129" height="2.471" transform="translate(298.02 196.425) rotate(-84.148)" fill="none" stroke="#263238" stroke-linecap="round" stroke-linejoin="round" stroke-width="1"/>
              <rect id="Rectángulo_381470" data-name="Rectángulo 381470" width="6.651" height="2.471" transform="translate(298.183 194.837) rotate(-84.146)" fill="#ffca00"/>
              <rect id="Rectángulo_381471" data-name="Rectángulo 381471" width="6.651" height="2.471" transform="translate(298.183 194.837) rotate(-84.146)" fill="none" stroke="#263238" stroke-miterlimit="10" stroke-width="1"/>
              <rect id="Rectángulo_381472" data-name="Rectángulo 381472" width="14.129" height="2.471" transform="translate(291.724 203.297) rotate(-84.146)" fill="#757575"/>
              <rect id="Rectángulo_381473" data-name="Rectángulo 381473" width="14.129" height="2.471" transform="translate(291.724 203.297) rotate(-84.146)" fill="none" stroke="#263238" stroke-linecap="round" stroke-linejoin="round" stroke-width="1"/>
              <rect id="Rectángulo_381474" data-name="Rectángulo 381474" width="6.651" height="2.472" transform="translate(292.266 198.004) rotate(-84.148)" fill="#ffca00"/>
              <rect id="Rectángulo_381475" data-name="Rectángulo 381475" width="6.651" height="2.472" transform="translate(292.266 198.004) rotate(-84.148)" fill="none" stroke="#263238" stroke-miterlimit="10" stroke-width="1"/>
              <rect id="Rectángulo_381476" data-name="Rectángulo 381476" width="14.129" height="2.471" transform="translate(285.376 210.675) rotate(-84.146)" fill="#757575"/>
              <rect id="Rectángulo_381477" data-name="Rectángulo 381477" width="14.129" height="2.471" transform="translate(285.376 210.675) rotate(-84.146)" fill="none" stroke="#263238" stroke-linecap="round" stroke-linejoin="round" stroke-width="1"/>
              <rect id="Rectángulo_381478" data-name="Rectángulo 381478" width="6.651" height="2.471" transform="translate(286.027 204.322) rotate(-84.146)" fill="#ffca00"/>
              <rect id="Rectángulo_381479" data-name="Rectángulo 381479" width="6.651" height="2.471" transform="translate(286.027 204.322) rotate(-84.146)" fill="none" stroke="#263238" stroke-miterlimit="10" stroke-width="1"/>
              <rect id="Rectángulo_381480" data-name="Rectángulo 381480" width="14.129" height="2.471" transform="translate(280.656 202.163) rotate(-84.146)" fill="#757575"/>
              <rect id="Rectángulo_381481" data-name="Rectángulo 381481" width="14.129" height="2.471" transform="translate(280.656 202.163) rotate(-84.146)" fill="none" stroke="#263238" stroke-linecap="round" stroke-linejoin="round" stroke-width="1"/>
              <rect id="Rectángulo_381482" data-name="Rectángulo 381482" width="6.651" height="2.471" transform="translate(280.873 200.045) rotate(-84.146)" fill="#ffca00"/>
              <rect id="Rectángulo_381483" data-name="Rectángulo 381483" width="6.651" height="2.471" transform="translate(280.873 200.045) rotate(-84.146)" fill="none" stroke="#263238" stroke-miterlimit="10" stroke-width="1"/>
              <rect id="Rectángulo_381484" data-name="Rectángulo 381484" width="14.129" height="2.471" transform="translate(275.361 199.258) rotate(-84.148)" fill="#757575"/>
              <rect id="Rectángulo_381485" data-name="Rectángulo 381485" width="14.129" height="2.471" transform="translate(275.361 199.258) rotate(-84.148)" fill="none" stroke="#263238" stroke-linecap="round" stroke-linejoin="round" stroke-width="1"/>
              <rect id="Rectángulo_381486" data-name="Rectángulo 381486" width="6.651" height="2.471" transform="translate(275.958 193.435) rotate(-84.146)" fill="#92e3a9"/>
              <rect id="Rectángulo_381487" data-name="Rectángulo 381487" width="6.651" height="2.471" transform="translate(275.958 193.435) rotate(-84.146)" fill="#ffca00" stroke="#263238" stroke-miterlimit="10" stroke-width="1"/>
              <rect id="Rectángulo_381488" data-name="Rectángulo 381488" width="14.129" height="2.471" transform="translate(269.378 203.074) rotate(-84.148)" fill="#757575"/>
              <rect id="Rectángulo_381489" data-name="Rectángulo 381489" width="14.129" height="2.471" transform="translate(269.378 203.074) rotate(-84.148)" fill="none" stroke="#263238" stroke-linecap="round" stroke-linejoin="round" stroke-width="1"/>
              <rect id="Rectángulo_381490" data-name="Rectángulo 381490" width="6.651" height="2.472" transform="translate(269.378 203.074) rotate(-84.148)" fill="#92e3a9"/>
              <rect id="Rectángulo_381491" data-name="Rectángulo 381491" width="6.651" height="2.472" transform="translate(269.378 203.074) rotate(-84.148)" fill="#ffca00" stroke="#263238" stroke-miterlimit="10" stroke-width="1"/>
              <rect id="Rectángulo_381492" data-name="Rectángulo 381492" width="14.129" height="2.471" transform="translate(264.293 198.123) rotate(-84.148)" fill="#757575"/>
              <rect id="Rectángulo_381493" data-name="Rectángulo 381493" width="14.129" height="2.471" transform="translate(264.293 198.123) rotate(-84.148)" fill="none" stroke="#263238" stroke-linecap="round" stroke-linejoin="round" stroke-width="1"/>
              <rect id="Rectángulo_381494" data-name="Rectángulo 381494" width="6.651" height="2.472" transform="translate(264.402 197.065) rotate(-84.148)" fill="#ffca00"/>
              <rect id="Rectángulo_381495" data-name="Rectángulo 381495" width="6.651" height="2.472" transform="translate(264.402 197.065) rotate(-84.148)" fill="none" stroke="#263238" stroke-miterlimit="10" stroke-width="1"/>
              <rect id="Rectángulo_381496" data-name="Rectángulo 381496" width="14.129" height="2.471" transform="translate(258.565 199.452) rotate(-84.146)" fill="#757575"/>
              <rect id="Rectángulo_381497" data-name="Rectángulo 381497" width="14.129" height="2.471" transform="translate(258.565 199.452) rotate(-84.146)" fill="none" stroke="#263238" stroke-linecap="round" stroke-linejoin="round" stroke-width="1"/>
              <rect id="Rectángulo_381498" data-name="Rectángulo 381498" width="6.651" height="2.472" transform="translate(258.619 198.923) rotate(-84.148)" fill="#92e3a9"/>
              <rect id="Rectángulo_381499" data-name="Rectángulo 381499" width="6.651" height="2.472" transform="translate(258.619 198.923) rotate(-84.148)" fill="none" stroke="#263238" stroke-miterlimit="10" stroke-width="1"/>
              <rect id="Rectángulo_381500" data-name="Rectángulo 381500" width="14.129" height="2.471" transform="translate(253.216 197.08) rotate(-84.148)" fill="#757575"/>
              <rect id="Rectángulo_381501" data-name="Rectángulo 381501" width="14.129" height="2.471" transform="translate(253.216 197.08) rotate(-84.148)" fill="none" stroke="#263238" stroke-linecap="round" stroke-linejoin="round" stroke-width="1"/>
              <rect id="Rectángulo_381502" data-name="Rectángulo 381502" width="6.651" height="2.472" transform="translate(253.921 190.199) rotate(-84.148)" fill="#92e3a9"/>
              <rect id="Rectángulo_381503" data-name="Rectángulo 381503" width="6.651" height="2.472" transform="translate(253.921 190.199) rotate(-84.148)" fill="none" stroke="#263238" stroke-miterlimit="10" stroke-width="1"/>
              <path id="Trazado_832871" data-name="Trazado 832871" d="M378.794,227.513l-112.237-11.5a1.181,1.181,0,1,0-.241,2.35l112.237,11.5a1.181,1.181,0,1,0,.241-2.35" fill="#263238"/>
              <path id="Trazado_832872" data-name="Trazado 832872" d="M377.928,235.965l-130.51-13.374a1.182,1.182,0,1,0-.241,2.351l130.51,13.373a1.181,1.181,0,1,0,.241-2.35" fill="#263238"/>
              <path id="Trazado_832873" data-name="Trazado 832873" d="M322.243,238.8l-75.691-7.756a1.181,1.181,0,1,0-.241,2.35L322,241.149a1.181,1.181,0,1,0,.241-2.35" fill="#263238"/>
              <g id="Grupo_1079073" data-name="Grupo 1079073" opacity="0.2">
                <g id="Grupo_1079072" data-name="Grupo 1079072">
                  <g id="Grupo_1079071" data-name="Grupo 1079071" clip-path="url(#clip-path-23)">
                    <g id="Grupo_1079070" data-name="Grupo 1079070" opacity="0.7">
                      <g id="Grupo_1079069" data-name="Grupo 1079069">
                        <g id="Grupo_1079068" data-name="Grupo 1079068" clip-path="url(#clip-path-23)">
                          <path id="Trazado_832874" data-name="Trazado 832874" d="M391.171,164.1c-3.87-.316-5.21,5.964-5.21,5.964s-6.12-8.162-5.15-27.357c0,0-2.99-8.508-11-3.369s-16.31,23.256-14.33,42.99l-15.57-52.608c-5.38,1.16-16.31,8.519-13.43,44.049l-16.99-18.279s-4.6-1.506-7.2,2.636-1.36,33.81.79,44.9-3.33,33.383-3.33,33.383-5.858-25.239-16.46-31.627l-40.37-84.744-13.41,133.225,15.13,1.578,24.3-12.037c-.135,5.567-.268,10.684-.667,14.5l121.44,12.661,8.69-86.327c-2.95-10.758-5.77-19.429-7.23-19.541" transform="translate(-0.001 -3.616)"/>
                        </g>
                      </g>
                    </g>
                  </g>
                </g>
              </g>
            </g>
          </g>
          <path id="Trazado_832876" data-name="Trazado 832876" d="M412.531,44.648,398.4,182.528l-8.69,84.82-121.44-12.44-23.63-2.42-15.13-1.55,13.41-130.9,9.41-91.8Z" fill="none" stroke="#263238" stroke-linecap="round" stroke-linejoin="round" stroke-width="1"/>
          <g id="Grupo_1079104" data-name="Grupo 1079104">
            <g id="Grupo_1079103" data-name="Grupo 1079103" clip-path="url(#clip-path)">
              <path id="Trazado_832877" data-name="Trazado 832877" d="M410.531,399.608l-71,12.08s-12.36-65.65-19.73-75.99-6.02-14.6-9.6-21.57c-2.16-4.21-12.99-12.06-21.49-19.81h-.01c-.74-.67-1.46-1.34-2.15-2.01-.3-.27-.58-.56-.86-.83-1.13-1.12-2.18-2.21-3.11-3.28q-.51-.57-.96-1.14a16.2,16.2,0,0,1-3.44-6.09,1.547,1.547,0,0,1-.06-.31,2.584,2.584,0,0,1-.06-.37c-.19-1.55-.39-3.32-.59-5.24-.04-.38-.08-.78-.13-1.18-.02-.16-.04-.31-.06-.48-.17-1.6-.36-3.3-.58-5.05-.22-1.83-.46-3.73-.74-5.64-.09-.66-.18-1.32-.29-1.99,0-.01,0-.02-.01-.02-.11-.74-.23-1.48-.35-2.23l-.33-1.92c-.02-.11-.05-.21-.06-.3-.14-.75-.28-1.48-.42-2.22a1.009,1.009,0,0,1-.05-.25c-.14-.65-.27-1.29-.42-1.94-.31-1.45-.66-2.87-1.04-4.25a52.729,52.729,0,0,0-2.65-7.6c-5.12-11.43,1.54-7.3-2.47-36.71,0,0,2.95-6.82,11.36-1.37a22.517,22.517,0,0,1,1.88,1.37h.01a23.64,23.64,0,0,1,4.47,4.78,27.617,27.617,0,0,1,3.86,7.96,34.612,34.612,0,0,1,1.14,14.3s6.32,21.66,9.65,26.59,17.1-23.39,16.21-26.69a44.59,44.59,0,0,1-.71-4.48c-.06-.49-.12-1.01-.19-1.56s-.13-1.12-.19-1.71c-.04-.28-.07-.58-.11-.87-.01-.12-.02-.24-.04-.35-.12-1.13-.26-2.33-.39-3.57-.03-.35-.07-.68-.11-1.02-.06-.59-.12-1.2-.18-1.8a2.526,2.526,0,0,1-.03-.3c-.04-.34-.08-.69-.11-1.05-.08-.7-.15-1.41-.22-2.12-.07-.61-.12-1.22-.18-1.83-.12-1.15-.23-2.3-.34-3.41-.08-.83-.16-1.65-.23-2.45-.02-.18-.04-.36-.05-.53-.42-4.4-.75-8.02-.87-9.56,0,0-10.01-14.82-11.04-21.8s-.94-14.33,3.25-17.32c9.92-7.06,7.02,4.32,11.46,9.03,4.44,4.73,11.25,12.43,15.11,14.84,3.56,2.26,6.74,11.04,7.19,12.32-.51-1.92-5.6-20.8-5.71-24.6-.13-4.01-3.19-25.16,2.01-32.75s12.11-1.7,12.75-.2.83,21.99,2.66,27.7,9.49,29.47,9.49,29.47.32-23.12,2.05-33.47,6.22-18.44,10.62-18.9,8.47,4.39,8.47,4.39-1.74,16.5-1.24,20.31-.72,17.57,1.37,24.97c0,0-.24-19.71,2.82-22.23s5.69-3.73,7.41-2.03,2.09,13.37,3.84,20.39,1.53,16.56,2.68,27.51,5.68,26.15,4.78,34.84c-.9,8.67-3.67,30.24-5.9,42.89s-7.92,29.98-7.92,29.98,2.59,9.25,2.09,17.5,19.79,63.17,19.79,63.17" fill="#fff"/>
              <g id="Grupo_1079078" data-name="Grupo 1079078" opacity="0.4">
                <g id="Grupo_1079077" data-name="Grupo 1079077">
                  <g id="Grupo_1079076" data-name="Grupo 1079076" clip-path="url(#clip-path-26)">
                    <path id="Trazado_832878" data-name="Trazado 832878" d="M350.186,160.815c1.36,4.224,5.9,18.342,8.168,25.392,0,0-9.925,7.295-9.678,14.073s-1.817,20.464-6.274,20.071-4.054-28.857-5.509-33.639c.9,2.052,1.492,3.726,1.61,4.055-.33-1.225-5.633-20.819-5.745-24.7-.027-.912-.21-2.727-.415-5.077l0-.046s9.864-9.443,17.11-3.661v.009a24.263,24.263,0,0,0,.732,3.523" fill="#2d54fe"/>
                  </g>
                </g>
              </g>
              <g id="Grupo_1079081" data-name="Grupo 1079081" opacity="0.4">
                <g id="Grupo_1079080" data-name="Grupo 1079080">
                  <g id="Grupo_1079079" data-name="Grupo 1079079" clip-path="url(#clip-path-27)">
                    <path id="Trazado_832879" data-name="Trazado 832879" d="M379.674,168.955c-4.621,4.382-11.593,12.125-12.474,19.6,0,0,2.576,20.852,1.475,29.95l-9.008-28.213s.324-23.122,2.054-33.469c.045-.283.1-.574.154-.856a41.115,41.115,0,0,1,18.085-4.42,80.88,80.88,0,0,0-.394,11.073,60.388,60.388,0,0,1,.108,6.337" fill="#2d54fe"/>
                  </g>
                </g>
              </g>
              <g id="Grupo_1079084" data-name="Grupo 1079084" opacity="0.4">
                <g id="Grupo_1079083" data-name="Grupo 1079083">
                  <g id="Grupo_1079082" data-name="Grupo 1079082" clip-path="url(#clip-path-28)">
                    <path id="Trazado_832880" data-name="Trazado 832880" d="M383.76,165.359l-.01.009-.029.025c-.106.077-.377.29-.774.625a13.319,13.319,0,0,1,.788-1.305Z" fill="#92e3a9"/>
                  </g>
                </g>
              </g>
              <g id="Grupo_1079087" data-name="Grupo 1079087" opacity="0.4">
                <g id="Grupo_1079086" data-name="Grupo 1079086">
                  <g id="Grupo_1079085" data-name="Grupo 1079085" clip-path="url(#clip-path-29)">
                    <path id="Trazado_832881" data-name="Trazado 832881" d="M386.111,223.032s-5.94-22.283-6.045-40.223c-.043-6.637.724-12.691,2.87-16.783l.011-.008a13.1,13.1,0,0,1,.787-1.3l.025.645a16.366,16.366,0,0,1,3.539-2.341c-1.668,2.6-3.591,7.693-1.366,15.964,3.485,12.958.452,28.783.179,44.05" fill="#2d54fe"/>
                  </g>
                </g>
              </g>
              <g id="Grupo_1079090" data-name="Grupo 1079090" opacity="0.4">
                <g id="Grupo_1079089" data-name="Grupo 1079089">
                  <g id="Grupo_1079088" data-name="Grupo 1079088" clip-path="url(#clip-path-30)">
                    <path id="Trazado_832882" data-name="Trazado 832882" d="M304.178,265.486s1.6,21.234-15.47,28.836h-.01c-.741-.671-1.454-1.341-2.149-2.009-.3-.276-.582-.56-.86-.835-1.127-1.118-2.183-2.213-3.111-3.283-.344-.389-.662-.767-.961-1.135a16.169,16.169,0,0,1-3.436-6.091,1.884,1.884,0,0,1-.064-.307,2.954,2.954,0,0,1-.06-.372c-.19-1.548-.385-3.318-.589-5.244-.041-.38-.081-.778-.13-1.177-.018-.158-.036-.315-.053-.482-.178-1.6-.369-3.3-.583-5.05-.219-1.827-.462-3.728-.74-5.64-.1-.66-.2-1.328-.292-1.987,0-.01,0-.019-.008-.019-.111-.743-.231-1.487-.351-2.23-.108-.642-.225-1.284-.333-1.925-.021-.1-.042-.205-.055-.3-.138-.745-.277-1.48-.425-2.216a2.289,2.289,0,0,1-.049-.252c-.135-.652-.271-1.295-.415-1.939-.325-1.446-.671-2.866-1.046-4.251,6.751-6.5,22.334-2.421,14.791-17.468,0,0,3.8-12.88-6.671-26.846h.009c7.164,5.776,10.829,15.92,9.475,27.045,0,0,6.318,21.653,9.65,26.587s17.1-23.391,16.2-26.694c-.172-.655-.422-2.271-.7-4.478-.062-.492-.122-1.011-.189-1.558s-.134-1.121-.2-1.714c-.038-.279-.066-.575-.1-.862-.011-.121-.022-.241-.043-.353-.123-1.139-.253-2.334-.388-3.575-.034-.343-.069-.676-.112-1.019-.056-.593-.12-1.195-.185-1.8-.012-.092-.015-.194-.028-.3-.034-.342-.077-.695-.109-1.056-.077-.7-.144-1.407-.22-2.12-.064-.611-.118-1.222-.182-1.833-.114-1.148-.227-2.3-.334-3.407-.078-.833-.156-1.657-.237-2.444-.016-.185-.033-.361-.049-.537.278,1.315,5.349,25.449,8.243,31.074,2.966,5.786-9.642,36.261-17.432,31.256" fill="#2d54fe"/>
                  </g>
                </g>
              </g>
              <g id="Grupo_1079093" data-name="Grupo 1079093" opacity="0.4">
                <g id="Grupo_1079092" data-name="Grupo 1079092">
                  <g id="Grupo_1079091" data-name="Grupo 1079091" clip-path="url(#clip-path-31)">
                    <path id="Trazado_832883" data-name="Trazado 832883" d="M396.567,288.959c-2.231,12.663-7.913,29.981-7.913,29.981s2.589,9.25,2.083,17.5c-.136,2.218,1.241,7.823,3.3,14.824-.6-1.537-6.971-18.058-6.866-23.821.122-6.047-1.6-7.717-4.969-15.147s-8.511-6.614-8.511-6.614-1.984,18.539-6.638,6.356-5.551-26.354,6.182-75.553c0,0,1.774,6.173.291,24.5s2.9,23.881,2.9,23.881a170.8,170.8,0,0,0,15.591-36.356s-1.515,21.393-2.867,31.137,4.806-11.29,9.109-24.285c4.042-12.193,4.189-16.831,2.651-25.51,1.143,6.115,2,11.946,1.564,16.207-.9,8.678-3.678,30.242-5.908,42.9" fill="#2d54fe"/>
                  </g>
                </g>
              </g>
              <g id="Grupo_1079096" data-name="Grupo 1079096" opacity="0.4">
                <g id="Grupo_1079095" data-name="Grupo 1079095">
                  <g id="Grupo_1079094" data-name="Grupo 1079094" clip-path="url(#clip-path-32)">
                    <path id="Trazado_832884" data-name="Trazado 832884" d="M316.34,330.194c3.461,5.5,11.934,12.772,16.979,32.884s1.875,42.124,1.875,42.124Z" fill="#2d54fe"/>
                  </g>
                </g>
              </g>
              <g id="Grupo_1079102" data-name="Grupo 1079102" opacity="0.2">
                <g id="Grupo_1079101" data-name="Grupo 1079101">
                  <g id="Grupo_1079100" data-name="Grupo 1079100" clip-path="url(#clip-path-33)">
                    <g id="Grupo_1079099" data-name="Grupo 1079099" opacity="0.7">
                      <g id="Grupo_1079098" data-name="Grupo 1079098">
                        <g id="Grupo_1079097" data-name="Grupo 1079097" clip-path="url(#clip-path-33)">
                          <path id="Trazado_832885" data-name="Trazado 832885" d="M289.451,216.008s-17.71,8.97-19.11,23.97c-5.12-11.43,1.54-7.3-2.47-36.71,0,0,2.95-6.82,11.36-1.37a22.517,22.517,0,0,1,1.88,1.37h.01a23.64,23.64,0,0,1,4.47,4.78Z"/>
                        </g>
                      </g>
                    </g>
                  </g>
                </g>
              </g>
              <path id="Trazado_832886" data-name="Trazado 832886" d="M339.528,411.691S327.175,346.039,319.8,335.7s-6.021-14.6-9.6-21.568-30.93-23.934-32.142-33.837-2.6-28.878-7.72-40.314,1.541-7.3-2.479-36.713c0,0,2.966-6.813,11.368-1.366s12.83,16.346,11.361,28.416c0,0,6.317,21.647,9.654,26.584s17.088-23.392,16.2-26.7-3.53-31.469-3.943-36.6c0,0-10.011-14.825-11.039-21.805s-.941-14.331,3.247-17.312c9.922-7.064,7.015,4.316,11.458,9.035s11.251,12.418,15.107,14.838,7.243,12.468,7.243,12.468-5.644-20.742-5.762-24.753-3.188-25.161,2.009-32.745,12.117-1.7,12.754-.206.835,21.986,2.669,27.7,9.476,29.476,9.476,29.476.326-23.117,2.053-33.466,6.228-18.445,10.625-18.9,8.467,4.39,8.467,4.39-1.741,16.5-1.246,20.306-.714,17.566,1.38,24.975c0,0-.247-19.713,2.82-22.235s5.689-3.725,7.4-2.028,2.092,13.37,3.845,20.394,1.532,16.561,2.68,27.509,5.676,26.151,4.78,34.832-3.676,30.243-5.909,42.9-7.9,29.979-7.9,29.979,2.587,9.246,2.081,17.5,19.785,63.167,19.785,63.167" fill="none" stroke="#263238" stroke-linecap="round" stroke-linejoin="round" stroke-width="1"/>
              <path id="Trazado_832887" data-name="Trazado 832887" d="M359.664,190.289c2.068,4.859,7.18,25.376,9.007,28.218a9.679,9.679,0,0,0,3.9,3.7" fill="none" stroke="#263238" stroke-linecap="round" stroke-linejoin="round" stroke-width="1"/>
              <path id="Trazado_832888" data-name="Trazado 832888" d="M380.943,187.59s-.44,4.205,1.832,17.608,3.377,19.114,4.65,22.1" fill="none" stroke="#263238" stroke-linecap="round" stroke-linejoin="round" stroke-width="1"/>
              <path id="Trazado_832889" data-name="Trazado 832889" d="M338.518,190.822c2.775,8.169,4.342,21.187,5.922,25.107s2.986,4.733,2.986,4.733" fill="none" stroke="#263238" stroke-linecap="round" stroke-linejoin="round" stroke-width="1"/>
              <path id="Trazado_832890" data-name="Trazado 832890" d="M343.011,210.423a12.351,12.351,0,0,1,3.836,4.846" fill="none" stroke="#263238" stroke-linecap="round" stroke-linejoin="round" stroke-width="1"/>
              <path id="Trazado_832891" data-name="Trazado 832891" d="M300.246,256.9s1.52,10.832,8.307,9.974" fill="none" stroke="#263238" stroke-linecap="round" stroke-linejoin="round" stroke-width="1"/>
              <path id="Trazado_832892" data-name="Trazado 832892" d="M316.445,230.2s1.758,12.874-1.125,18.34" fill="none" stroke="#263238" stroke-linecap="round" stroke-linejoin="round" stroke-width="1"/>
              <path id="Trazado_832893" data-name="Trazado 832893" d="M370.677,230.316s4.561,2.791,1.511,10.976-8.354,41.228-8.354,41.228" fill="none" stroke="#263238" stroke-linecap="round" stroke-linejoin="round" stroke-width="1"/>
              <path id="Trazado_832894" data-name="Trazado 832894" d="M390.532,238.959c1.912,7.4,2.082,7.59-1.023,16.682s-8.112,31.354-8.112,31.354" fill="none" stroke="#263238" stroke-linecap="round" stroke-linejoin="round" stroke-width="1"/>
              <path id="Trazado_832895" data-name="Trazado 832895" d="M388.659,318.943s-2.982-6.021-.518-10.966" fill="none" stroke="#263238" stroke-linecap="round" stroke-linejoin="round" stroke-width="1"/>
              <path id="Trazado_832896" data-name="Trazado 832896" d="M319.8,335.7s7.541,10.594,10.818,22.443" fill="none" stroke="#263238" stroke-linecap="round" stroke-linejoin="round" stroke-width="1"/>
              <path id="Trazado_832897" data-name="Trazado 832897" d="M375.282,150.067l2.035-2.014.926-.262-.061,1-1.876,2.387Z" fill="#757575"/>
              <path id="Trazado_832898" data-name="Trazado 832898" d="M375.282,150.067l2.035-2.014.926-.262-.061,1-1.876,2.387Z" fill="none" stroke="#263238" stroke-linecap="round" stroke-linejoin="round" stroke-width="1"/>
              <path id="Trazado_832899" data-name="Trazado 832899" d="M376.928,151.184l-3.314,7.526-89.2,118.933-9.936-6.333,3.674-4.609,9.815-12.313,80.119-100.5,7.066-4.49a2.512,2.512,0,0,1,1.777,1.784" fill="#2d54fe"/>
            </g>
          </g>
          <g id="Grupo_1079112" data-name="Grupo 1079112">
            <g id="Grupo_1079111" data-name="Grupo 1079111" clip-path="url(#clip-path-35)">
              <g id="Grupo_1079110" data-name="Grupo 1079110" opacity="0.3">
                <g id="Grupo_1079109" data-name="Grupo 1079109">
                  <g id="Grupo_1079108" data-name="Grupo 1079108" clip-path="url(#clip-path-36)">
                    <g id="Grupo_1079107" data-name="Grupo 1079107" opacity="0.7">
                      <g id="Grupo_1079106" data-name="Grupo 1079106">
                        <g id="Grupo_1079105" data-name="Grupo 1079105" clip-path="url(#clip-path-36)">
                          <path id="Trazado_832900" data-name="Trazado 832900" d="M376.928,151.184l-3.314,7.526-89.2,118.933-9.936-6.333,13.489-16.922c6.2-.641,7.231,3.02,7.231,3.02l76.85-100.3c-.755-2.7-3.962-3.215-3.962-3.215l7.066-4.49a2.512,2.512,0,0,1,1.777,1.784"/>
                        </g>
                      </g>
                    </g>
                  </g>
                </g>
              </g>
            </g>
          </g>
          <g id="Grupo_1079114" data-name="Grupo 1079114">
            <g id="Grupo_1079113" data-name="Grupo 1079113" clip-path="url(#clip-path)">
              <path id="Trazado_832902" data-name="Trazado 832902" d="M376.928,151.184l-3.314,7.526-89.2,118.933-9.936-6.333,13.489-16.922,80.119-100.5,7.066-4.49A2.512,2.512,0,0,1,376.928,151.184Z" fill="none" stroke="#263238" stroke-linecap="round" stroke-linejoin="round" stroke-width="1"/>
              <path id="Trazado_832903" data-name="Trazado 832903" d="M313.507,242.428s-9.955,19.762-19.536,33.74l-6.844,1.77s-15.7,15.6-25.275,23.386a21.472,21.472,0,0,1-4.683-3.931s13.6-26.117,28.648-42.65a19.226,19.226,0,0,1,4.937,2.622,24.244,24.244,0,0,1,5.153,4.945l16.772-21.1Z" fill="#2d54fe"/>
            </g>
          </g>
          <g id="Grupo_1079122" data-name="Grupo 1079122">
            <g id="Grupo_1079121" data-name="Grupo 1079121" clip-path="url(#clip-path-39)">
              <g id="Grupo_1079120" data-name="Grupo 1079120" opacity="0.3">
                <g id="Grupo_1079119" data-name="Grupo 1079119">
                  <g id="Grupo_1079118" data-name="Grupo 1079118" clip-path="url(#clip-path-40)">
                    <g id="Grupo_1079117" data-name="Grupo 1079117" opacity="0.7">
                      <g id="Grupo_1079116" data-name="Grupo 1079116">
                        <g id="Grupo_1079115" data-name="Grupo 1079115" clip-path="url(#clip-path-40)">
                          <path id="Trazado_832904" data-name="Trazado 832904" d="M313.507,242.428s-9.955,19.762-19.536,33.74l-6.844,1.77s-15.7,15.6-25.275,23.386l.259-4.235c10.387-15.871,23.585-33.179,28.643-39.724a24.244,24.244,0,0,1,5.153,4.945l-9.32,12.439,5.34-.961,20.752-32.579Z"/>
                        </g>
                      </g>
                    </g>
                  </g>
                </g>
              </g>
            </g>
          </g>
          <g id="Grupo_1079130" data-name="Grupo 1079130">
            <g id="Grupo_1079129" data-name="Grupo 1079129" clip-path="url(#clip-path)">
              <path id="Trazado_832906" data-name="Trazado 832906" d="M313.507,242.428s-9.955,19.762-19.536,33.74l-6.844,1.77s-15.7,15.6-25.275,23.386a21.472,21.472,0,0,1-4.683-3.931s13.6-26.117,28.648-42.65a19.226,19.226,0,0,1,4.937,2.622,24.244,24.244,0,0,1,5.153,4.945l16.772-21.1Z" fill="none" stroke="#263238" stroke-linecap="round" stroke-linejoin="round" stroke-width="1"/>
              <path id="Trazado_832907" data-name="Trazado 832907" d="M347.425,220.659l-27.864,27.018L315.109,252c3.048-7.837,1.574-19.954,1.38-21.429v-.019c-.014-.083-.02-.13-.02-.13a1.294,1.294,0,0,0-.024-.213c-.171-.654-.422-2.271-.7-4.478-.062-.491-.122-1.01-.19-1.558s-.134-1.121-.2-1.714c-.038-.278-.066-.575-.1-.862-.011-.12-.022-.241-.043-.352-.124-1.13-.261-2.335-.388-3.576-.034-.343-.069-.676-.112-1.019-.056-.592-.12-1.194-.184-1.8-.013-.093-.016-.2-.028-.3-.034-.342-.077-.694-.11-1.055-.077-.7-.144-1.408-.22-2.121-.063-.611-.118-1.222-.182-1.833-.113-1.148-.227-2.3-.334-3.407q-.131-1.249-.236-2.443c-.016-.185-.033-.361-.05-.537-.42-4.4-.751-8.015-.868-9.559,0,0-10-14.821-11.038-21.8s-.943-14.33,3.252-17.311c9.92-7.066,7.014,4.313,11.454,9.03s11.255,12.423,15.11,14.84,7.24,12.471,7.24,12.471c2.775,8.166,4.341,21.181,5.922,25.106s2.986,4.729,2.986,4.729" fill="#fff"/>
              <path id="Trazado_832908" data-name="Trazado 832908" d="M343.011,210.423a12.351,12.351,0,0,1,3.836,4.846" fill="none" stroke="#263238" stroke-linecap="round" stroke-linejoin="round" stroke-width="1"/>
              <g id="Grupo_1079125" data-name="Grupo 1079125" opacity="0.4">
                <g id="Grupo_1079124" data-name="Grupo 1079124">
                  <g id="Grupo_1079123" data-name="Grupo 1079123" clip-path="url(#clip-path-43)">
                    <path id="Trazado_832909" data-name="Trazado 832909" d="M316.167,163.513c4.422,4.716,11.212,12.374,15.074,14.819-.544-.272-7.647-3.735-11.62.116-4.129,4.016-7.122,15.15-7.122,15.15s-10-14.821-11.038-21.8-.943-14.33,3.252-17.311c9.92-7.066,7.014,4.313,11.454,9.03" fill="#2d54fe"/>
                  </g>
                </g>
              </g>
              <g id="Grupo_1079128" data-name="Grupo 1079128" opacity="0.4">
                <g id="Grupo_1079127" data-name="Grupo 1079127">
                  <g id="Grupo_1079126" data-name="Grupo 1079126" clip-path="url(#clip-path-44)">
                    <path id="Trazado_832910" data-name="Trazado 832910" d="M319.561,247.677l-4.452,4.318c3.048-7.836,1.574-19.953,1.379-21.428v-.019a1.454,1.454,0,0,0-.043-.343c-.171-.654-.422-2.271-.7-4.478-.061-.491-.122-1.01-.189-1.558s-.134-1.121-.2-1.714c-.038-.278-.066-.575-.1-.862-.011-.12-.022-.241-.043-.352-.123-1.14-.252-2.335-.388-3.576-.034-.343-.069-.676-.112-1.019-.056-.592-.12-1.194-.184-1.8-.013-.093-.016-.2-.028-.3-.034-.342-.077-.694-.11-1.055-.077-.7-.144-1.408-.22-2.121-.064-.611-.118-1.222-.182-1.833-.113-1.148-.227-2.3-.334-3.407-.078-.833-.156-1.656-.236-2.444-.017-.185-.033-.36-.05-.536.278,1.314,5.349,25.448,8.243,31.073,1.093,2.129.075,7.615-2.049,13.447" fill="#92e3a9"/>
                  </g>
                </g>
              </g>
              <path id="Trazado_832911" data-name="Trazado 832911" d="M347.426,220.662s-1.406-.814-2.986-4.733-3.147-16.939-5.922-25.107c0,0-3.388-10.047-7.243-12.467s-10.664-10.119-15.107-14.838-1.536-16.1-11.458-9.036c-4.188,2.982-4.275,10.333-3.247,17.312S312.5,193.6,312.5,193.6c.413,5.136,3.054,33.3,3.943,36.6" fill="none" stroke="#263238" stroke-linecap="round" stroke-linejoin="round" stroke-width="1"/>
              <path id="Trazado_832912" data-name="Trazado 832912" d="M316.445,230.2s1.758,12.874-1.125,18.34" fill="none" stroke="#263238" stroke-linecap="round" stroke-linejoin="round" stroke-width="1"/>
            </g>
          </g>
          <g id="Grupo_1079138" data-name="Grupo 1079138">
            <g id="Grupo_1079137" data-name="Grupo 1079137" clip-path="url(#clip-path)">
              <g id="Grupo_1079136" data-name="Grupo 1079136" opacity="0.2">
                <g id="Grupo_1079135" data-name="Grupo 1079135">
                  <g id="Grupo_1079134" data-name="Grupo 1079134" clip-path="url(#clip-path-46)">
                    <g id="Grupo_1079133" data-name="Grupo 1079133" opacity="0.7">
                      <g id="Grupo_1079132" data-name="Grupo 1079132">
                        <g id="Grupo_1079131" data-name="Grupo 1079131" clip-path="url(#clip-path-46)">
                          <path id="Trazado_832913" data-name="Trazado 832913" d="M145.414,245.953s6.33,29.391-7.385,50.775-24.263,27.086-29.011,33.466S85.7,372.246,85.7,372.246L64,307.976l21.7-79.51Z"/>
                        </g>
                      </g>
                    </g>
                  </g>
                </g>
              </g>
            </g>
          </g>
          <path id="Trazado_832914" data-name="Trazado 832914" d="M273.311,223.478l-134.56,56.63-13.87,5.84-26.14-62.11-60.7-144.23,148.43-62.47Z" fill="#fff"/>
          <g id="Grupo_1079146" data-name="Grupo 1079146">
            <g id="Grupo_1079145" data-name="Grupo 1079145" clip-path="url(#clip-path-48)">
              <path id="Trazado_832915" data-name="Trazado 832915" d="M148.122,43.983,84.05,70.948A2.363,2.363,0,1,0,85.883,75.3l64.072-26.965a2.363,2.363,0,1,0-1.833-4.355" fill="#263238"/>
              <path id="Trazado_832916" data-name="Trazado 832916" d="M135.87,59.674,103.834,73.157a1.181,1.181,0,1,0,.916,2.178l32.037-13.482a1.182,1.182,0,0,0-.917-2.179" fill="#263238"/>
              <path id="Trazado_832917" data-name="Trazado 832917" d="M188.578,141.8s1.352,10.615-2.6,12.278c-3.607,1.518-8.361-4.177-12.509-2.431s-.876,16.793-4.878,18.477-8.823-4.5-12.275-3.045-1.364,9.193-4.922,10.691c-2.937,1.236-7.141-4.917-10.5-6.267a2.572,2.572,0,0,0-2-.1c-3.521,1.482-1.774,17.646-4.812,18.925a5.689,5.689,0,0,1-2.7.441,19.906,19.906,0,0,0-3.427-.323,4.436,4.436,0,0,0-1.282.327c-2.594,1.092-2.239,9.6-4.611,10.6s-4.713-.239-7.245.827-2.49,5.488-6.265,7.076l1.6,3.794,92.107-38.763" fill="#ffca00"/>
              <path id="Trazado_832918" data-name="Trazado 832918" d="M188.578,141.8s1.352,10.615-2.6,12.278c-3.607,1.518-8.361-4.177-12.509-2.431s-.876,16.793-4.878,18.477-8.823-4.5-12.275-3.045-1.364,9.193-4.922,10.691c-2.937,1.236-7.141-4.917-10.5-6.267a2.572,2.572,0,0,0-2-.1c-3.521,1.482-1.774,17.646-4.812,18.925a5.689,5.689,0,0,1-2.7.441,19.906,19.906,0,0,0-3.427-.323,4.436,4.436,0,0,0-1.282.327c-2.594,1.092-2.239,9.6-4.611,10.6s-4.713-.239-7.245.827-2.49,5.488-6.265,7.076l1.6,3.794,92.107-38.763" fill="none" stroke="#263238" stroke-miterlimit="10" stroke-width="1"/>
              <path id="Trazado_832919" data-name="Trazado 832919" d="M91.5,168.76l18.648,44.311,96.438-40.585" fill="none" stroke="#263238" stroke-linecap="round" stroke-linejoin="round" stroke-width="1"/>
              <path id="Trazado_832920" data-name="Trazado 832920" d="M195.989,159.413a15.791,15.791,0,0,0-1.136-1.222c-1.192-1.15-3.084-2.612-4.521-2.008-1.4.592-1.53,2.928-1.5,5.423.034,3.036.3,6.3-1.228,6.947-1.3.546-2.465-.276-3.659-1.172-1.367-1.023-2.773-2.139-4.457-1.431-2.844,1.2-1.977,4.9-2.978,8.071a6.133,6.133,0,0,1-3.742,4.041c-2.456,1.034-4.947.019-7.292-1.583-3.963-2.7-7.521-7.077-9.825-6.107-3.668,1.544.377,11.469-3.566,13.129-2.2.927-6.762-6.022-11.191-11.994-3.5-4.728-6.924-8.844-9.027-7.96-4.755,2,3.081,25.731-.376,27.186-.034.014-.07.029-.1.04a3.651,3.651,0,0,1-3.428-.323c-1.247-.707-2.26-1.707-3.637-1.127-2.546,1.071-1.053,10.374-3.861,11.556s-4.489-.528-7.648.8c-2.673,1.125-4.257,7.6-4.257,7.6l1.6,3.794,92.107-38.764" fill="#2d54fe"/>
              <path id="Trazado_832921" data-name="Trazado 832921" d="M195.989,159.413a15.791,15.791,0,0,0-1.136-1.222c-1.192-1.15-3.084-2.612-4.521-2.008-1.4.592-1.53,2.928-1.5,5.423.034,3.036.3,6.3-1.228,6.947-1.3.546-2.465-.276-3.659-1.172-1.367-1.023-2.773-2.139-4.457-1.431-2.844,1.2-1.977,4.9-2.978,8.071a6.133,6.133,0,0,1-3.742,4.041c-2.456,1.034-4.947.019-7.292-1.583-3.963-2.7-7.521-7.077-9.825-6.107-3.668,1.544.377,11.469-3.566,13.129-2.2.927-6.762-6.022-11.191-11.994-3.5-4.728-6.924-8.844-9.027-7.96-4.755,2,3.081,25.731-.376,27.186-.034.014-.07.029-.1.04a3.651,3.651,0,0,1-3.428-.323c-1.247-.707-2.26-1.707-3.637-1.127-2.546,1.071-1.053,10.374-3.861,11.556s-4.489-.528-7.648.8c-2.673,1.125-4.257,7.6-4.257,7.6l1.6,3.794,92.107-38.764" fill="none" stroke="#263238" stroke-linecap="round" stroke-linejoin="round" stroke-width="1"/>
              <path id="Trazado_832922" data-name="Trazado 832922" d="M176.5,191.049,144.46,204.531a1.181,1.181,0,1,0,.916,2.178l32.037-13.482a1.182,1.182,0,0,0-.917-2.178" fill="#263238"/>
              <path id="Trazado_832923" data-name="Trazado 832923" d="M203.661,142.2l-3.1,1.3a.626.626,0,0,1-.82-.335l-1.3-3.1a.627.627,0,0,1,.334-.82l3.1-1.3a.627.627,0,0,1,.821.335l1.3,3.1a.625.625,0,0,1-.334.82" fill="#bfbfbf"/>
              <path id="Rectángulo_381527" data-name="Rectángulo 381527" d="M.626,0H3.985A.626.626,0,0,1,4.61.626V3.985a.626.626,0,0,1-.626.626H.627A.627.627,0,0,1,0,3.984V.626A.626.626,0,0,1,.626,0Z" transform="translate(198.2 139.5) rotate(-22.831)" fill="none" stroke="#263238" stroke-miterlimit="10" stroke-width="1"/>
              <path id="Trazado_832924" data-name="Trazado 832924" d="M218.61,132.736l-12.8,5.388a.53.53,0,0,1-.411-.977l12.8-5.388a.53.53,0,1,1,.411.977" fill="#263238"/>
              <path id="Trazado_832925" data-name="Trazado 832925" d="M215.6,136.505l-8.9,3.744a.53.53,0,0,1-.411-.976l8.9-3.745a.53.53,0,0,1,.411.977" fill="#263238"/>
              <path id="Trazado_832926" data-name="Trazado 832926" d="M207.667,151.722l-3.1,1.3a.626.626,0,0,1-.82-.335l-1.3-3.1a.627.627,0,0,1,.334-.82l3.1-1.3a.627.627,0,0,1,.82.335L208,150.9a.625.625,0,0,1-.334.82" fill="#757575"/>
              <path id="Rectángulo_381528" data-name="Rectángulo 381528" d="M.626,0H3.983A.627.627,0,0,1,4.61.627V3.985a.626.626,0,0,1-.626.626H.626A.626.626,0,0,1,0,3.985V.626A.626.626,0,0,1,.626,0Z" transform="translate(202.206 149.018) rotate(-22.831)" fill="none" stroke="#263238" stroke-linecap="round" stroke-linejoin="round" stroke-width="1"/>
              <path id="Trazado_832927" data-name="Trazado 832927" d="M222.616,142.254l-12.8,5.388a.53.53,0,0,1-.411-.977l12.8-5.388a.53.53,0,1,1,.411.977" fill="#263238"/>
              <path id="Trazado_832928" data-name="Trazado 832928" d="M219.6,146.023l-8.9,3.744a.53.53,0,1,1-.411-.976l8.9-3.745a.53.53,0,0,1,.412.977" fill="#263238"/>
              <path id="Trazado_832929" data-name="Trazado 832929" d="M239.452,181.494,135.461,225.258a1.182,1.182,0,0,0,.917,2.178l103.991-43.764a1.182,1.182,0,0,0-.917-2.178" fill="#263238"/>
              <path id="Trazado_832930" data-name="Trazado 832930" d="M242.747,189.325l-120.921,50.89a1.181,1.181,0,1,0,.916,2.177L243.663,191.5a1.181,1.181,0,1,0-.916-2.178" fill="#263238"/>
              <path id="Trazado_832931" data-name="Trazado 832931" d="M246.043,197.155l-120.921,50.89a1.181,1.181,0,1,0,.916,2.177L246.96,199.333a1.182,1.182,0,0,0-.917-2.178" fill="#263238"/>
              <path id="Trazado_832932" data-name="Trazado 832932" d="M249.338,204.985l-120.921,50.89a1.181,1.181,0,1,0,.916,2.177l120.922-50.889a1.182,1.182,0,0,0-.917-2.178" fill="#263238"/>
              <path id="Trazado_832933" data-name="Trazado 832933" d="M201.842,234.191,131.712,263.7a1.182,1.182,0,0,0,.917,2.178l70.13-29.514a1.182,1.182,0,0,0-.917-2.178" fill="#263238"/>
              <path id="Trazado_832934" data-name="Trazado 832934" d="M163.217,81.543s1.352,10.614-2.6,12.278c-3.607,1.518-8.361-4.177-12.509-2.431s-.876,16.793-4.878,18.477-8.823-4.5-12.275-3.045-1.364,9.193-4.922,10.691c-2.937,1.236-7.141-4.917-10.5-6.267a2.572,2.572,0,0,0-2-.1c-3.521,1.482-1.774,17.646-4.812,18.924a5.691,5.691,0,0,1-2.7.442,19.907,19.907,0,0,0-3.427-.323,4.435,4.435,0,0,0-1.282.327c-2.594,1.092-2.239,9.6-4.611,10.6s-4.713-.239-7.245.827-2.49,5.488-6.265,7.076l1.6,3.794L176.9,114.046" fill="#ffca00"/>
              <path id="Trazado_832935" data-name="Trazado 832935" d="M163.217,81.543s1.352,10.614-2.6,12.278c-3.607,1.518-8.361-4.177-12.509-2.431s-.876,16.793-4.878,18.477-8.823-4.5-12.275-3.045-1.364,9.193-4.922,10.691c-2.937,1.236-7.141-4.917-10.5-6.267a2.572,2.572,0,0,0-2-.1c-3.521,1.482-1.774,17.646-4.812,18.924a5.691,5.691,0,0,1-2.7.442,19.907,19.907,0,0,0-3.427-.323,4.435,4.435,0,0,0-1.282.327c-2.594,1.092-2.239,9.6-4.611,10.6s-4.713-.239-7.245.827-2.49,5.488-6.265,7.076l1.6,3.794L176.9,114.046" fill="none" stroke="#263238" stroke-miterlimit="10" stroke-width="1"/>
              <path id="Trazado_832936" data-name="Trazado 832936" d="M169.17,95.688s.844,5.145-1.193,6c-1.689.711-2.727-.279-4.508-.345a5.922,5.922,0,0,0-2.576.529c-1.628.685-2.023,2.882-2.312,5.246-.355,2.906-.544,6.064-2.672,6.959-1.489.627-3.1.261-4.763-.32-2.644-.921-5.428-2.379-8.111-1.25-1.3.548-2.215,1.963-2.922,3.709-1.669,4.131-2.2,10.113-4,10.874-2.572,1.082-7.28-3.338-9.562-2.377s-1.348,4.925-3.2,5.705-2.909-1.52-6.169-.148-1.674,6.188-6.269,8.122-6.615-1.623-11.064.249-3.639,5.242-6.773,6.561-4.459-.974-6.7-.029c-2.175.916-2.773,4.494-2.808,4.717l1.227,2.917L176.9,114.046" fill="#fe502d"/>
              <path id="Trazado_832937" data-name="Trazado 832937" d="M169.17,95.688s.844,5.145-1.193,6c-1.689.711-2.727-.279-4.508-.345a5.922,5.922,0,0,0-2.576.529c-1.628.685-2.023,2.882-2.312,5.246-.355,2.906-.544,6.064-2.672,6.959-1.489.627-3.1.261-4.763-.32-2.644-.921-5.428-2.379-8.111-1.25-1.3.548-2.215,1.963-2.922,3.709-1.669,4.131-2.2,10.113-4,10.874-2.572,1.082-7.28-3.338-9.562-2.377s-1.348,4.925-3.2,5.705-2.909-1.52-6.169-.148-1.674,6.188-6.269,8.122-6.615-1.623-11.064.249-3.639,5.242-6.773,6.561-4.459-.974-6.7-.029c-2.175.916-2.773,4.494-2.808,4.717l1.227,2.917L176.9,114.046" fill="none" stroke="#263238" stroke-miterlimit="10" stroke-width="1"/>
              <path id="Trazado_832938" data-name="Trazado 832938" d="M66.14,108.5l18.648,44.311,96.438-40.585" fill="none" stroke="#263238" stroke-linecap="round" stroke-linejoin="round" stroke-width="1"/>
              <path id="Trazado_832939" data-name="Trazado 832939" d="M150.846,130.1,118.81,143.581a1.181,1.181,0,1,0,.916,2.178l32.036-13.482a1.181,1.181,0,1,0-.916-2.178" fill="#263238"/>
              <path id="Trazado_832940" data-name="Trazado 832940" d="M176.681,78.1l-3.1,1.3a.626.626,0,0,1-.82-.335l-1.3-3.1a.626.626,0,0,1,.335-.82l3.1-1.3a.627.627,0,0,1,.82.335l1.3,3.1a.625.625,0,0,1-.334.82" fill="#bfbfbf"/>
              <path id="Rectángulo_381529" data-name="Rectángulo 381529" d="M.626,0H3.985A.626.626,0,0,1,4.61.626V3.984a.627.627,0,0,1-.627.627H.626A.626.626,0,0,1,0,3.985V.626A.626.626,0,0,1,.626,0Z" transform="translate(171.22 75.392) rotate(-22.831)" fill="none" stroke="#263238" stroke-miterlimit="10" stroke-width="1"/>
              <path id="Trazado_832941" data-name="Trazado 832941" d="M191.63,68.628l-12.8,5.388a.53.53,0,1,1-.411-.977l12.8-5.388a.53.53,0,0,1,.411.977" fill="#263238"/>
              <path id="Trazado_832942" data-name="Trazado 832942" d="M188.618,72.4l-8.9,3.744a.53.53,0,0,1-.411-.976l8.9-3.745a.53.53,0,1,1,.411.977" fill="#263238"/>
              <path id="Trazado_832943" data-name="Trazado 832943" d="M180.687,87.614l-3.1,1.3a.626.626,0,0,1-.82-.335l-1.3-3.1a.627.627,0,0,1,.334-.82l3.1-1.3a.627.627,0,0,1,.82.335l1.3,3.1a.625.625,0,0,1-.334.82" fill="#92e3a9"/>
              <path id="Rectángulo_381530" data-name="Rectángulo 381530" d="M.626,0H3.985A.626.626,0,0,1,4.61.626V3.985a.626.626,0,0,1-.626.626H.627A.627.627,0,0,1,0,3.984V.626A.626.626,0,0,1,.626,0Z" transform="translate(175.226 84.91) rotate(-22.831)" fill="none" stroke="#263238" stroke-miterlimit="10" stroke-width="1"/>
              <path id="Trazado_832944" data-name="Trazado 832944" d="M195.636,78.146l-12.8,5.388a.53.53,0,0,1-.411-.977l12.8-5.388a.53.53,0,1,1,.411.977" fill="#263238"/>
              <path id="Trazado_832945" data-name="Trazado 832945" d="M192.624,81.915l-8.9,3.744a.53.53,0,1,1-.411-.976l8.9-3.745a.53.53,0,1,1,.411.977" fill="#263238"/>
              <g id="Grupo_1079144" data-name="Grupo 1079144" opacity="0.2">
                <g id="Grupo_1079143" data-name="Grupo 1079143">
                  <g id="Grupo_1079142" data-name="Grupo 1079142" clip-path="url(#clip-path-49)">
                    <g id="Grupo_1079141" data-name="Grupo 1079141" opacity="0.7">
                      <g id="Grupo_1079140" data-name="Grupo 1079140">
                        <g id="Grupo_1079139" data-name="Grupo 1079139" clip-path="url(#clip-path-49)">
                          <path id="Trazado_832946" data-name="Trazado 832946" d="M138.751,280.108l-13.87,5.84-26.14-62.11a15.389,15.389,0,0,0,4.37-8.57c1.56-8.32.46-35.07,21.29-37.83s3.26,44.08,4.22,53.01c.88,8.13,12.75,31.76,10.13,49.66"/>
                        </g>
                      </g>
                    </g>
                  </g>
                </g>
              </g>
            </g>
          </g>
          <path id="Trazado_832948" data-name="Trazado 832948" d="M273.311,223.478l-134.56,56.63-13.87,5.84-26.14-62.11-60.7-144.23,148.43-62.47Z" fill="none" stroke="#263238" stroke-linecap="round" stroke-linejoin="round" stroke-width="1"/>
          <g id="Grupo_1079160" data-name="Grupo 1079160">
            <g id="Grupo_1079159" data-name="Grupo 1079159" clip-path="url(#clip-path)">
              <path id="Trazado_832949" data-name="Trazado 832949" d="M130.372,233.834c2.334-7.984,11.455-33.614,10.258-44.944a11.075,11.075,0,0,0-.638-2.759c-3.2-8.462-16.285-7.643-21.307-.632-5.517,7.712-10.024,21.586-10.408,30.031a26.1,26.1,0,0,1-3.957,11.857c-.009.019-.008.028-.017.038a29.315,29.315,0,0,1-2.647,3.759L71.809,160.365A40.419,40.419,0,0,0,64,169.082a14.263,14.263,0,0,0-2.294,6.071c-.612,6.974-8.513,35.633-11.8,47.729-.063.26-.136.5-.2.743-3.158,11.622,5.18,54.783,2.8,67.319s-3.866,12.257-4.213,21.161c-.254,6.5-9.554,26.264-19.972,46.552C22.345,370.284,16,382.073,10.771,391.627l76.32-3.17c1.323-9.272,2.678-19.061,3.917-28.534a106.63,106.63,0,0,1,2.28-11.714V348.2c1.685-6.8,3.736-12.951,4.984-16.551a155.947,155.947,0,0,0,3.983-16.1c8.875-9.4,20.515-24.164,23.887-34.167.009-.019.017-.047.025-.066a12.418,12.418,0,0,0,.76-6.493,30.1,30.1,0,0,1-.6-5.463c.009-.01.009-.01,0-.019-.385-10.83,2.093-28.858,4.05-35.512" fill="#fff"/>
              <g id="Grupo_1079149" data-name="Grupo 1079149" opacity="0.4">
                <g id="Grupo_1079148" data-name="Grupo 1079148">
                  <g id="Grupo_1079147" data-name="Grupo 1079147" clip-path="url(#clip-path-52)">
                    <path id="Trazado_832950" data-name="Trazado 832950" d="M104.3,227.425c-2.367,4.75-5.218,9.363-7.038,14.688s-3.774,6.076-9.116,10.241-9.24-2.7-9.24-2.7,7.067-7.344,4.719-11.429S72.483,223.967,73,218.356s-5.334-18.191-5.334-18.191S81,192.341,78.41,183.2C77,178.2,70.02,172.868,64,169.083a40.391,40.391,0,0,1,7.81-8.717l29.846,70.818a29.252,29.252,0,0,0,2.648-3.759" fill="#2d54fe"/>
                  </g>
                </g>
              </g>
              <g id="Grupo_1079152" data-name="Grupo 1079152" opacity="0.4">
                <g id="Grupo_1079151" data-name="Grupo 1079151">
                  <g id="Grupo_1079150" data-name="Grupo 1079150" clip-path="url(#clip-path-53)">
                    <path id="Trazado_832951" data-name="Trazado 832951" d="M55.9,270.865c.181.6,4.518,14.934.859,20.9-3.745,6.1-7.421,13.886-5.631,21.992,1.427,6.477-10.572,29.882-22.808,44.9,10.418-20.288,19.718-40.052,19.972-46.552.347-8.9,1.82-8.634,4.213-21.161s-5.953-55.7-2.8-67.318c.063-.242.136-.484.2-.744,2.33,13.168,7.758,39.4,9.248,47.829,1.9,10.741-3.055.578-3.257.154" fill="#2d54fe"/>
                  </g>
                </g>
              </g>
              <g id="Grupo_1079155" data-name="Grupo 1079155" opacity="0.4">
                <g id="Grupo_1079154" data-name="Grupo 1079154">
                  <g id="Grupo_1079153" data-name="Grupo 1079153" clip-path="url(#clip-path-54)">
                    <path id="Trazado_832952" data-name="Trazado 832952" d="M83.381,357.335c8.866-38.185,38.719-67.471,42.761-75.949-3.372,10-15.012,24.772-23.887,34.168a155.947,155.947,0,0,1-3.983,16.1c-1.248,3.6-3.3,9.752-4.984,16.551v.009c-8.667,10.214-9.907,9.126-9.907,9.126" fill="#2d54fe"/>
                  </g>
                </g>
              </g>
              <g id="Grupo_1079158" data-name="Grupo 1079158" opacity="0.4">
                <g id="Grupo_1079157" data-name="Grupo 1079157">
                  <g id="Grupo_1079156" data-name="Grupo 1079156" clip-path="url(#clip-path-55)">
                    <path id="Trazado_832953" data-name="Trazado 832953" d="M130.372,233.834c-1.957,6.654-4.435,24.682-4.05,35.512-1.569-6.8-4.593-15.436-5.093-27.466-.847-20.4,10.708-13.084,6.678-23.129s-15.518,2.832-9.857-18.444c4.135-15.532,15.9-15.387,21.942-14.176a11.075,11.075,0,0,1,.638,2.759c1.2,11.33-7.924,36.96-10.258,44.944" fill="#2d54fe"/>
                  </g>
                </g>
              </g>
              <path id="Trazado_832954" data-name="Trazado 832954" d="M22.377,370.564c9.573-17.486,18.877-35.475,25.585-54.879.8-2.791-.267-6.424.537-9.215,9.065-25.2-1.217-51.426.469-77.234,1.416-10.171,4.667-20.417,7.919-30.664,1.53-7.417,2.1-15.714,4.553-23.17,2.524-5.62,5.01-12.158,10.369-15.037,10.2,23.375,20.367,46.853,29.847,70.819,4.282-2.476,4.971-8.02,5.7-12.646,2.3-11.126,4.629-21.335,8.837-30.7,4.283-7.532,15.18-10.742,21.87-4.585a10.426,10.426,0,0,1,3.058,7.227c-1.3,12.923-5.356,25.961-9.449,38.081-1.607,5.582-3.251,10.246-3.94,15.79l.19,4.588c-2.371,9.291-.193,17.474-.73,26.688-2.067,16.632-15.374,28.216-24.973,40.564-2.371,9.291-4.743,18.582-8.033,27.911-4.016,13.955-5.28,27.8-6.65,41.249" fill="none" stroke="#263238" stroke-linecap="round" stroke-linejoin="round" stroke-width="1"/>
              <path id="Trazado_832955" data-name="Trazado 832955" d="M101.659,231.185a62.322,62.322,0,0,0-4.395,10.928c-1.251,4.9-7.584,4.194-10.851,7.239" fill="none" stroke="#263238" stroke-linecap="round" stroke-linejoin="round" stroke-width="1"/>
              <path id="Trazado_832956" data-name="Trazado 832956" d="M77.784,222.557s8.611,3.036,13.622,6.95,8.721,4.868,8.721,4.868" fill="none" stroke="#263238" stroke-linecap="round" stroke-linejoin="round" stroke-width="1"/>
              <path id="Trazado_832957" data-name="Trazado 832957" d="M72.291,201.209s6.948,1.948,12.1-.5A46.217,46.217,0,0,1,85.7,193.32" fill="none" stroke="#263238" stroke-linecap="round" stroke-linejoin="round" stroke-width="1"/>
              <path id="Trazado_832958" data-name="Trazado 832958" d="M86.047,201.715s.072.969,3.615,1.009" fill="none" stroke="#263238" stroke-linecap="round" stroke-linejoin="round" stroke-width="1"/>
              <path id="Trazado_832959" data-name="Trazado 832959" d="M102.254,315.558a47.363,47.363,0,0,0-10.921,17.229" fill="none" stroke="#263238" stroke-linecap="round" stroke-linejoin="round" stroke-width="1"/>
              <path id="Trazado_832960" data-name="Trazado 832960" d="M49.3,225.762c-.311,5.988,6.722,27.276,8.858,37.854s2.933,18.061,2.933,18.061" fill="none" stroke="#263238" stroke-linecap="round" stroke-linejoin="round" stroke-width="1"/>
            </g>
          </g>
        </g>
      </g>
    </g>
  </g>
</svg>
