<svg xmlns="http://www.w3.org/2000/svg" width="1328" height="309.6" viewBox="0 0 1328 309.6">
  <g id="Grupo_1028183" data-name="Grupo 1028183" transform="translate(-588.664 -1027.41)">
    <path id="Trazado_179748" data-name="Trazado 179748" d="M588.664,1027.41v247.776c390.952-42.622,814.178,12.174,1328,23.125V1050.536C1525.712,1093.158,1102.486,1038.362,588.664,1027.41Z" fill="#fcf6d8"/>
    <path id="Trazado_179749" data-name="Trazado 179749" d="M822.51,1132.977c36.631-27.3,65.6-55.271,86.616-83.549l-2.624-.127c-19.514,26.343-47.308,54.3-86.171,83.268-51.974,38.733-78.157,76.619-77.824,112.6.223,23.9,12.108,46.525,35.3,67.583.86-.033,1.723-.061,2.583-.093C722.314,1259.85,736.472,1197.1,822.51,1132.977Z" transform="translate(0 -10.225)" fill="#fff"/>
    <path id="Trazado_179750" data-name="Trazado 179750" d="M993.806,1086.731c9.687-6.867,19.7-13.967,29.226-20.881,2.244-1.629,4.4-3.252,6.5-4.873l-2.544-.135c-1.985,1.528-4.007,3.057-6.121,4.591-9.519,6.909-19.532,14.008-29.215,20.872C905.7,1147.244,816.822,1210.257,872.614,1273.2q19.572,22.08,61.845,42.5l3.1.014q-42.971-20.594-62.634-42.8C819.464,1210.339,908.094,1147.5,993.806,1086.731Z" transform="translate(0 -15.617)" fill="#fff"/>
    <path id="Trazado_179751" data-name="Trazado 179751" d="M706.045,1235.03c6.083-31.07-5.261-58.628-34.68-84.246-19.146-16.673-46.1-32.711-82.7-48.8v1.406c35.5,15.747,61.734,31.449,80.461,47.757,58.722,51.137,46.7,110.222-39,191.578-1.549,1.47-3.017,2.938-4.447,4.4.944-.088,1.893-.167,2.838-.254,1.254-1.27,2.536-2.541,3.878-3.816C675.788,1301.859,699.879,1266.523,706.045,1235.03Z" transform="translate(0 -34.833)" fill="#fff"/>
    <path id="Trazado_179752" data-name="Trazado 179752" d="M1655.3,1249.115c-24.775-54.774,22.387-109.919,133.64-158.482q-1.977.115-3.955.227c-45.739,20.039-80.54,41.161-103.912,63.116-33.193,31.182-42.673,63.242-28.178,95.291,16.333,36.111,63.607,71.229,136.711,101.558q19.44,8.065,41.166,15.617l3.3.1C1738.206,1333.447,1675.069,1292.833,1655.3,1249.115Z" transform="translate(0 -29.533)" fill="#fff"/>
    <path id="Trazado_179753" data-name="Trazado 179753" d="M1816.033,1248.386c-5.871,35.235,27.238,73.117,100.631,114.682V1361.4c-71.648-40.931-103.98-78.251-98.2-112.956,5.435-32.619,43.81-60.356,98.2-85.451v-1.454C1860.992,1186.986,1821.571,1215.149,1816.033,1248.386Z" transform="translate(0 -62.653)" fill="#fff"/>
    <path id="Trazado_179754" data-name="Trazado 179754" d="M1474.579,1235.243c-8.065-32.957,23.526-63.776,93.893-91.6,38.791-15.338,72.169-30.051,100.516-44.323q-1.52.031-3.041.058c-28.155,14.078-61.12,28.563-99.247,43.639-70.869,28.023-102.681,59.08-94.549,92.31,7.4,30.224,51.713,74.718,203.342,129.317,1.332.058,2.66.119,3.993.177C1526.53,1310.041,1481.975,1265.463,1474.579,1235.243Z" transform="translate(0 -33.59)" fill="#fff"/>
  </g>
</svg>
